<svg width="62" height="62" viewBox="0 0 62 62" fill="none" xmlns="http://www.w3.org/2000/svg">
<rect width="62" height="62" rx="5" fill="white"/>
<path d="M14.3619 47H23.8659C29.6979 47 34.1619 44.516 34.1619 39.152C34.1619 35.588 32.0379 33.536 29.1939 32.852V32.708C31.4619 31.88 32.7939 29.396 32.7939 26.948C32.7939 21.98 28.6179 20.36 23.1459 20.36H14.3619V47ZM19.6899 31.196V24.464H22.8579C26.0619 24.464 27.6099 25.364 27.6099 27.704C27.6099 29.864 26.1699 31.196 22.7859 31.196H19.6899ZM19.6899 42.896V35.156H23.3979C27.0699 35.156 28.9779 36.272 28.9779 38.864C28.9779 41.6 26.9979 42.896 23.3979 42.896H19.6899ZM40.5218 37.928H43.9778L44.7338 24.644L44.8778 19.64H39.5858L39.7298 24.644L40.5218 37.928ZM42.2138 47.504C44.1218 47.504 45.5258 46.028 45.5258 44.048C45.5258 42.068 44.1218 40.628 42.2138 40.628C40.3418 40.628 38.9378 42.068 38.9378 44.048C38.9378 46.028 40.3418 47.504 42.2138 47.504Z" fill="#2D9CDB"/>
</svg>
