<svg width="537" height="508" viewBox="0 0 537 508" fill="none" xmlns="http://www.w3.org/2000/svg">
<ellipse cx="256.5" cy="162.5" rx="256.5" ry="162.5" fill="white"/>
<path d="M256.5 325C398.161 325 513 252.246 513 162.5H0C0 252.246 114.839 325 256.5 325Z" fill="#90DDDD"/>
<mask id="mask0_496_219" style="mask-type:alpha" maskUnits="userSpaceOnUse" x="0" y="0" width="513" height="325">
<ellipse cx="256.5" cy="162.5" rx="256.5" ry="162.5" fill="white"/>
</mask>
<g mask="url(#mask0_496_219)">
<path d="M-78 284.345V254.958H-59.8136V221.954L-49.0259 210.58V232.757H-29.1688V169.676H-23.1067V146.714H-15.3739L-11.0779 140.67V170.414H4.22066V157.683H62.0257L62.2167 112.901L104.843 113.258L104.866 143.359L147.254 142.526V96.9585H182.123V129.058H189.283V159.254L277.494 159.658V125.798L290.979 115.947V160.539H306.373V148.284H324.464V183.668H338.449V172.008H357.28V227.117L380.168 227.522V284.345H-78Z" fill="#80C7E0"/>
<path d="M179.832 284.345V254.958H197.994V221.954L208.782 210.58V232.757H228.639V169.676H234.725V146.714H242.434L246.73 140.67V170.414H262.052V157.683H319.833L320.048 112.901L362.65 113.258L362.698 143.359L405.085 142.526V96.9585H439.954V129.058H447.114V159.254L535.302 159.658V125.798L548.786 115.947V160.539H564.204V148.284H582.271V183.668H596.281V172.008H615.112V227.117L638 227.522V284.345H179.832Z" fill="#80C7E0"/>
<path d="M174.318 284.63H131.144V33.9971L174.318 76.8282V284.63Z" fill="url(#paint0_linear_496_219)"/>
<path d="M204.271 76.8281H174.318V284.606H204.271V76.8281Z" fill="url(#paint1_linear_496_219)"/>
<path d="M131.144 33.997L174.318 76.828H204.271V71.8311L160.786 33.997L131.144 29V33.997Z" fill="white"/>
<path d="M131.144 29L174.318 71.8311H204.271L160.786 29H131.144Z" fill="#E5F4F9"/>
<path opacity="0.3" d="M174.318 232.924L131.144 189.854V206.487L174.318 249.532V232.924Z" fill="white"/>
<path opacity="0.3" d="M131.144 75.0674V122.491L174.318 165.56V118.113L131.144 75.0674Z" fill="white"/>
<path opacity="0.3" d="M131.144 147.761L174.318 190.83V174.221L131.144 131.152V147.761Z" fill="white"/>
<path d="M248.329 105.882H203.674V284.606H248.329V105.882Z" fill="url(#paint2_linear_496_219)"/>
<path d="M245.107 113.591H203.674V120.397H245.107V113.591Z" fill="#183446"/>
<path d="M245.107 127.178H203.674V133.984H245.107V127.178Z" fill="#183446"/>
<path d="M245.107 140.789H203.674V147.594H245.107V140.789Z" fill="#183446"/>
<path d="M245.107 154.376H203.674V161.181H245.107V154.376Z" fill="#183446"/>
<path d="M245.107 167.963H203.674V174.768H245.107V167.963Z" fill="#183446"/>
<path d="M245.107 181.574H203.674V188.379H245.107V181.574Z" fill="#183446"/>
<path d="M245.107 195.161H203.674V201.966H245.107V195.161Z" fill="#183446"/>
<path d="M245.107 208.771H203.674V215.577H245.107V208.771Z" fill="#183446"/>
<path d="M245.107 222.358H203.674V229.164H245.107V222.358Z" fill="#183446"/>
<path d="M245.107 235.945H203.674V242.751H245.107V235.945Z" fill="#183446"/>
<path d="M245.107 249.556H203.674V256.362H245.107V249.556Z" fill="#183446"/>
<path d="M245.107 263.143H203.674V269.948H245.107V263.143Z" fill="#183446"/>
<path d="M245.107 276.754H203.674V283.559H245.107V276.754Z" fill="#183446"/>
<path d="M248.329 112.687H203.674V119.492H248.329V112.687Z" fill="#60BED6"/>
<path d="M248.329 126.298H203.674V133.103H248.329V126.298Z" fill="#60BED6"/>
<path d="M248.329 139.885H203.674V146.69H248.329V139.885Z" fill="#60BED6"/>
<path d="M248.329 153.472H203.674V160.277H248.329V153.472Z" fill="#60BED6"/>
<path d="M248.329 167.083H203.674V173.888H248.329V167.083Z" fill="#60BED6"/>
<path d="M248.329 180.669H203.674V187.475H248.329V180.669Z" fill="#60BED6"/>
<path d="M248.329 194.256H203.674V201.062H248.329V194.256Z" fill="#60BED6"/>
<path d="M248.329 207.867H203.674V214.673H248.329V207.867Z" fill="#60BED6"/>
<path d="M248.329 221.454H203.674V228.259H248.329V221.454Z" fill="#60BED6"/>
<path d="M248.329 235.065H203.674V241.87H248.329V235.065Z" fill="#60BED6"/>
<path d="M248.329 248.652H203.674V255.457H248.329V248.652Z" fill="#60BED6"/>
<path d="M248.329 262.239H203.674V269.044H248.329V262.239Z" fill="#60BED6"/>
<path d="M248.329 275.85H203.674V282.655H248.329V275.85Z" fill="#60BED6"/>
<path d="M248.329 96.9585H209.904V105.882H248.329V96.9585Z" fill="white"/>
<path d="M248.325 105.896H267.037V96.9724H248.325V105.896Z" fill="#CCE9F3"/>
<path d="M248.329 284.63H270.071V105.882H248.329V284.63Z" fill="url(#paint3_linear_496_219)"/>
<path d="M248.33 119.493H270.072V112.688H248.33V119.493Z" fill="#38AECC"/>
<path d="M248.33 133.075H270.072V126.269H248.33V133.075Z" fill="#38AECC"/>
<path d="M248.33 146.68H270.072V139.875H248.33V146.68Z" fill="#38AECC"/>
<path d="M248.33 160.285H270.072V153.48H248.33V160.285Z" fill="#38AECC"/>
<path d="M248.33 173.867H270.072V167.061H248.33V173.867Z" fill="#38AECC"/>
<path d="M248.33 187.472H270.072V180.667H248.33V187.472Z" fill="#38AECC"/>
<path d="M248.33 201.078H270.072V194.272H248.33V201.078Z" fill="#38AECC"/>
<path d="M248.33 214.659H270.072V207.854H248.33V214.659Z" fill="#38AECC"/>
<path d="M248.33 228.265H270.072V221.459H248.33V228.265Z" fill="#38AECC"/>
<path d="M248.33 241.846H270.072V235.041H248.33V241.846Z" fill="#38AECC"/>
<path d="M248.33 255.452H270.072V248.646H248.33V255.452Z" fill="#38AECC"/>
<path d="M248.33 269.057H270.072V262.251H248.33V269.057Z" fill="#38AECC"/>
<path d="M248.33 282.638H270.072V275.833H248.33V282.638Z" fill="#38AECC"/>
<path d="M364.226 284.63H409.787L440.456 63.3838H364.226V284.63Z" fill="#0090C1"/>
<path d="M427.878 284.63H409.787L440.456 63.3838H458.547L427.878 284.63Z" fill="url(#paint4_linear_496_219)"/>
<path d="M364.226 213.626V215.887H419.334L419.644 213.626H364.226Z" fill="#60BED6"/>
<path d="M364.226 227.688V229.973H417.377L417.687 227.688H364.226Z" fill="#60BED6"/>
<path d="M364.226 185.453V187.713H423.224L423.534 185.453H364.226Z" fill="#60BED6"/>
<path d="M364.226 199.539V201.8H421.267L421.601 199.539H364.226Z" fill="#60BED6"/>
<path d="M364.226 241.775V244.036H415.42L415.73 241.775H364.226Z" fill="#60BED6"/>
<path d="M364.226 255.862V258.122H413.462L413.773 255.862H364.226Z" fill="#60BED6"/>
<path d="M411.505 272.209L411.84 269.949H364.226V272.209H411.505Z" fill="#60BED6"/>
<path d="M364.226 72.8066V75.0672H438.833L439.143 72.8066H364.226Z" fill="#60BED6"/>
<path d="M364.226 100.956V103.24H434.942L435.253 100.956H364.226Z" fill="#60BED6"/>
<path d="M364.226 86.8931V89.1536H436.876L437.21 86.8931H364.226Z" fill="#60BED6"/>
<path d="M364.226 115.043V117.327H432.985L433.296 115.043H364.226Z" fill="#60BED6"/>
<path d="M364.226 143.216V145.477H429.071L429.405 143.216H364.226Z" fill="#60BED6"/>
<path d="M364.226 129.129V131.39H431.028L431.339 129.129H364.226Z" fill="#60BED6"/>
<path d="M364.226 157.303V159.563H427.138L427.448 157.303H364.226Z" fill="#60BED6"/>
<path d="M364.226 171.366V173.65H425.181L425.491 171.366H364.226Z" fill="#60BED6"/>
<path d="M440.456 59.5293H369.285V63.3841H440.456V59.5293Z" fill="white"/>
<path d="M440.461 63.3726H455.903V59.5178H440.461V63.3726Z" fill="#CCE9F3"/>
<path d="M455.229 284.631H488.261V124.347H455.229V284.631Z" fill="url(#paint5_linear_496_219)"/>
<path d="M459.143 119.969H486.327V124.347H459.143V119.969Z" fill="url(#paint6_linear_496_219)"/>
<path d="M498.428 119.969H486.327V124.347H498.428V119.969Z" fill="url(#paint7_linear_496_219)"/>
<path d="M457.377 122.015H499.215L501.363 124.347H455.229L457.377 122.015Z" fill="#CCE9F3"/>
<path d="M457.377 122.015L455.229 124.347H488.308L486.16 122.015H457.377Z" fill="white"/>
<path d="M461.363 117.637H496.351L498.499 119.969H459.215L461.363 117.637Z" fill="#CCE9F3"/>
<path d="M461.363 117.637L459.215 119.969H486.614L484.466 117.637H461.363Z" fill="white"/>
<path d="M501.363 124.347H488.26V284.631H501.363V124.347Z" fill="url(#paint8_linear_496_219)"/>
<path d="M462.914 127.726H457.616V133.008H462.914V127.726Z" fill="#046E8F"/>
<path d="M470.575 127.726H465.277V133.008H470.575V127.726Z" fill="#046E8F"/>
<path d="M478.236 127.726H472.938V133.008H478.236V127.726Z" fill="#046E8F"/>
<path d="M485.898 127.726H480.599V133.008H485.898V127.726Z" fill="#046E8F"/>
<path d="M462.89 135.079H457.592V140.361H462.89V135.079Z" fill="#046E8F"/>
<path d="M470.551 135.079H465.253V140.361H470.551V135.079Z" fill="#046E8F"/>
<path d="M478.213 135.079H472.914V140.361H478.213V135.079Z" fill="#046E8F"/>
<path d="M485.874 135.079H480.575V140.361H485.874V135.079Z" fill="#046E8F"/>
<path d="M462.89 142.431H457.592V147.714H462.89V142.431Z" fill="#046E8F"/>
<path d="M470.551 142.431H465.253V147.714H470.551V142.431Z" fill="#046E8F"/>
<path d="M478.189 142.431H472.89V147.714H478.189V142.431Z" fill="#046E8F"/>
<path d="M485.85 142.431H480.552V147.714H485.85V142.431Z" fill="#046E8F"/>
<path d="M462.866 149.808H457.568V155.09H462.866V149.808Z" fill="#046E8F"/>
<path d="M470.528 149.808H465.229V155.09H470.528V149.808Z" fill="#046E8F"/>
<path d="M478.189 149.808H472.89V155.09H478.189V149.808Z" fill="#046E8F"/>
<path d="M485.85 149.808H480.552V155.09H485.85V149.808Z" fill="#046E8F"/>
<path d="M462.842 157.16H457.544V162.443H462.842V157.16Z" fill="#046E8F"/>
<path d="M470.504 157.16H465.205V162.443H470.504V157.16Z" fill="#046E8F"/>
<path d="M478.165 157.16H472.866V162.443H478.165V157.16Z" fill="#046E8F"/>
<path d="M485.826 157.16H480.528V162.443H485.826V157.16Z" fill="#046E8F"/>
<path d="M462.819 164.513H457.52V169.796H462.819V164.513Z" fill="#046E8F"/>
<path d="M470.48 164.513H465.181V169.796H470.48V164.513Z" fill="#046E8F"/>
<path d="M478.141 164.513H472.843V169.796H478.141V164.513Z" fill="#046E8F"/>
<path d="M485.802 164.513H480.504V169.796H485.802V164.513Z" fill="#046E8F"/>
<path d="M462.819 171.89H457.52V177.172H462.819V171.89Z" fill="#046E8F"/>
<path d="M470.456 171.89H465.158V177.172H470.456V171.89Z" fill="#046E8F"/>
<path d="M478.117 171.89H472.819V177.172H478.117V171.89Z" fill="#046E8F"/>
<path d="M485.778 171.89H480.48V177.172H485.778V171.89Z" fill="#046E8F"/>
<path d="M462.795 179.242H457.496V184.525H462.795V179.242Z" fill="#046E8F"/>
<path d="M470.456 179.242H465.158V184.525H470.456V179.242Z" fill="#046E8F"/>
<path d="M478.117 179.242H472.819V184.525H478.117V179.242Z" fill="#046E8F"/>
<path d="M485.778 179.242H480.48V184.525H485.778V179.242Z" fill="#046E8F"/>
<path d="M462.771 186.595H457.473V191.877H462.771V186.595Z" fill="#046E8F"/>
<path d="M470.432 186.595H465.134V191.877H470.432V186.595Z" fill="#046E8F"/>
<path d="M478.093 186.595H472.795V191.877H478.093V186.595Z" fill="#046E8F"/>
<path d="M485.755 186.595H480.456V191.877H485.755V186.595Z" fill="#046E8F"/>
<path d="M462.747 193.971H457.449V199.254H462.747V193.971Z" fill="#046E8F"/>
<path d="M470.408 193.971H465.11V199.254H470.408V193.971Z" fill="#046E8F"/>
<path d="M478.069 193.971H472.771V199.254H478.069V193.971Z" fill="#046E8F"/>
<path d="M485.731 193.971H480.432V199.254H485.731V193.971Z" fill="#046E8F"/>
<path d="M462.723 201.324H457.425V206.606H462.723V201.324Z" fill="#046E8F"/>
<path d="M470.384 201.324H465.086V206.606H470.384V201.324Z" fill="#046E8F"/>
<path d="M478.046 201.324H472.747V206.606H478.046V201.324Z" fill="#046E8F"/>
<path d="M485.707 201.324H480.408V206.606H485.707V201.324Z" fill="#046E8F"/>
<path d="M462.723 208.677H457.425V213.959H462.723V208.677Z" fill="#046E8F"/>
<path d="M470.384 208.677H465.086V213.959H470.384V208.677Z" fill="#046E8F"/>
<path d="M478.046 208.677H472.747V213.959H478.046V208.677Z" fill="#046E8F"/>
<path d="M485.707 208.677H480.408V213.959H485.707V208.677Z" fill="#046E8F"/>
<path d="M462.699 216.053H457.401V221.336H462.699V216.053Z" fill="#046E8F"/>
<path d="M470.36 216.053H465.062V221.336H470.36V216.053Z" fill="#046E8F"/>
<path d="M478.022 216.053H472.723V221.336H478.022V216.053Z" fill="#046E8F"/>
<path d="M485.683 216.053H480.384V221.336H485.683V216.053Z" fill="#046E8F"/>
<path d="M462.675 223.406H457.377V228.688H462.675V223.406Z" fill="#046E8F"/>
<path d="M470.337 223.406H465.038V228.688H470.337V223.406Z" fill="#046E8F"/>
<path d="M477.998 223.406H472.699V228.688H477.998V223.406Z" fill="#046E8F"/>
<path d="M485.659 223.406H480.361V228.688H485.659V223.406Z" fill="#046E8F"/>
<path d="M462.652 230.758H457.353V236.041H462.652V230.758Z" fill="#046E8F"/>
<path d="M470.313 230.758H465.014V236.041H470.313V230.758Z" fill="#046E8F"/>
<path d="M477.974 230.758H472.676V236.041H477.974V230.758Z" fill="#046E8F"/>
<path d="M485.635 230.758H480.337V236.041H485.635V230.758Z" fill="#046E8F"/>
<path d="M462.652 238.135H457.353V243.417H462.652V238.135Z" fill="#046E8F"/>
<path d="M470.313 238.135H465.014V243.417H470.313V238.135Z" fill="#046E8F"/>
<path d="M477.974 238.135H472.676V243.417H477.974V238.135Z" fill="#046E8F"/>
<path d="M485.611 238.135H480.313V243.417H485.611V238.135Z" fill="#046E8F"/>
<path d="M462.628 245.487H457.329V250.77H462.628V245.487Z" fill="#046E8F"/>
<path d="M470.289 245.487H464.991V250.77H470.289V245.487Z" fill="#046E8F"/>
<path d="M477.95 245.487H472.652V250.77H477.95V245.487Z" fill="#046E8F"/>
<path d="M485.611 245.487H480.313V250.77H485.611V245.487Z" fill="#046E8F"/>
<path d="M462.604 252.84H457.305V258.123H462.604V252.84Z" fill="#046E8F"/>
<path d="M470.265 252.84H464.967V258.123H470.265V252.84Z" fill="#046E8F"/>
<path d="M477.926 252.84H472.628V258.123H477.926V252.84Z" fill="#046E8F"/>
<path d="M485.587 252.84H480.289V258.123H485.587V252.84Z" fill="#046E8F"/>
<path d="M462.58 260.217H457.282V265.499H462.58V260.217Z" fill="#046E8F"/>
<path d="M470.241 260.217H464.943V265.499H470.241V260.217Z" fill="#046E8F"/>
<path d="M477.902 260.217H472.604V265.499H477.902V260.217Z" fill="#046E8F"/>
<path d="M485.564 260.217H480.265V265.499H485.564V260.217Z" fill="#046E8F"/>
<path d="M462.58 267.569H457.282V272.852H462.58V267.569Z" fill="#046E8F"/>
<path d="M470.241 267.569H464.943V272.852H470.241V267.569Z" fill="#046E8F"/>
<path d="M477.902 267.569H472.604V272.852H477.902V267.569Z" fill="#046E8F"/>
<path d="M485.54 267.569H480.241V272.852H485.54V267.569Z" fill="#046E8F"/>
<path d="M462.556 274.922H457.258V280.204H462.556V274.922Z" fill="#046E8F"/>
<path d="M470.217 274.922H464.919V280.204H470.217V274.922Z" fill="#046E8F"/>
<path d="M477.878 274.922H472.58V280.204H477.878V274.922Z" fill="#046E8F"/>
<path d="M485.54 274.922H480.241V280.204H485.54V274.922Z" fill="#046E8F"/>
<path d="M27.801 284.63H54.484V155.162H27.801V284.63Z" fill="url(#paint9_linear_496_219)"/>
<path d="M30.9753 151.616H52.9326V155.162H30.9753V151.616Z" fill="url(#paint10_linear_496_219)"/>
<path d="M62.6941 151.616H52.9326V155.162H62.6941V151.616Z" fill="url(#paint11_linear_496_219)"/>
<path d="M29.5433 153.282H63.3385L65.0569 155.162H27.801L29.5433 153.282Z" fill="#CCE9F3"/>
<path d="M29.5433 153.282L27.801 155.162H54.5317L52.7894 153.282H29.5433Z" fill="white"/>
<path d="M32.7653 149.736H61.0234L62.7418 151.616H31.023L32.7653 149.736Z" fill="#CCE9F3"/>
<path d="M32.7653 149.736L31.023 151.616H53.1713L51.429 149.736H32.7653Z" fill="white"/>
<path d="M65.0569 155.162H54.484V284.63H65.0569V155.162Z" fill="url(#paint12_linear_496_219)"/>
<path d="M34.0064 157.898H29.7342V162.157H34.0064V157.898Z" fill="#046E8F"/>
<path d="M40.1878 157.898H35.9157V162.157H40.1878V157.898Z" fill="#046E8F"/>
<path d="M46.3932 157.898H42.121V162.157H46.3932V157.898Z" fill="#046E8F"/>
<path d="M52.5746 157.898H48.3025V162.157H52.5746V157.898Z" fill="#046E8F"/>
<path d="M34.0064 163.823H29.7342V168.082H34.0064V163.823Z" fill="#046E8F"/>
<path d="M40.1878 163.823H35.9157V168.082H40.1878V163.823Z" fill="#046E8F"/>
<path d="M46.3693 163.823H42.0972V168.082H46.3693V163.823Z" fill="#046E8F"/>
<path d="M52.5508 163.823H48.2786V168.082H52.5508V163.823Z" fill="#046E8F"/>
<path d="M33.9825 169.772H29.7104V174.031H33.9825V169.772Z" fill="#046E8F"/>
<path d="M40.164 169.772H35.8918V174.031H40.164V169.772Z" fill="#046E8F"/>
<path d="M46.3454 169.772H42.0733V174.031H46.3454V169.772Z" fill="#046E8F"/>
<path d="M52.5508 169.772H48.2786V174.031H52.5508V169.772Z" fill="#046E8F"/>
<path d="M33.9586 175.721H29.6865V179.98H33.9586V175.721Z" fill="#046E8F"/>
<path d="M40.164 175.721H35.8918V179.98H40.164V175.721Z" fill="#046E8F"/>
<path d="M46.3454 175.721H42.0733V179.98H46.3454V175.721Z" fill="#046E8F"/>
<path d="M52.5269 175.721H48.2548V179.98H52.5269V175.721Z" fill="#046E8F"/>
<path d="M33.9586 181.669H29.6865V185.929H33.9586V181.669Z" fill="#046E8F"/>
<path d="M40.1401 181.669H35.868V185.929H40.1401V181.669Z" fill="#046E8F"/>
<path d="M46.3216 181.669H42.0494V185.929H46.3216V181.669Z" fill="#046E8F"/>
<path d="M52.503 181.669H48.2309V185.929H52.503V181.669Z" fill="#046E8F"/>
<path d="M33.9348 187.618H29.6626V191.877H33.9348V187.618Z" fill="#046E8F"/>
<path d="M40.1162 187.618H35.8441V191.877H40.1162V187.618Z" fill="#046E8F"/>
<path d="M46.3216 187.618H42.0494V191.877H46.3216V187.618Z" fill="#046E8F"/>
<path d="M52.503 187.618H48.2309V191.877H52.503V187.618Z" fill="#046E8F"/>
<path d="M33.9348 193.567H29.6626V197.826H33.9348V193.567Z" fill="#046E8F"/>
<path d="M40.1162 193.567H35.8441V197.826H40.1162V193.567Z" fill="#046E8F"/>
<path d="M46.2977 193.567H42.0256V197.826H46.2977V193.567Z" fill="#046E8F"/>
<path d="M52.4792 193.567H48.207V197.826H52.4792V193.567Z" fill="#046E8F"/>
<path d="M33.9109 199.516H29.6388V203.775H33.9109V199.516Z" fill="#046E8F"/>
<path d="M40.0924 199.516H35.8202V203.775H40.0924V199.516Z" fill="#046E8F"/>
<path d="M46.2738 199.516H42.0017V203.775H46.2738V199.516Z" fill="#046E8F"/>
<path d="M52.4792 199.516H48.207V203.775H52.4792V199.516Z" fill="#046E8F"/>
<path d="M33.887 205.44H29.6149V209.7H33.887V205.44Z" fill="#046E8F"/>
<path d="M40.0924 205.44H35.8202V209.7H40.0924V205.44Z" fill="#046E8F"/>
<path d="M46.2738 205.44H42.0017V209.7H46.2738V205.44Z" fill="#046E8F"/>
<path d="M52.4553 205.44H48.1832V209.7H52.4553V205.44Z" fill="#046E8F"/>
<path d="M33.887 211.389H29.6149V215.648H33.887V211.389Z" fill="#046E8F"/>
<path d="M40.0685 211.389H35.7964V215.648H40.0685V211.389Z" fill="#046E8F"/>
<path d="M46.25 211.389H41.9778V215.648H46.25V211.389Z" fill="#046E8F"/>
<path d="M52.4314 211.389H48.1593V215.648H52.4314V211.389Z" fill="#046E8F"/>
<path d="M33.8632 217.338H29.591V221.597H33.8632V217.338Z" fill="#046E8F"/>
<path d="M40.0446 217.338H35.7725V221.597H40.0446V217.338Z" fill="#046E8F"/>
<path d="M46.25 217.338H41.9778V221.597H46.25V217.338Z" fill="#046E8F"/>
<path d="M52.4314 217.338H48.1593V221.597H52.4314V217.338Z" fill="#046E8F"/>
<path d="M33.8393 223.287H29.5672V227.546H33.8393V223.287Z" fill="#046E8F"/>
<path d="M40.0446 223.287H35.7725V227.546H40.0446V223.287Z" fill="#046E8F"/>
<path d="M46.2261 223.287H41.954V227.546H46.2261V223.287Z" fill="#046E8F"/>
<path d="M52.4076 223.287H48.1354V227.546H52.4076V223.287Z" fill="#046E8F"/>
<path d="M33.8393 229.235H29.5672V233.495H33.8393V229.235Z" fill="#046E8F"/>
<path d="M40.0208 229.235H35.7486V233.495H40.0208V229.235Z" fill="#046E8F"/>
<path d="M46.2022 229.235H41.9301V233.495H46.2022V229.235Z" fill="#046E8F"/>
<path d="M52.4076 229.235H48.1354V233.495H52.4076V229.235Z" fill="#046E8F"/>
<path d="M33.8154 235.185H29.5433V239.444H33.8154V235.185Z" fill="#046E8F"/>
<path d="M39.9969 235.185H35.7248V239.444H39.9969V235.185Z" fill="#046E8F"/>
<path d="M46.2022 235.185H41.9301V239.444H46.2022V235.185Z" fill="#046E8F"/>
<path d="M52.3837 235.185H48.1116V239.444H52.3837V235.185Z" fill="#046E8F"/>
<path d="M33.8154 241.133H29.5433V245.393H33.8154V241.133Z" fill="#046E8F"/>
<path d="M39.9969 241.133H35.7248V245.393H39.9969V241.133Z" fill="#046E8F"/>
<path d="M46.1784 241.133H41.9062V245.393H46.1784V241.133Z" fill="#046E8F"/>
<path d="M52.3598 241.133H48.0877V245.393H52.3598V241.133Z" fill="#046E8F"/>
<path d="M33.7916 247.058H29.5194V251.317H33.7916V247.058Z" fill="#046E8F"/>
<path d="M39.973 247.058H35.7009V251.317H39.973V247.058Z" fill="#046E8F"/>
<path d="M46.1545 247.058H41.8824V251.317H46.1545V247.058Z" fill="#046E8F"/>
<path d="M52.3598 247.058H48.0877V251.317H52.3598V247.058Z" fill="#046E8F"/>
<path d="M33.7677 253.007H29.4956V257.266H33.7677V253.007Z" fill="#046E8F"/>
<path d="M39.973 253.007H35.7009V257.266H39.973V253.007Z" fill="#046E8F"/>
<path d="M46.1545 253.007H41.8824V257.266H46.1545V253.007Z" fill="#046E8F"/>
<path d="M52.336 253.007H48.0638V257.266H52.336V253.007Z" fill="#046E8F"/>
<path d="M33.7677 258.956H29.4956V263.215H33.7677V258.956Z" fill="#046E8F"/>
<path d="M39.9492 258.956H35.677V263.215H39.9492V258.956Z" fill="#046E8F"/>
<path d="M46.1306 258.956H41.8585V263.215H46.1306V258.956Z" fill="#046E8F"/>
<path d="M52.3121 258.956H48.04V263.215H52.3121V258.956Z" fill="#046E8F"/>
<path d="M33.7438 264.904H29.4717V269.164H33.7438V264.904Z" fill="#046E8F"/>
<path d="M39.9253 264.904H35.6532V269.164H39.9253V264.904Z" fill="#046E8F"/>
<path d="M46.1306 264.904H41.8585V269.164H46.1306V264.904Z" fill="#046E8F"/>
<path d="M52.3121 264.904H48.04V269.164H52.3121V264.904Z" fill="#046E8F"/>
<path d="M33.7438 270.853H29.4717V275.112H33.7438V270.853Z" fill="#046E8F"/>
<path d="M39.9253 270.853H35.6532V275.112H39.9253V270.853Z" fill="#046E8F"/>
<path d="M46.1068 270.853H41.8346V275.112H46.1068V270.853Z" fill="#046E8F"/>
<path d="M52.2882 270.853H48.0161V275.112H52.2882V270.853Z" fill="#046E8F"/>
<path d="M33.72 276.802H29.4478V281.061H33.72V276.802Z" fill="#046E8F"/>
<path d="M39.9014 276.802H35.6293V281.061H39.9014V276.802Z" fill="#046E8F"/>
<path d="M46.0829 276.802H41.8108V281.061H46.0829V276.802Z" fill="#046E8F"/>
<path d="M52.2882 276.802H48.0161V281.061H52.2882V276.802Z" fill="#046E8F"/>
<path d="M286.427 284.633H314.59V80.6859H286.427V284.633Z" fill="#0090C1"/>
<path d="M286.427 89.7402H314.59V88.027H286.427V89.7402Z" fill="#046E8F"/>
<path d="M286.427 98.6875H314.59V96.9743H286.427V98.6875Z" fill="#046E8F"/>
<path d="M286.427 107.634H314.59V105.921H286.427V107.634Z" fill="#046E8F"/>
<path d="M286.427 116.582H314.59V114.868H286.427V116.582Z" fill="#046E8F"/>
<path d="M286.427 125.529H314.59V123.816H286.427V125.529Z" fill="#046E8F"/>
<path d="M286.427 134.476H314.59V132.763H286.427V134.476Z" fill="#046E8F"/>
<path d="M286.427 143.423H314.59V141.71H286.427V143.423Z" fill="#046E8F"/>
<path d="M286.427 152.37H314.59V150.657H286.427V152.37Z" fill="#046E8F"/>
<path d="M286.427 161.317H314.59V159.604H286.427V161.317Z" fill="#046E8F"/>
<path d="M286.427 170.265H314.59V168.551H286.427V170.265Z" fill="#046E8F"/>
<path d="M286.427 179.212H314.59V177.499H286.427V179.212Z" fill="#046E8F"/>
<path d="M286.427 188.159H314.59V186.446H286.427V188.159Z" fill="#046E8F"/>
<path d="M286.427 197.106H314.59V195.393H286.427V197.106Z" fill="#046E8F"/>
<path d="M286.427 206.053H314.59V204.34H286.427V206.053Z" fill="#046E8F"/>
<path d="M286.427 215H314.59V213.287H286.427V215Z" fill="#046E8F"/>
<path d="M286.427 223.948H314.59V222.235H286.427V223.948Z" fill="#046E8F"/>
<path d="M286.427 232.895H314.59V231.182H286.427V232.895Z" fill="#046E8F"/>
<path d="M286.427 241.842H314.59V240.129H286.427V241.842Z" fill="#046E8F"/>
<path d="M286.427 250.789H314.59V249.076H286.427V250.789Z" fill="#046E8F"/>
<path d="M286.427 259.736H314.59V258.023H286.427V259.736Z" fill="#046E8F"/>
<path d="M286.427 268.684H314.59V266.97H286.427V268.684Z" fill="#046E8F"/>
<path d="M286.427 277.631H314.59V275.918H286.427V277.631Z" fill="#046E8F"/>
<path opacity="0.3" d="M296.003 284.633H314.595V80.6859H296.003V284.633Z" fill="#0090C1"/>
<path d="M301.599 284.63H352.507V37.5664H301.599V284.63Z" fill="url(#paint13_linear_496_219)"/>
<path d="M304.917 33.5449H369.357L372.698 37.5663H301.599L304.917 33.5449Z" fill="#CCE9F3"/>
<path d="M304.917 33.5449L301.599 37.5663H352.746L349.428 33.5449H304.917Z" fill="white"/>
<path d="M372.698 37.5664H352.507V284.607H372.698V37.5664Z" fill="url(#paint14_linear_496_219)"/>
<g opacity="0.3">
<path opacity="0.3" d="M301.599 160.063V88.2975L352.483 37.5664H352.507V109.332L301.599 160.063Z" fill="white"/>
<path opacity="0.3" d="M352.507 188.879V234.565L302.291 284.63H301.599V239.61L352.507 188.879Z" fill="white"/>
<path opacity="0.3" d="M352.507 164.394L301.599 215.125V169.438L352.507 118.684V164.394Z" fill="white"/>
</g>
<path d="M94.4606 88.3447L63.4817 118.564H102.599L94.4606 88.3447Z" fill="white"/>
<path d="M94.4606 88.3447L120.571 118.564H102.575L94.4606 88.3447Z" fill="#CCE9F3"/>
<path d="M102.551 118.636H63.5533V284.63H102.551V118.636Z" fill="url(#paint15_linear_496_219)"/>
<path d="M102.551 130.89H63.5533V131.675H102.551V130.89Z" fill="#046E8F"/>
<path d="M102.551 284.63H120.571V118.636H102.551V284.63Z" fill="url(#paint16_linear_496_219)"/>
<g opacity="0.3">
<path opacity="0.3" d="M102.551 254.03L63.5533 215.148V226.903L102.551 265.784V254.03Z" fill="white"/>
<path opacity="0.3" d="M63.5533 175.839L102.551 214.72V202.942L63.5533 164.061V175.839Z" fill="white"/>
<path opacity="0.3" d="M78.2552 118.636H63.5533V158.968L102.551 197.849V142.859L78.2552 118.636Z" fill="white"/>
</g>
<path d="M102.557 131.7H120.577V130.915H102.557V131.7Z" fill="#046E8F"/>
<path d="M102.551 140.218H63.5533V141.003H102.551V140.218Z" fill="#046E8F"/>
<path d="M102.557 140.986H120.577V140.201H102.557V140.986Z" fill="#046E8F"/>
<path d="M102.551 149.522H63.5533V150.307H102.551V149.522Z" fill="#046E8F"/>
<path d="M102.557 150.296H120.577V149.511H102.557V150.296Z" fill="#046E8F"/>
<path d="M102.551 158.826H63.5533V159.611H102.551V158.826Z" fill="#046E8F"/>
<path d="M102.557 159.606H120.577V158.821H102.557V159.606Z" fill="#046E8F"/>
<path d="M102.551 168.129H63.5533V168.915H102.551V168.129Z" fill="#046E8F"/>
<path d="M102.557 168.916H120.577V168.13H102.557V168.916Z" fill="#046E8F"/>
<path d="M102.551 177.434H63.5533V178.219H102.551V177.434Z" fill="#046E8F"/>
<path d="M102.557 178.226H120.577V177.44H102.557V178.226Z" fill="#046E8F"/>
<path d="M102.551 186.737H63.5533V187.523H102.551V186.737Z" fill="#046E8F"/>
<path d="M102.557 187.535H120.577V186.75H102.557V187.535Z" fill="#046E8F"/>
<path d="M102.551 196.041H63.5533V196.826H102.551V196.041Z" fill="#046E8F"/>
<path d="M102.557 196.845H120.577V196.06H102.557V196.845Z" fill="#046E8F"/>
<path d="M102.551 205.345H63.5533V206.13H102.551V205.345Z" fill="#046E8F"/>
<path d="M102.557 206.155H120.577V205.37H102.557V206.155Z" fill="#046E8F"/>
<path d="M102.551 214.673H63.5533V215.458H102.551V214.673Z" fill="#046E8F"/>
<path d="M102.557 215.441H120.577V214.656H102.557V215.441Z" fill="#046E8F"/>
<path d="M102.551 223.977H63.5533V224.762H102.551V223.977Z" fill="#046E8F"/>
<path d="M102.557 224.751H120.577V223.966H102.557V224.751Z" fill="#046E8F"/>
<path d="M102.551 233.28H63.5533V234.066H102.551V233.28Z" fill="#046E8F"/>
<path d="M102.557 234.061H120.577V233.275H102.557V234.061Z" fill="#046E8F"/>
<path d="M102.551 242.584H63.5533V243.369H102.551V242.584Z" fill="#046E8F"/>
<path d="M102.557 243.371H120.577V242.585H102.557V243.371Z" fill="#046E8F"/>
<path d="M102.551 251.888H63.5533V252.673H102.551V251.888Z" fill="#046E8F"/>
<path d="M102.557 252.68H120.577V251.895H102.557V252.68Z" fill="#046E8F"/>
<path d="M102.551 261.192H63.5533V261.977H102.551V261.192Z" fill="#046E8F"/>
<path d="M102.557 261.99H120.577V261.205H102.557V261.99Z" fill="#046E8F"/>
<path opacity="0.3" d="M528.547 169.391L497.903 139.1H497.831V168.011V210.628V216.196V243.346V257.885V284.63H498.237H528.07L528.547 169.391Z" fill="#022F40"/>
<path d="M156.991 222.549H84.0786V284.701H156.991V222.549Z" fill="white"/>
<path d="M126.299 228.878H84.0786V234.351H126.299V228.878Z" fill="#0090C1"/>
<path d="M150.881 234.351H84.0786V236.207H150.881V234.351Z" fill="#38AECC"/>
<path d="M150.881 249.39H84.0786V251.246H150.881V249.39Z" fill="#38AECC"/>
<path d="M150.881 264.452H84.0786V266.308H150.881V264.452Z" fill="#38AECC"/>
<path d="M150.881 279.514H84.0786V281.37H150.881V279.514Z" fill="#38AECC"/>
<path d="M126.299 243.893H84.0786V249.366H126.299V243.893Z" fill="#0090C1"/>
<path d="M126.299 258.908H84.0786V264.381H126.299V258.908Z" fill="#0090C1"/>
<path d="M126.299 273.922H84.0786V279.395H126.299V273.922Z" fill="#0090C1"/>
<path d="M156.982 284.729H199.942V222.576H156.982V284.729Z" fill="#AFDFEB"/>
<path d="M156.967 217.504H88.0882L84.0786 222.549H156.967V217.504Z" fill="#C3E7F0"/>
<path d="M156.967 217.504H195.918L199.927 222.549H156.967V217.504Z" fill="#88CEE0"/>
<path d="M174.973 284.73H216.883L216.883 121.235H174.973L174.973 284.73Z" fill="white"/>
<path d="M179.951 115.662H214.438V121.206H179.951V115.662Z" fill="url(#paint17_linear_496_219)"/>
<path d="M229.785 115.662H214.438V121.23H229.785V115.662Z" fill="url(#paint18_linear_496_219)"/>
<path d="M177.684 118.255H230.787L233.508 121.205H174.963L177.684 118.255Z" fill="#B2DEEC"/>
<path d="M177.684 118.255L174.963 121.205H216.944L214.224 118.255H177.684Z" fill="white"/>
<path d="M182.743 112.687H227.159L229.88 115.661H180.023L182.743 112.687Z" fill="#CCE9F3"/>
<path d="M182.743 112.687L180.023 115.661H214.796L212.076 112.687H182.743Z" fill="white"/>
<path d="M233.508 121.206H216.873V284.701H233.508V121.206Z" fill="#99D3E6"/>
<path d="M184.724 125.513H177.994V132.223H184.724V125.513Z" fill="#0090C1"/>
<path d="M194.438 125.513H187.708V132.223H194.438V125.513Z" fill="#0090C1"/>
<path d="M204.176 125.513H197.445V132.223H204.176V125.513Z" fill="#0090C1"/>
<path d="M213.889 125.513H207.159V132.223H213.889V125.513Z" fill="#0090C1"/>
<path d="M184.7 134.84H177.97V141.551H184.7V134.84Z" fill="#0090C1"/>
<path d="M194.438 134.84H187.708V141.551H194.438V134.84Z" fill="#0090C1"/>
<path d="M204.152 134.84H197.421V141.551H204.152V134.84Z" fill="#0090C1"/>
<path d="M213.866 134.84H207.135V141.551H213.866V134.84Z" fill="#0090C1"/>
<path d="M184.677 144.192H177.946V150.902H184.677V144.192Z" fill="#0090C1"/>
<path d="M194.414 144.192H187.684V150.902H194.414V144.192Z" fill="#0090C1"/>
<path d="M204.128 144.192H197.398V150.902H204.128V144.192Z" fill="#0090C1"/>
<path d="M213.842 144.192H207.111V150.902H213.842V144.192Z" fill="#0090C1"/>
<path d="M184.653 153.52H177.922V160.23H184.653V153.52Z" fill="#0090C1"/>
<path d="M194.39 153.52H187.66V160.23H194.39V153.52Z" fill="#0090C1"/>
<path d="M204.104 153.52H197.374V160.23H204.104V153.52Z" fill="#0090C1"/>
<path d="M213.818 153.52H207.087V160.23H213.818V153.52Z" fill="#0090C1"/>
<path d="M184.629 162.871H177.898V169.581H184.629V162.871Z" fill="#0090C1"/>
<path d="M194.366 162.871H187.636V169.581H194.366V162.871Z" fill="#0090C1"/>
<path d="M204.08 162.871H197.35V169.581H204.08V162.871Z" fill="#0090C1"/>
<path d="M213.794 162.871H207.064V169.581H213.794V162.871Z" fill="#0090C1"/>
<path d="M184.605 172.222H177.875V178.932H184.605V172.222Z" fill="#0090C1"/>
<path d="M194.343 172.222H187.612V178.932H194.343V172.222Z" fill="#0090C1"/>
<path d="M204.056 172.222H197.326V178.932H204.056V172.222Z" fill="#0090C1"/>
<path d="M213.77 172.222H207.04V178.932H213.77V172.222Z" fill="#0090C1"/>
<path d="M184.581 181.55H177.851V188.26H184.581V181.55Z" fill="#0090C1"/>
<path d="M194.319 181.55H187.588V188.26H194.319V181.55Z" fill="#0090C1"/>
<path d="M204.032 181.55H197.302V188.26H204.032V181.55Z" fill="#0090C1"/>
<path d="M213.746 181.55H207.016V188.26H213.746V181.55Z" fill="#0090C1"/>
<path d="M184.557 190.901H177.827V197.612H184.557V190.901Z" fill="#0090C1"/>
<path d="M194.295 190.901H187.564V197.612H194.295V190.901Z" fill="#0090C1"/>
<path d="M204.009 190.901H197.278V197.612H204.009V190.901Z" fill="#0090C1"/>
<path d="M213.722 190.901H206.992V197.612H213.722V190.901Z" fill="#0090C1"/>
<path d="M184.533 200.253H177.803V206.963H184.533V200.253Z" fill="#0090C1"/>
<path d="M194.271 200.253H187.541V206.963H194.271V200.253Z" fill="#0090C1"/>
<path d="M203.985 200.253H197.254V206.963H203.985V200.253Z" fill="#0090C1"/>
<path d="M213.698 200.253H206.968V206.963H213.698V200.253Z" fill="#0090C1"/>
<path d="M184.51 209.581H177.779V216.291H184.51V209.581Z" fill="#0090C1"/>
<path d="M194.247 209.581H187.517V216.291H194.247V209.581Z" fill="#0090C1"/>
<path d="M203.961 209.581H197.23V216.291H203.961V209.581Z" fill="#0090C1"/>
<path d="M213.698 209.581H206.968V216.291H213.698V209.581Z" fill="#0090C1"/>
<path d="M184.486 218.932H177.755V225.642H184.486V218.932Z" fill="#0090C1"/>
<path d="M194.223 218.932H187.493V225.642H194.223V218.932Z" fill="#0090C1"/>
<path d="M203.937 218.932H197.207V225.642H203.937V218.932Z" fill="#0090C1"/>
<path d="M213.675 218.932H206.944V225.642H213.675V218.932Z" fill="#0090C1"/>
<path d="M184.462 228.283H177.731V234.993H184.462V228.283Z" fill="#0090C1"/>
<path d="M194.199 228.283H187.469V234.993H194.199V228.283Z" fill="#0090C1"/>
<path d="M203.913 228.283H197.183V234.993H203.913V228.283Z" fill="#0090C1"/>
<path d="M213.651 228.283H206.92V234.993H213.651V228.283Z" fill="#0090C1"/>
<path d="M184.438 237.611H177.708V244.321H184.438V237.611Z" fill="#0090C1"/>
<path d="M194.176 237.611H187.445V244.321H194.176V237.611Z" fill="#0090C1"/>
<path d="M203.889 237.611H197.159V244.321H203.889V237.611Z" fill="#0090C1"/>
<path d="M213.627 237.611H206.896V244.321H213.627V237.611Z" fill="#0090C1"/>
<path d="M184.438 246.962H177.708V253.673H184.438V246.962Z" fill="#0090C1"/>
<path d="M194.152 246.962H187.421V253.673H194.152V246.962Z" fill="#0090C1"/>
<path d="M203.865 246.962H197.135V253.673H203.865V246.962Z" fill="#0090C1"/>
<path d="M213.603 246.962H206.873V253.673H213.603V246.962Z" fill="#0090C1"/>
<path d="M184.414 256.314H177.684V263.024H184.414V256.314Z" fill="#0090C1"/>
<path d="M194.128 256.314H187.397V263.024H194.128V256.314Z" fill="#0090C1"/>
<path d="M203.842 256.314H197.111V263.024H203.842V256.314Z" fill="#0090C1"/>
<path d="M213.579 256.314H206.849V263.024H213.579V256.314Z" fill="#0090C1"/>
<path d="M184.39 265.642H177.66V272.352H184.39V265.642Z" fill="#0090C1"/>
<path d="M194.104 265.642H187.374V272.352H194.104V265.642Z" fill="#0090C1"/>
<path d="M203.818 265.642H197.087V272.352H203.818V265.642Z" fill="#0090C1"/>
<path d="M213.555 265.642H206.825V272.352H213.555V265.642Z" fill="#0090C1"/>
<path d="M184.366 274.993H177.636V281.703H184.366V274.993Z" fill="#0090C1"/>
<path d="M194.08 274.993H187.35V281.703H194.08V274.993Z" fill="#0090C1"/>
<path d="M203.794 274.993H197.063V281.703H203.794V274.993Z" fill="#0090C1"/>
<path d="M213.531 274.993H206.801V281.703H213.531V274.993Z" fill="#0090C1"/>
<path d="M413.971 284.71H462.086V192.409H413.971V284.71Z" fill="white"/>
<path d="M419.692 186.024H459.286V192.425H419.692V186.024Z" fill="url(#paint19_linear_496_219)"/>
<path d="M476.9 186.024H459.286V192.401H476.9V186.024Z" fill="url(#paint20_linear_496_219)"/>
<path d="M417.09 189.022H478.069L481.172 192.425H413.987L417.09 189.022Z" fill="#B2DEEC"/>
<path d="M417.09 189.022L413.987 192.425H462.15L459.048 189.022H417.09Z" fill="#E8F5F9"/>
<path d="M422.914 182.621H473.893L476.995 186.024H419.787L422.914 182.621Z" fill="#CCE9F3"/>
<path d="M422.914 182.621L419.787 186.024H459.692L456.589 182.621H422.914Z" fill="white"/>
<path d="M481.196 192.425H462.103V284.726H481.196V192.425Z" fill="#99D3E6"/>
<path d="M458.475 199.944H417.615V210.437H458.475V199.944Z" fill="#0090C1"/>
<path d="M458.475 217.838H417.615V228.332H458.475V217.838Z" fill="#0090C1"/>
<path d="M458.475 235.731H417.615V246.225H458.475V235.731Z" fill="#0090C1"/>
<path d="M458.475 253.625H417.615V264.119H458.475V253.625Z" fill="#0090C1"/>
<path d="M458.475 271.52H417.615V282.013H458.475V271.52Z" fill="#0090C1"/>
<path d="M282.697 164.346C276.062 164.346 269.451 175.601 262.816 175.601V284.725H281.575H302.387H328.497L328.592 164.346H282.697Z" fill="white"/>
<path d="M269.045 172.96H326.898V167.368H275.919C273.628 169.105 271.336 171.294 269.045 172.96Z" fill="#D9F0F5"/>
<path d="M340.359 284.725H315.895V175.577C320 175.577 324.082 164.322 328.187 164.322C332.244 164.322 336.301 175.577 340.359 175.577C340.359 211.96 340.359 248.343 340.359 284.725Z" fill="#AFDFEB"/>
<path d="M275.346 181.931H268.639V198.944H275.346V181.931Z" fill="#0090C1"/>
<path d="M286.587 181.931H279.881V198.944H286.587V181.931Z" fill="#0090C1"/>
<path d="M297.804 181.931H291.098V198.944H297.804V181.931Z" fill="#0090C1"/>
<path d="M309.046 181.931H302.339V198.944H309.046V181.931Z" fill="#0090C1"/>
<path d="M309.046 266.593H302.339V283.607H309.046V266.593Z" fill="#0090C1"/>
<path d="M309.046 245.416H302.339V262.429H309.046V245.416Z" fill="#0090C1"/>
<path d="M309.046 224.262H302.339V241.276H309.046V224.262Z" fill="#0090C1"/>
<path d="M309.046 203.108H302.339V220.122H309.046V203.108Z" fill="#0090C1"/>
<path d="M275.346 203.108H268.639V220.122H275.346V203.108Z" fill="#0090C1"/>
<path d="M286.587 203.108H279.881V220.122H286.587V203.108Z" fill="#0090C1"/>
<path d="M297.804 203.108H291.098V220.122H297.804V203.108Z" fill="#0090C1"/>
<path d="M275.346 224.262H268.639V241.276H275.346V224.262Z" fill="#0090C1"/>
<path d="M286.587 224.262H279.881V241.276H286.587V224.262Z" fill="#0090C1"/>
<path d="M297.804 224.262H291.098V241.276H297.804V224.262Z" fill="#0090C1"/>
<path d="M275.346 245.416H268.639V262.429H275.346V245.416Z" fill="#0090C1"/>
<path d="M286.587 245.416H279.881V262.429H286.587V245.416Z" fill="#0090C1"/>
<path d="M297.804 245.416H291.098V262.429H297.804V245.416Z" fill="#0090C1"/>
<path d="M275.346 266.593H268.639V283.607H275.346V266.593Z" fill="#0090C1"/>
<path d="M286.587 266.593H279.881V283.607H286.587V266.593Z" fill="#0090C1"/>
<path d="M297.804 266.593H291.098V283.607H297.804V266.593Z" fill="#0090C1"/>
<path d="M11.9367 295.893H12.7959L12.7959 266.553H11.9367L11.9367 295.893Z" fill="#022F40"/>
<path d="M12.0171 280.987L12.6246 281.593L18.565 275.67L17.9575 275.064L12.0171 280.987Z" fill="#022F40"/>
<path d="M7.50024 271.603L6.8927 272.209L11.9049 277.206L12.5124 276.6L7.50024 271.603Z" fill="#022F40"/>
<path d="M12.3591 284.607C19.5429 284.607 25.3665 278.8 25.3665 271.638C25.3665 264.476 19.5429 258.67 12.3591 258.67C5.17539 258.67 -0.648193 264.476 -0.648193 271.638C-0.648193 278.8 5.17539 284.607 12.3591 284.607Z" fill="#046E8F"/>
<path d="M379.715 134.079H332.65V284.726H379.715V134.079Z" fill="white"/>
<path d="M379.715 134.079H332.65V137.886H379.715V134.079Z" fill="#EBF7FA"/>
<path d="M400.24 284.725H379.715V134.079L400.24 113.092V284.725Z" fill="#AFDFEB"/>
<path d="M332.65 134.079H379.715L400.24 113.092L332.65 134.079Z" fill="#D9F0F5"/>
<path d="M379.715 145.548H332.65V149.189H379.715V145.548Z" fill="#0090C1"/>
<path d="M379.715 157.208H332.65V160.849H379.715V157.208Z" fill="#0090C1"/>
<path d="M379.715 168.867H332.65V172.508H379.715V168.867Z" fill="#0090C1"/>
<path d="M379.715 180.551H332.65V184.191H379.715V180.551Z" fill="#0090C1"/>
<path d="M379.715 192.21H332.65V195.851H379.715V192.21Z" fill="#0090C1"/>
<path d="M379.715 203.87H332.65V207.511H379.715V203.87Z" fill="#0090C1"/>
<path d="M379.715 215.529H332.65V219.17H379.715V215.529Z" fill="#0090C1"/>
<path d="M379.715 227.189H332.65V230.83H379.715V227.189Z" fill="#0090C1"/>
<path d="M379.715 238.873H332.65V242.513H379.715V238.873Z" fill="#0090C1"/>
<path d="M379.715 250.532H332.65V254.173H379.715V250.532Z" fill="#0090C1"/>
<path d="M379.715 262.191H332.65V265.832H379.715V262.191Z" fill="#0090C1"/>
<path d="M379.715 273.851H332.65V277.492H379.715V273.851Z" fill="#0090C1"/>
<path d="M513.75 284.725H496.184V244.345L502.366 236.874L513.75 244.345V284.725Z" fill="#AFDFEB"/>
<path d="M498.165 284.725H475.396V244.345L486.781 236.874L498.165 244.345V284.725Z" fill="white"/>
<path d="M498.165 244.345H513.75L502.366 236.874H486.781L498.165 244.345Z" fill="#D9F0F5"/>
<path d="M481.53 248.128H476.876V257.052H481.53V248.128Z" fill="#0090C1"/>
<path d="M489.168 248.128H484.514V257.052H489.168V248.128Z" fill="#0090C1"/>
<path d="M496.781 248.128H492.127V257.052H496.781V248.128Z" fill="#0090C1"/>
<path d="M481.53 259.764H476.876V268.687H481.53V259.764Z" fill="#0090C1"/>
<path d="M489.168 259.764H484.514V268.687H489.168V259.764Z" fill="#0090C1"/>
<path d="M496.781 259.764H492.127V268.687H496.781V259.764Z" fill="#0090C1"/>
<path d="M481.53 271.376H476.876V280.3H481.53V271.376Z" fill="#0090C1"/>
<path d="M489.168 271.376H484.514V280.3H489.168V271.376Z" fill="#0090C1"/>
<path d="M496.781 271.376H492.127V280.3H496.781V271.376Z" fill="#0090C1"/>
<path d="M107.515 296.052C106.346 296.052 105.272 295.766 104.317 295.243C101.787 293.863 100.499 290.936 101.024 288.104L104.103 271.9C104.413 270.258 105.845 269.068 107.515 269.068C109.186 269.068 110.618 270.258 110.928 271.9L114.007 288.104C114.556 290.936 113.267 293.863 110.714 295.243C109.759 295.743 108.685 296.052 107.515 296.052Z" fill="#046E8F"/>
<path d="M107.13 303H107.87V278.11H107.13V303Z" fill="#022F40"/>
<path d="M107.217 290.341L107.741 290.862L112.787 285.831L112.263 285.31L107.217 290.341Z" fill="#022F40"/>
<path d="M103.394 282.393L102.87 282.915L107.123 287.155L107.646 286.633L103.394 282.393Z" fill="#022F40"/>
<path d="M348.927 277.492C348.927 282.394 343.485 286.367 343.485 286.367C343.485 286.367 338.044 282.394 338.044 277.492C338.044 272.59 343.485 268.616 343.485 268.616C343.485 268.616 348.927 272.614 348.927 277.492Z" fill="#046E8F"/>
<path d="M343.179 293.48H343.776V273.421H343.179V293.48Z" fill="#022F40"/>
<path d="M343.22 283.271L343.642 283.692L347.709 279.637L347.287 279.216L343.22 283.271Z" fill="#022F40"/>
<path d="M340.15 276.87L339.729 277.291L343.154 280.707L343.576 280.286L340.15 276.87Z" fill="#022F40"/>
<g filter="url(#filter0_dd_496_219)">
<path d="M207.543 269.647C210.883 248.824 224.242 217.926 222.906 205.835C221.57 193.744 212.887 195.088 208.879 199.118C204.871 203.148 197.523 243.45 200.195 264.273C202.867 284.424 207.543 269.647 207.543 269.647Z" fill="#F5AB7D"/>
<path d="M217.563 215.239C224.91 212.552 224.242 202.477 218.899 187.028C213.555 171.578 218.231 153.442 208.211 140.008C198.191 125.903 176.147 131.948 180.823 150.084C185.499 168.22 200.195 201.805 207.543 210.537C214.223 219.269 217.563 215.239 217.563 215.239Z" fill="#F5AB7D"/>
<path d="M208.211 136.65C212.219 142.695 222.238 182.997 222.906 189.714L188.171 197.775C185.499 189.042 177.483 158.144 176.147 151.427C173.475 127.246 198.859 121.872 208.211 136.65Z" fill="#4F779B"/>
<path d="M169.467 246.137C176.815 224.643 200.862 240.764 204.202 253.526C212.886 288.454 198.858 348.908 198.19 362.342C196.854 380.478 168.799 396.599 168.131 358.983C167.463 305.247 160.783 270.99 169.467 246.137Z" fill="#2E2F4D"/>
<path d="M142.079 244.794C150.763 223.971 173.475 241.435 175.479 254.869C181.491 290.47 162.787 349.579 160.783 362.342C158.111 380.478 129.388 389.21 132.06 350.923C136.068 298.53 131.392 268.975 142.079 244.794Z" fill="#2E2F4D"/>
<path d="M129.388 131.276C136.068 126.574 148.091 124.559 158.111 123.888C160.115 123.888 162.787 123.216 164.791 123.216C172.807 123.216 190.175 124.559 196.855 127.918C208.879 133.963 204.203 168.22 203.535 176.952C202.867 185.684 209.547 277.707 209.547 277.707C209.547 277.707 204.203 292.485 159.447 284.424C150.763 283.081 146.755 270.99 145.419 266.96C142.08 260.243 135.4 263.602 135.4 263.602L128.052 148.741C127.384 141.352 123.376 135.978 129.388 131.276Z" fill="#4F779B"/>
<path d="M110.016 210.537C117.364 213.896 123.376 205.835 130.056 191.058C137.404 176.28 152.767 166.876 154.771 149.412C156.775 131.948 136.736 121.201 128.052 137.321C119.368 153.442 106.676 188.371 106.008 199.79C105.34 210.537 110.016 210.537 110.016 210.537Z" fill="#F5AB7D"/>
<path d="M141.412 264.273C134.064 244.794 129.388 211.209 122.04 201.805C114.692 192.401 108.012 197.775 106.676 203.148C105.34 209.194 120.036 246.809 132.728 263.602C145.419 279.051 141.412 264.273 141.412 264.273Z" fill="#F5AB7D"/>
<path d="M156.107 148.74C155.439 156.129 137.404 193.073 133.396 199.118L102 182.325C105.34 173.593 118.7 144.71 122.708 139.336C135.4 118.514 158.779 131.276 156.107 148.74Z" fill="#4F779B"/>
<path d="M175.479 74.853L154.771 78.8832V129.933H175.479V74.853Z" fill="#F5AB7D"/>
<path d="M160.115 58.7322C175.479 50.6718 182.827 57.3888 185.499 70.1511C188.839 82.9135 191.511 105.751 183.495 108.438C175.479 111.125 158.779 106.423 156.107 93.6607C152.767 80.2267 151.431 62.7624 160.115 58.7322Z" fill="#F5AB7D"/>
<path d="M187.503 50C195.519 58.7321 193.515 64.7775 185.499 65.4492C177.483 66.1209 168.131 65.4492 168.131 65.4492C168.131 65.4492 162.119 90.9739 168.131 93.6607C174.143 96.3475 174.811 88.9587 186.167 90.9738C192.847 92.3173 190.843 113.812 183.495 114.483C175.479 115.827 162.787 109.782 161.451 103.064C160.115 96.3475 164.791 80.2266 161.451 75.5247C158.111 70.8228 154.771 74.1813 154.771 77.5398C154.771 80.8983 154.771 97.0192 154.771 97.0192C154.771 97.0192 148.759 80.2266 149.427 69.4794C150.095 58.7321 154.103 50 164.123 51.3434C174.811 53.3585 176.147 56.717 182.159 54.7019C188.171 53.3585 187.503 50 187.503 50Z" fill="#69615B"/>
<path d="M145.419 125.902C152.099 124.559 160.115 121.872 166.127 121.872C171.471 121.872 180.823 123.887 188.839 125.902C187.503 134.634 178.819 142.023 167.463 142.023C156.107 142.023 146.087 135.306 145.419 125.902Z" fill="#F5AB7D"/>
<path d="M136.735 278.379C134.731 277.036 135.399 270.99 134.731 265.617C136.067 260.243 139.407 262.258 141.411 262.93C142.079 262.93 143.415 263.602 144.083 264.273C144.083 264.273 145.419 265.617 146.755 266.96C146.755 266.96 139.407 279.722 136.735 278.379Z" fill="#F5AB7D"/>
<path d="M140.076 262.93C138.072 263.601 137.404 266.288 138.072 268.303V268.975C138.74 270.318 140.076 270.99 141.411 270.99H145.419C146.755 270.99 148.091 271.662 148.759 273.005L150.095 274.349C151.431 275.692 154.103 275.692 154.771 275.02C155.439 274.349 154.771 273.677 154.771 273.677L143.415 264.945C142.747 262.93 141.411 262.258 140.076 262.93Z" fill="#F5AB7D"/>
</g>
<path d="M229.5 59L231.526 66.664L237 69.5L231.526 72.336L229.5 80L227.474 72.336L222 69.5L227.474 66.664L229.5 59Z" fill="#F2C94C"/>
<path d="M246 68L249.241 80.0435L258 84.5L249.241 88.9565L246 101L242.759 88.9565L234 84.5L242.759 80.0435L246 68Z" fill="#FFE44A"/>
<path d="M84 158L87.2411 170.044L96 174.5L87.2411 178.956L84 191L80.7589 178.956L72 174.5L80.7589 170.044L84 158Z" fill="#FFE44A"/>
<path d="M237 247L240.241 259.044L249 263.5L240.241 267.956L237 280L233.759 267.956L225 263.5L233.759 259.044L237 247Z" fill="#FFE44A"/>
<path d="M235.5 225L237.526 232.664L243 235.5L237.526 238.336L235.5 246L233.474 238.336L228 235.5L233.474 232.664L235.5 225Z" fill="#F2C94C"/>
<path d="M99.5 239L101.526 246.664L107 249.5L101.526 252.336L99.5 260L97.4743 252.336L92 249.5L97.4743 246.664L99.5 239Z" fill="#F2C94C"/>
<path d="M94 144L95.8906 150.934L101 153.5L95.8906 156.066L94 163L92.1094 156.066L87 153.5L92.1094 150.934L94 144Z" fill="#F2C94C"/>
</g>
<path d="M520 280.5C520 282.905 517.845 285 515 285C512.155 285 510 282.905 510 280.5C510 278.095 512.155 276 515 276C517.845 276 520 278.095 520 280.5Z" fill="white" stroke="#90DDDD" stroke-width="2"/>
<path d="M536 260.185C536 262.056 534.983 263.83 533.181 265.17C531.38 266.511 528.844 267.37 526 267.37C523.156 267.37 520.62 266.511 518.819 265.17C517.017 263.83 516 262.056 516 260.185C516 258.313 517.017 256.54 518.819 255.2C520.62 253.859 523.156 253 526 253C528.844 253 531.38 253.859 533.181 255.2C534.983 256.54 536 258.313 536 260.185Z" fill="white" stroke="#90DDDD" stroke-width="2"/>
<path d="M534 234C534 240.47 527.68 246 519.5 246C511.32 246 505 240.47 505 234C505 227.53 511.32 222 519.5 222C527.68 222 534 227.53 534 234Z" fill="white" stroke="#90DDDD" stroke-width="2"/>
<g clip-path="url(#clip0_496_219)">
<path d="M429.658 343.176C424.091 341.78 424.091 335.1 426.403 323.834C428.714 312.568 423.911 300.803 429.859 290.355C435.808 279.926 451.724 281.98 449.875 294.841C448.027 307.703 440.551 332.189 436.391 338.769C432.231 345.349 429.658 343.176 429.658 343.176Z" fill="#F9B689"/>
<path d="M429.859 290.355C427.327 294.802 426.744 299.488 426.744 304.273L446.258 311.312C447.906 305.23 449.232 299.308 449.875 294.822C451.724 281.98 435.808 279.926 429.859 290.355Z" fill="#02888B"/>
<path d="M490.772 286.487C485.668 282.818 475.66 281.083 467.641 280.405C465.732 280.246 463.923 280.146 462.335 280.106C455.643 279.907 444.409 280.704 438.842 283.476C433.155 286.288 433.517 291.253 433.557 310.554C433.597 329.577 443.002 337.832 441.797 362.438C455.081 368.66 449.474 368.061 462.436 368.44C463.943 368.48 465.37 368.46 466.817 368.44C477.689 368.301 482.211 363.375 482.211 363.375L491.235 300.126C491.837 294.204 495.575 289.937 490.772 286.487Z" fill="#66BFC3"/>
<path d="M490.772 286.487C487.356 284.034 481.709 282.439 475.941 281.462C467.018 294.562 463.24 311.691 464.265 326.028C465.149 340.365 464.466 354.562 462.255 368.46C462.315 368.46 462.376 368.46 462.436 368.46C463.943 368.5 465.37 368.48 466.817 368.46C477.689 368.32 482.211 363.395 482.211 363.395L491.235 300.146C491.837 294.204 495.575 289.936 490.772 286.487Z" fill="#02888B"/>
<path d="M441.797 355C441.797 355 455.02 357.114 463.541 356.895C472.082 356.675 483.256 355.958 483.256 355.958C483.256 355.958 495.957 378.49 491.837 385.19C487.718 391.889 482.714 389.018 437.215 389.517C412.877 389.776 407.934 377.493 407.23 374.243C403.814 358.45 429.638 363.156 434.582 362.498C439.606 356.755 441.797 355 441.797 355Z" fill="#222B54"/>
<path d="M505.845 342.777C500.459 344.652 496.761 339.128 492.42 328.54C488.079 317.932 478.574 311.172 477.709 299.268C476.845 287.384 490.189 280.046 495.776 291.691C501.363 303.356 508.779 327.723 508.98 335.439C509.201 343.156 505.845 342.777 505.845 342.777Z" fill="#F9B689"/>
<path d="M495.736 291.392C490.109 279.667 475.7 286.686 476.564 298.65C477.127 306.247 481.568 311.91 485.869 317.753L501.866 306.985C499.856 301.083 497.686 295.46 495.736 291.392Z" fill="#02888B"/>
<path d="M474.574 280.984C469.751 280.186 464.647 278.83 460.929 278.83C457.351 278.83 450.78 280.804 445.193 282.08C446.077 288.062 452.287 292.708 459.843 292.708C467.842 292.708 474.333 287.484 474.574 280.984Z" fill="#F9B689"/>
<path d="M485.688 469.077C481.327 468.32 480.242 473.664 480.242 473.664L473.549 498.17C473.549 498.17 471.017 506.565 478.312 507.841C485.607 509.097 488.883 502.138 489.788 496.914C490.712 491.689 490.21 474.023 490.21 474.023C490.21 474.023 490.069 469.835 485.688 469.077Z" fill="#66BFC3"/>
<path d="M485.768 469.376C481.689 468.678 480.684 473.643 480.684 473.643L474.213 497.492C474.213 497.492 471.861 505.328 478.654 506.505C485.447 507.681 488.501 501.201 489.366 496.315C490.23 491.45 489.989 473.982 489.989 473.982C489.989 473.982 489.848 470.074 485.768 469.376Z" fill="#02888B"/>
<path d="M473.65 498.229C473.248 500.363 472.786 505.886 478.533 506.883C483.638 507.761 486.733 504.57 488.421 500.782L473.65 498.229Z" fill="#66BFC3"/>
<path d="M481.387 465.209L481.226 472.906C481.226 472.906 480.302 478.828 484.783 479.027C489.285 479.227 489.386 473.305 489.386 473.305V464.87L481.387 465.209Z" fill="#F9B689"/>
<path d="M480.925 481.939C482.312 482.178 486.733 482.956 486.733 482.956L486.914 481.939C486.914 481.939 482.492 481.161 481.106 480.922L480.925 481.939Z" fill="#66BFC3"/>
<path d="M480.483 484.511C482.653 484.89 486.291 485.528 486.291 485.528L486.472 484.511C486.472 484.511 482.834 483.873 480.664 483.494L480.483 484.511Z" fill="#66BFC3"/>
<path d="M480.021 487.083C482.533 487.522 485.828 488.1 485.828 488.1L486.009 487.083C486.009 487.083 482.714 486.505 480.201 486.066L480.021 487.083Z" fill="#66BFC3"/>
<path d="M479.578 489.755C482.091 490.194 485.386 490.772 485.386 490.772L485.567 489.755C485.567 489.755 482.271 489.177 479.759 488.738L479.578 489.755Z" fill="#66BFC3"/>
<path d="M479.257 368.002C494.912 365.569 497.103 405.19 496.741 422.218C496.359 439.247 492.159 470.074 492.159 470.074L478.855 470.094C478.855 470.094 475.76 437.712 472.384 415.439C469.048 393.405 464.084 370.375 479.257 368.002Z" fill="#121F54"/>
<path d="M447.846 249.698L462.195 249.797L468.847 283.915L451.544 286.567L447.846 249.698Z" fill="#F9B689"/>
<path d="M450.197 458.329C453.835 455.797 457.09 460.184 457.09 460.184L473.67 479.525C473.67 479.525 479.558 486.066 473.509 490.293C467.46 494.52 461.512 489.595 458.437 485.268C455.362 480.921 448.228 464.73 448.228 464.73C448.228 464.73 446.58 460.862 450.197 458.329Z" fill="#66BFC3"/>
<path d="M450.257 458.629C453.634 456.276 456.688 460.343 456.688 460.343L472.786 479.187C472.786 479.187 478.272 485.268 472.625 489.216C466.978 493.165 461.431 488.578 458.577 484.531C455.704 480.483 448.408 464.591 448.408 464.591C448.408 464.591 446.881 461.001 450.257 458.629Z" fill="#02888B"/>
<path d="M473.61 479.625C474.896 481.38 477.689 486.186 472.906 489.516C468.666 492.467 464.486 490.872 461.351 488.18L473.61 479.625Z" fill="#66BFC3"/>
<path d="M452.428 453.025L455.884 459.925C455.884 459.925 459.261 464.89 455.302 466.983C451.322 469.077 448.69 463.753 448.69 463.753L445.072 456.136L452.428 453.025Z" fill="#F9B689"/>
<path d="M460.024 467.961C458.879 468.758 455.201 471.33 455.201 471.33L454.598 470.493C454.598 470.493 458.276 467.921 459.421 467.123L460.024 467.961Z" fill="#66BFC3"/>
<path d="M461.532 470.094C459.723 471.351 456.708 473.464 456.708 473.464L456.105 472.627C456.105 472.627 459.12 470.513 460.929 469.257L461.532 470.094Z" fill="#66BFC3"/>
<path d="M463.059 472.228C460.969 473.683 458.236 475.597 458.236 475.597L457.633 474.76C457.633 474.76 460.386 472.846 462.456 471.39L463.059 472.228Z" fill="#66BFC3"/>
<path d="M464.606 474.461C462.516 475.917 459.783 477.831 459.783 477.831L459.18 476.993C459.18 476.993 461.934 475.079 464.004 473.624L464.606 474.461Z" fill="#66BFC3"/>
<path d="M412.616 364.173C397.403 368.58 412.435 405.349 420.072 420.603C427.729 435.857 444.771 461.978 444.771 461.978L456.809 456.375C456.809 456.375 445.715 425.767 439.184 404.192C432.753 382.837 427.367 359.886 412.616 364.173Z" fill="#222B54"/>
<path d="M440.49 365.21H390.63L376 321.9L376.945 321.023H425.558L440.49 365.21Z" fill="#CFCFCF"/>
<path d="M439.325 365.21H390.63L376.02 321.96H424.714L439.325 365.21Z" fill="white"/>
<path d="M482.593 365.19H394.569V367.682H482.593V365.19Z" fill="white"/>
<path d="M463.28 353.864C475.639 347.922 493.124 333.785 500.881 332.309C508.618 330.834 509.683 336.616 507.774 339.966C505.885 343.316 481.648 355.16 468.164 357.294C454.699 359.447 463.28 353.864 463.28 353.864Z" fill="#F9B689"/>
<path d="M450.84 355.719C451.483 356.018 451.765 356.776 451.483 357.414L448.228 364.413C447.926 365.051 447.162 365.33 446.519 365.031C445.876 364.732 445.595 363.974 445.876 363.336L449.132 356.337C449.413 355.699 450.197 355.42 450.84 355.719Z" fill="#F9B689"/>
<path d="M449.976 356.796C450.438 357.334 450.378 358.132 449.835 358.59L443.947 363.635C443.404 364.094 442.58 364.034 442.118 363.495C441.656 362.957 441.716 362.159 442.239 361.701L448.127 356.656C448.69 356.197 449.514 356.257 449.976 356.796Z" fill="#F9B689"/>
<path d="M464.626 356.457C466.214 357.414 466.536 359.587 465.29 360.963L465.069 361.203C464.325 362.02 463.18 362.359 462.114 362.08L458.899 361.681C457.773 361.542 456.708 361.92 455.744 362.519L454.458 363.316C453.131 364.154 450.86 363.974 450.398 362.917C450.177 362.439 450.398 361.861 450.9 361.641L461.773 356.317C462.677 355.879 463.762 355.918 464.626 356.457Z" fill="#D69E7D"/>
<path d="M464.807 353.785H454.216C453.835 353.785 453.473 353.844 453.111 353.964L439.988 358.51C439.666 358.63 439.506 358.989 439.666 359.308C440.149 360.265 441.214 360.764 442.279 360.544L451.142 358.57C452.247 358.331 453.413 358.391 454.478 358.77L458.537 360.185C458.537 360.185 463.501 364.433 466.978 359.906C469.168 357.075 467.741 355.26 466.616 354.403C466.094 353.984 465.45 353.785 464.807 353.785Z" fill="#F9B689"/>
<path d="M455.844 233.965C440.611 226.886 430.924 244.294 432.713 254.045C434.502 263.775 441.656 280.046 448.228 279.328C454.799 278.63 463.039 270.894 461.029 261.063C459.019 251.253 467.922 239.588 455.844 233.965Z" fill="#F9B689"/>
<path d="M445.776 243.357C440.169 248.023 444.851 252.27 444.851 252.27C444.851 252.27 447.725 254.942 449.333 258.013C449.654 258.631 451.101 257.634 451.865 257.953C452.83 258.371 450.318 251.273 454.538 251.113C458.778 250.954 458.678 258.79 458.678 258.79C459.904 258.75 460.768 258.651 460.768 258.651C460.768 258.651 464.888 248.222 461.773 244.493C456.909 238.731 445.776 243.357 445.776 243.357Z" fill="#0A3B63"/>
<path d="M427.086 239.728C428.211 239.429 428.251 239.189 430.502 239.409C432.753 239.628 434.28 240.525 434.28 240.525C434.28 240.525 432.15 239.209 431.105 238.292C433.215 238.551 435.888 237.614 435.888 237.614C435.888 237.614 434.059 237.415 432.592 237.275C435.265 236.577 436.993 235.879 436.993 235.879C436.993 235.879 435.366 235.939 434.461 235.899C436.33 234.264 439.968 234.663 439.968 234.663C439.968 234.663 437.657 233.666 437.134 233.646C439.948 233.048 444.449 231.572 444.449 231.572C444.449 231.572 442.239 231.831 440.852 231.712C444.309 229.479 448.489 228.023 453.955 229.798C465.913 233.706 462.235 245.59 462.235 245.59C461.311 238.87 436.612 251.572 432.512 251.313C426.845 250.934 425.96 242.479 427.086 239.728Z" fill="#0A3B63"/>
</g>
<defs>
<filter id="filter0_dd_496_219" x="52" y="0" width="221" height="530.1" filterUnits="userSpaceOnUse" color-interpolation-filters="sRGB">
<feFlood flood-opacity="0" result="BackgroundImageFix"/>
<feColorMatrix in="SourceAlpha" type="matrix" values="0 0 0 0 0 0 0 0 0 0 0 0 0 0 0 0 0 0 127 0" result="hardAlpha"/>
<feOffset/>
<feGaussianBlur stdDeviation="15"/>
<feComposite in2="hardAlpha" operator="out"/>
<feColorMatrix type="matrix" values="0 0 0 0 1 0 0 0 0 1 0 0 0 0 1 0 0 0 1 0"/>
<feBlend mode="normal" in2="BackgroundImageFix" result="effect1_dropShadow_496_219"/>
<feColorMatrix in="SourceAlpha" type="matrix" values="0 0 0 0 0 0 0 0 0 0 0 0 0 0 0 0 0 0 127 0" result="hardAlpha"/>
<feOffset/>
<feGaussianBlur stdDeviation="25"/>
<feComposite in2="hardAlpha" operator="out"/>
<feColorMatrix type="matrix" values="0 0 0 0 1 0 0 0 0 1 0 0 0 0 1 0 0 0 1 0"/>
<feBlend mode="normal" in2="effect1_dropShadow_496_219" result="effect2_dropShadow_496_219"/>
<feBlend mode="normal" in="SourceGraphic" in2="effect2_dropShadow_496_219" result="shape"/>
</filter>
<linearGradient id="paint0_linear_496_219" x1="152.731" y1="284.625" x2="152.731" y2="34.0037" gradientUnits="userSpaceOnUse">
<stop stop-color="#0090C1"/>
<stop offset="0.337" stop-color="#0391C2"/>
<stop offset="0.5689" stop-color="#0C96C3"/>
<stop offset="0.7693" stop-color="#1B9FC6"/>
<stop offset="0.9508" stop-color="#31AACB"/>
<stop offset="1" stop-color="#38AECC"/>
</linearGradient>
<linearGradient id="paint1_linear_496_219" x1="189.297" y1="284.625" x2="189.297" y2="76.8374" gradientUnits="userSpaceOnUse">
<stop stop-color="#046E8F"/>
<stop offset="0.2617" stop-color="#037295"/>
<stop offset="0.6226" stop-color="#027EA7"/>
<stop offset="1" stop-color="#0090C1"/>
</linearGradient>
<linearGradient id="paint2_linear_496_219" x1="225.995" y1="284.625" x2="225.995" y2="105.893" gradientUnits="userSpaceOnUse">
<stop stop-color="#0090C1"/>
<stop offset="0.337" stop-color="#0391C2"/>
<stop offset="0.5689" stop-color="#0C96C3"/>
<stop offset="0.7693" stop-color="#1B9FC6"/>
<stop offset="0.9508" stop-color="#31AACB"/>
<stop offset="1" stop-color="#38AECC"/>
</linearGradient>
<linearGradient id="paint3_linear_496_219" x1="259.201" y1="284.625" x2="259.201" y2="105.893" gradientUnits="userSpaceOnUse">
<stop stop-color="#046E8F"/>
<stop offset="0.2556" stop-color="#03799F"/>
<stop offset="0.7173" stop-color="#018AB8"/>
<stop offset="1" stop-color="#0090C1"/>
</linearGradient>
<linearGradient id="paint4_linear_496_219" x1="434.169" y1="284.625" x2="434.169" y2="63.378" gradientUnits="userSpaceOnUse">
<stop stop-color="#046E8F"/>
<stop offset="0.2954" stop-color="#047093"/>
<stop offset="0.5669" stop-color="#03789E"/>
<stop offset="0.8281" stop-color="#0185B0"/>
<stop offset="1" stop-color="#0090C1"/>
</linearGradient>
<linearGradient id="paint5_linear_496_219" x1="471.741" y1="284.625" x2="471.741" y2="124.346" gradientUnits="userSpaceOnUse">
<stop stop-color="#0090C1"/>
<stop offset="0.337" stop-color="#0391C2"/>
<stop offset="0.5689" stop-color="#0C96C3"/>
<stop offset="0.7693" stop-color="#1B9FC6"/>
<stop offset="0.9508" stop-color="#31AACB"/>
<stop offset="1" stop-color="#38AECC"/>
</linearGradient>
<linearGradient id="paint6_linear_496_219" x1="472.74" y1="119.963" x2="472.74" y2="124.346" gradientUnits="userSpaceOnUse">
<stop stop-color="#38AECC"/>
<stop offset="0.049214" stop-color="#31AACB"/>
<stop offset="0.2307" stop-color="#1B9FC6"/>
<stop offset="0.4311" stop-color="#0C96C3"/>
<stop offset="0.663" stop-color="#0391C2"/>
<stop offset="1" stop-color="#0090C1"/>
</linearGradient>
<linearGradient id="paint7_linear_496_219" x1="492.373" y1="119.963" x2="492.373" y2="124.346" gradientUnits="userSpaceOnUse">
<stop stop-color="#0090C1"/>
<stop offset="0.2827" stop-color="#018AB8"/>
<stop offset="0.7444" stop-color="#03799F"/>
<stop offset="1" stop-color="#046E8F"/>
</linearGradient>
<linearGradient id="paint8_linear_496_219" x1="494.802" y1="284.625" x2="494.802" y2="124.346" gradientUnits="userSpaceOnUse">
<stop stop-color="#046E8F"/>
<stop offset="0.2556" stop-color="#03799F"/>
<stop offset="0.7173" stop-color="#018AB8"/>
<stop offset="1" stop-color="#0090C1"/>
</linearGradient>
<linearGradient id="paint9_linear_496_219" x1="41.1466" y1="284.625" x2="41.1466" y2="155.162" gradientUnits="userSpaceOnUse">
<stop stop-color="#0090C1"/>
<stop offset="0.337" stop-color="#0391C2"/>
<stop offset="0.5689" stop-color="#0C96C3"/>
<stop offset="0.7693" stop-color="#1B9FC6"/>
<stop offset="0.9508" stop-color="#31AACB"/>
<stop offset="1" stop-color="#38AECC"/>
</linearGradient>
<linearGradient id="paint10_linear_496_219" x1="41.9535" y1="151.622" x2="41.9535" y2="155.162" gradientUnits="userSpaceOnUse">
<stop stop-color="#38AECC"/>
<stop offset="0.049214" stop-color="#31AACB"/>
<stop offset="0.2307" stop-color="#1B9FC6"/>
<stop offset="0.4311" stop-color="#0C96C3"/>
<stop offset="0.663" stop-color="#0391C2"/>
<stop offset="1" stop-color="#0090C1"/>
</linearGradient>
<linearGradient id="paint11_linear_496_219" x1="57.812" y1="151.622" x2="57.812" y2="155.162" gradientUnits="userSpaceOnUse">
<stop stop-color="#0090C1"/>
<stop offset="0.2827" stop-color="#018AB8"/>
<stop offset="0.7444" stop-color="#03799F"/>
<stop offset="1" stop-color="#046E8F"/>
</linearGradient>
<linearGradient id="paint12_linear_496_219" x1="59.7736" y1="284.625" x2="59.7736" y2="155.162" gradientUnits="userSpaceOnUse">
<stop stop-color="#046F90"/>
<stop offset="0.2857" stop-color="#047294"/>
<stop offset="0.5718" stop-color="#037AA0"/>
<stop offset="0.8572" stop-color="#0187B4"/>
<stop offset="1" stop-color="#0090C1"/>
</linearGradient>
<linearGradient id="paint13_linear_496_219" x1="327.049" y1="284.625" x2="327.049" y2="37.5782" gradientUnits="userSpaceOnUse">
<stop stop-color="#0090C1"/>
<stop offset="0.337" stop-color="#0391C2"/>
<stop offset="0.5689" stop-color="#0C96C3"/>
<stop offset="0.7693" stop-color="#1B9FC6"/>
<stop offset="0.9508" stop-color="#31AACB"/>
<stop offset="1" stop-color="#38AECC"/>
</linearGradient>
<linearGradient id="paint14_linear_496_219" x1="362.594" y1="284.625" x2="362.594" y2="37.5782" gradientUnits="userSpaceOnUse">
<stop stop-color="#046E8F"/>
<stop offset="0.2829" stop-color="#047193"/>
<stop offset="0.566" stop-color="#03799F"/>
<stop offset="0.8486" stop-color="#0186B3"/>
<stop offset="1" stop-color="#0090C1"/>
</linearGradient>
<linearGradient id="paint15_linear_496_219" x1="83.0477" y1="284.624" x2="83.0477" y2="118.627" gradientUnits="userSpaceOnUse">
<stop stop-color="#0090C1"/>
<stop offset="0.337" stop-color="#0391C2"/>
<stop offset="0.5689" stop-color="#0C96C3"/>
<stop offset="0.7693" stop-color="#1B9FC6"/>
<stop offset="0.9508" stop-color="#31AACB"/>
<stop offset="1" stop-color="#38AECC"/>
</linearGradient>
<linearGradient id="paint16_linear_496_219" x1="111.564" y1="284.624" x2="111.564" y2="118.627" gradientUnits="userSpaceOnUse">
<stop stop-color="#046E8F"/>
<stop offset="0.2556" stop-color="#03799F"/>
<stop offset="0.7173" stop-color="#018AB8"/>
<stop offset="1" stop-color="#0090C1"/>
</linearGradient>
<linearGradient id="paint17_linear_496_219" x1="197.191" y1="115.654" x2="197.191" y2="121.218" gradientUnits="userSpaceOnUse">
<stop stop-color="#38AECC"/>
<stop offset="0.049214" stop-color="#31AACB"/>
<stop offset="0.2307" stop-color="#1B9FC6"/>
<stop offset="0.4311" stop-color="#0C96C3"/>
<stop offset="0.663" stop-color="#0391C2"/>
<stop offset="1" stop-color="#0090C1"/>
</linearGradient>
<linearGradient id="paint18_linear_496_219" x1="222.112" y1="115.654" x2="222.112" y2="121.218" gradientUnits="userSpaceOnUse">
<stop stop-color="#0090C1"/>
<stop offset="0.2827" stop-color="#018AB8"/>
<stop offset="0.7444" stop-color="#03799F"/>
<stop offset="1" stop-color="#046E8F"/>
</linearGradient>
<linearGradient id="paint19_linear_496_219" x1="439.492" y1="186.031" x2="439.492" y2="192.416" gradientUnits="userSpaceOnUse">
<stop stop-color="#38AECC"/>
<stop offset="0.049214" stop-color="#31AACB"/>
<stop offset="0.2307" stop-color="#1B9FC6"/>
<stop offset="0.4311" stop-color="#0C96C3"/>
<stop offset="0.663" stop-color="#0391C2"/>
<stop offset="1" stop-color="#0090C1"/>
</linearGradient>
<linearGradient id="paint20_linear_496_219" x1="468.095" y1="186.031" x2="468.095" y2="192.416" gradientUnits="userSpaceOnUse">
<stop stop-color="#0090C1"/>
<stop offset="0.2827" stop-color="#018AB8"/>
<stop offset="0.7444" stop-color="#03799F"/>
<stop offset="1" stop-color="#046E8F"/>
</linearGradient>
<clipPath id="clip0_496_219">
<rect width="133" height="279" fill="white" transform="translate(376 229)"/>
</clipPath>
</defs>
</svg>
