<svg width="62" height="62" viewBox="0 0 62 62" fill="none" xmlns="http://www.w3.org/2000/svg">
<rect width="62" height="62" rx="5" fill="white"/>
<path d="M31.5437 11C20.5807 11 14.7505 18.0253 14.7505 25.6857C14.7505 29.2383 16.7356 33.6685 19.9132 35.0736C20.3957 35.2911 20.6583 35.1986 20.7658 34.7511C20.8608 34.4111 21.2783 32.7735 21.4808 32.0009C21.5433 31.7534 21.5108 31.5384 21.3108 31.3059C20.2557 30.0859 19.4182 27.8633 19.4182 25.7782C19.4182 20.4354 23.6659 15.2477 30.8937 15.2477C37.144 15.2477 41.5167 19.3079 41.5167 25.1156C41.5167 31.6784 38.044 36.2186 33.5313 36.2186C31.0337 36.2186 29.1736 34.2585 29.7637 31.8334C30.4762 28.9458 31.8738 25.8407 31.8738 23.7581C31.8738 21.8905 30.8187 20.3454 28.6636 20.3454C26.121 20.3454 24.0584 22.863 24.0584 26.2432C24.0584 28.3908 24.8184 29.8408 24.8184 29.8408C24.8184 29.8408 22.3033 40.0013 21.8358 41.8989C21.0458 45.1115 21.9433 50.3143 22.0208 50.7618C22.0683 51.0093 22.3458 51.0868 22.5008 50.8843C22.7483 50.5593 25.7885 46.2216 26.641 43.0864C26.951 41.9439 28.2236 37.3112 28.2236 37.3112C29.0611 38.8237 31.4787 40.0913 34.0539 40.0913C41.7142 40.0913 47.2495 33.3585 47.2495 25.0031C47.222 16.9928 40.3666 11 31.5437 11Z" fill="#D32F2F"/>
</svg>
