<svg width="104" height="84" viewBox="0 0 104 84" fill="none" xmlns="http://www.w3.org/2000/svg">
<g clip-path="url(#clip0_2_913)">
<path d="M3.33492 70.3716L45.8242 83.1327V71.6105L3.33492 58.7256C1.23516 62.5663 1.23516 66.407 3.33492 70.3716Z" fill="white"/>
<path d="M3.33492 70.3715L3.9525 70.4954C2.84086 66.5308 2.71735 62.6901 3.9525 58.9733L3.33492 58.8494C1.23516 62.5662 1.23516 66.4069 3.33492 70.3715Z" fill="#A0A0A0"/>
<path d="M103.135 65.9113L45.8242 83.1325V71.6104L103.135 54.3892C101.653 58.4777 101.53 62.3184 103.135 65.9113Z" fill="#E2E2E2"/>
<path d="M100.171 58.4778C100.171 58.7256 88.4371 62.5663 74.1093 67.0265C59.658 71.4867 48.0475 74.9557 48.0475 74.7079C48.0475 74.4601 59.7815 70.6194 74.1093 66.1592C88.4371 61.6991 100.171 58.23 100.171 58.4778Z" fill="#A0A0A0"/>
<path d="M100.171 60.9556C100.171 61.2034 88.4371 65.0441 74.1093 69.5043C59.658 73.9645 48.0475 77.4335 48.0475 77.1857C48.0475 76.9379 59.7815 73.0972 74.1093 68.637C88.4371 64.1768 100.171 60.7078 100.171 60.9556Z" fill="#A0A0A0"/>
<path d="M100.171 63.5574C100.171 63.8052 88.4371 67.6459 74.1093 72.1061C59.658 76.5663 48.0475 80.0353 48.0475 79.7875C48.0475 79.5397 59.7815 75.699 74.1093 71.2388C88.4371 66.7787 100.171 63.3096 100.171 63.5574Z" fill="#A0A0A0"/>
<path d="M41.6247 74.0885C41.6247 74.3363 33.7197 71.9823 24.0855 68.7611C14.4513 65.6637 6.54633 62.938 6.54633 62.6903C6.54633 62.4425 14.4513 64.7965 24.0855 68.0177C33.8432 71.115 41.6247 73.8407 41.6247 74.0885Z" fill="#D3D3D3"/>
<path d="M41.6247 76.5664C41.6247 76.8142 33.7197 74.4602 24.0855 71.239C14.4513 68.1416 6.54633 65.416 6.54633 65.2921C6.54633 65.0443 14.4513 67.3983 24.0855 70.6195C33.8432 73.7168 41.6247 76.4425 41.6247 76.5664Z" fill="#D3D3D3"/>
<path d="M41.6247 79.1681C41.6247 79.4159 33.7197 77.0619 24.0855 73.8406C14.3278 70.7433 6.54633 68.0176 6.54633 67.7698C6.54633 67.5221 14.4513 69.876 24.0855 73.0973C33.8432 76.1946 41.6247 78.9203 41.6247 79.1681Z" fill="#D3D3D3"/>
<path d="M45.5772 72.3539C45.7007 72.3539 45.7007 72.3539 45.8242 72.3539C45.9477 72.3539 45.9477 72.3539 46.0713 72.3539L103.382 55.1326C103.506 55.1326 103.629 55.0087 103.629 55.0087C103.629 55.0087 103.629 55.0087 103.753 54.8848L103.876 54.761V54.6371V54.5132V54.3893C103.876 54.3893 103.876 54.3893 103.876 54.2654V54.1415C103.876 54.1415 103.876 54.1415 103.876 54.0176C103.876 53.8937 103.753 53.8937 103.753 53.7698C103.629 53.6459 103.629 53.6459 103.506 53.522C103.506 53.522 103.506 53.522 103.382 53.522C103.382 53.522 103.259 53.522 103.259 53.3981L57.0641 44.23C56.9406 44.23 56.8171 44.23 56.6936 44.23L3.08789 57.8583C2.96437 57.8583 2.96437 57.8583 2.84086 57.9822C2.84086 57.9822 2.84086 57.9822 2.71734 57.9822C2.71734 57.9822 2.71734 57.9822 2.59382 57.9822C2.59382 57.9822 2.59382 57.9822 2.47031 58.1061C0.864608 59.7167 0 62.3185 0 65.0441C0.123515 67.522 0.988124 69.6282 2.47031 70.8671C2.59382 70.991 2.71734 70.991 2.71734 70.991L45.2067 83.7521C45.3302 83.7521 45.3302 83.7521 45.4537 83.7521C45.5772 83.7521 45.5772 83.7521 45.7007 83.7521L103.012 66.5309C103.506 66.407 103.753 65.9114 103.629 65.5397C103.506 65.0441 103.012 64.7964 102.641 64.9202L45.8242 82.2654L3.82898 69.6282C2.71734 68.6371 2.09976 67.0264 1.97625 65.0441C1.85273 62.9379 2.59382 60.9556 3.58195 59.7167L45.5772 72.3539Z" fill="#034D89"/>
<path d="M10.6223 74.0884L8.89311 71.8583L7.28741 72.8495V62.938L10.6223 63.9291V74.0884Z" fill="#E73324"/>
<path d="M102.394 59.0973L59.9049 71.8584C58.1757 68.2655 58.1757 64.3009 59.9049 60.3363L102.394 47.5752C100.665 51.9115 100.418 55.8761 102.394 59.0973Z" fill="#E2E2E2"/>
<path d="M60.8931 71.6105L59.9049 71.8583C58.1757 68.2654 58.1757 64.3008 59.9049 60.3362L60.7696 60.0884C59.6579 64.053 59.7814 67.8937 60.8931 71.6105Z" fill="#A0A0A0"/>
<path d="M64.1045 62.8141C64.1045 63.0619 72.0095 60.7079 81.6437 57.4866C91.4014 54.3893 99.1829 51.6636 99.1829 51.4158C99.1829 51.1681 91.2779 53.522 81.6437 56.7433C71.886 59.8406 64.1045 62.5663 64.1045 62.8141Z" fill="#A0A0A0"/>
<path d="M64.1045 65.2919C64.1045 65.5396 72.0095 63.1857 81.6437 59.9644C91.4014 56.8671 99.1829 54.1414 99.1829 53.8936C99.1829 53.6458 91.2779 55.9998 81.6437 59.2211C71.886 62.4423 64.1045 65.168 64.1045 65.2919Z" fill="#A0A0A0"/>
<path d="M64.1045 67.8937C64.1045 68.1414 72.0095 65.7875 81.6437 62.5662C91.4014 59.4689 99.1829 56.7432 99.1829 56.4954C99.1829 56.2476 91.2779 58.6016 81.6437 61.8229C71.886 64.9202 64.1045 67.6459 64.1045 67.8937Z" fill="#A0A0A0"/>
<path d="M2.47029 42.2477L48.6651 33.0796C48.7886 33.0796 48.9121 33.0796 49.0356 33.0796L102.641 46.584H102.765H102.888C103.012 46.584 103.012 46.7079 103.135 46.7079C103.259 46.8318 103.259 46.8318 103.259 46.9557C103.259 46.9557 103.259 46.9557 103.259 47.0796V47.2035C103.259 47.2035 103.259 47.2035 103.259 47.3274V47.4513C103.259 47.5752 103.259 47.5752 103.259 47.5752V47.6991L103.135 47.8229C103.135 47.8229 103.135 47.823 103.012 47.9468C102.888 48.0707 102.888 48.0707 102.765 48.0707L60.399 60.9557C58.5463 63.4336 58.5463 68.1415 60.2755 70.8672L102.147 58.23C102.641 58.1061 103.012 58.3539 103.135 58.8495C103.259 59.3451 103.012 59.7168 102.518 59.8406L60.152 72.6017C60.0285 72.6017 60.0285 72.6017 59.905 72.6017C59.7815 72.6017 59.7815 72.6017 59.6579 72.6017L2.34678 55.5044C2.22326 55.5044 1.97623 55.3805 1.85272 55.2566C-1.11165 51.292 -0.370561 45.9645 1.85272 42.7433C2.09975 42.4955 2.22326 42.3716 2.47029 42.2477Z" fill="#FFC804"/>
<path d="M72.2565 68.1414L67.8099 70.991V62.814L72.2565 61.4512V68.1414Z" fill="#77C845"/>
<path d="M70.0332 66.9027H69.7862L69.5392 67.0266C69.2921 67.646 69.0451 68.3894 68.6746 68.885L68.4275 68.7611C68.7981 68.2655 69.0451 67.6461 69.4157 66.9027H69.2921L69.1686 66.7788C69.1686 66.7788 69.0451 66.7788 68.9216 66.6549C68.7981 66.531 68.551 66.531 68.4275 66.2832C68.304 66.0354 68.304 65.9115 68.304 65.6638C68.304 65.5399 68.304 65.2921 68.304 65.2921C68.304 65.2921 68.4275 65.2921 68.551 65.416C68.6746 65.416 68.9216 65.5399 69.0451 65.7876C69.0451 65.9115 69.1686 66.0354 69.1686 66.0354C69.1686 66.1593 69.1686 66.2832 69.1686 66.2832C69.1686 66.4071 69.1686 66.4071 69.1686 66.531L69.2921 66.6549V66.7788C69.4157 66.4071 69.5392 66.0354 69.5392 65.7876L69.6627 65.416L69.5392 65.1682L69.4157 65.0443C69.4157 65.0443 69.2921 65.0443 69.1686 65.0443C69.0451 65.0443 68.7981 64.9204 68.6746 64.6726C68.551 64.5487 68.551 64.3009 68.551 64.0531C68.551 63.9292 68.551 63.9292 68.551 63.8053V63.6815C68.551 63.6815 68.6746 63.6815 68.7981 63.6815C68.9216 63.6815 68.9216 63.6815 69.0451 63.8053C69.1686 63.8053 69.1686 63.9292 69.2921 64.0531C69.4157 64.177 69.4157 64.4248 69.4157 64.6726C69.4157 64.7965 69.4157 64.7965 69.4157 64.9204L69.5392 65.0443V65.1682L69.6627 64.7965C69.6627 64.6726 69.6627 64.6726 69.6627 64.5487V64.4248C69.6627 64.4248 69.6627 64.3009 69.5392 64.177V64.0531C69.5392 64.0531 69.5392 64.0531 69.5392 63.9292C69.5392 63.9292 69.5392 63.9292 69.5392 63.8053C69.5392 63.6815 69.5392 63.5576 69.5392 63.4337C69.5392 63.1859 69.7862 62.9381 69.9097 62.8142C70.0332 62.6903 70.1567 62.5664 70.1567 62.5664C70.1567 62.5664 70.2803 62.6903 70.2803 62.8142C70.4038 62.9381 70.4038 63.1859 70.4038 63.4337C70.4038 63.5576 70.2803 63.6815 70.2803 63.8053C70.2803 63.8053 70.2803 63.8053 70.2803 63.9292C70.2803 63.9292 70.2803 63.9292 70.2803 64.0531L70.1567 64.177C70.1567 64.3009 70.0332 64.3009 70.0332 64.3009V64.4248C70.0332 64.4248 70.0332 64.5487 70.0332 64.6726L69.9097 65.0443L70.0332 64.9204L70.1567 64.7965C70.1567 64.7965 70.1568 64.6726 70.2803 64.5487C70.4038 64.3009 70.5273 64.177 70.6508 63.9292C70.7743 63.8053 70.8978 63.8053 71.0214 63.8053C71.1449 63.8053 71.2684 63.6815 71.2684 63.6815C71.5154 63.6815 71.6389 63.6815 71.6389 63.6815C71.6389 63.6815 71.6389 63.6815 71.6389 63.8053C71.6389 63.8053 71.6389 63.9292 71.5154 64.0531C71.3919 64.3009 71.2684 64.4248 71.1449 64.6726C70.8978 64.7965 70.6508 64.9204 70.5273 64.9204C70.4038 64.9204 70.4038 64.9204 70.2803 64.9204L70.1567 65.0443L69.9097 65.1682L69.7862 65.5399C69.6627 65.7876 69.6627 66.1593 69.5392 66.531L69.6627 66.4071L69.7862 66.2832C69.7862 66.2832 69.7862 66.1593 69.9097 66.0354C69.9097 65.9115 70.0332 65.7876 70.0332 65.7876C70.1567 65.6637 70.1568 65.5399 70.2803 65.5399C70.5273 65.416 70.7743 65.2921 70.8978 65.2921C71.0214 65.2921 71.2684 65.2921 71.2684 65.2921C71.2684 65.2921 71.2684 65.416 71.1449 65.6638C71.0214 65.9115 70.8978 66.0354 70.6508 66.2832C70.6508 66.7788 70.4038 66.9027 70.1567 66.9027H70.0332Z" fill="#027700"/>
<path d="M8.39905 48.6902L8.27553 49.1858L8.0285 49.0619L8.39905 48.6902Z" fill="#00A9D3"/>
<path d="M7.53443 48.6903H7.78146C8.15201 48.9381 8.39904 49.1859 8.76959 49.3098L8.8931 49.1859C8.52256 49.062 8.27553 48.8142 7.90498 48.6903V48.5664V48.4425C7.90498 48.4425 7.90498 48.3186 8.0285 48.3186C8.0285 48.1947 8.15201 48.0708 8.15201 47.9469C8.15201 47.8231 8.0285 47.6992 8.0285 47.5753C7.90498 47.4514 7.90498 47.4514 7.90498 47.4514C7.90498 47.4514 7.90498 47.4514 7.78146 47.5753C7.78146 47.6992 7.65795 47.8231 7.65795 47.9469C7.65795 48.0708 7.65795 48.0708 7.65795 48.1947C7.65795 48.1947 7.65795 48.3186 7.78146 48.3186C7.78146 48.3186 7.78146 48.4425 7.90498 48.4425V48.5664V48.6903C7.65795 48.3186 7.41092 48.1947 7.2874 48.0708L7.16389 47.9469V47.823V47.6992C7.16389 47.6992 7.16389 47.5753 7.2874 47.5753C7.2874 47.4514 7.41092 47.3275 7.41092 47.2036C7.41092 47.0797 7.41092 46.9558 7.2874 46.8319C7.2874 46.8319 7.2874 46.708 7.16389 46.708C7.16389 46.708 7.04037 46.708 7.04037 46.8319L6.91686 46.9558C6.91686 46.9558 6.91686 47.0797 6.91686 47.2036C6.91686 47.3275 6.91686 47.4514 7.04037 47.5753C7.04037 47.5753 7.04037 47.6992 7.16389 47.6992V47.823V47.9469L7.04037 47.823L6.91686 47.6992V47.5753C6.91686 47.5753 6.91686 47.5753 6.91686 47.4514L6.79334 47.3275C6.66983 47.2036 6.54631 47.2036 6.42279 47.2036C6.29928 47.2036 6.17576 47.2036 6.17576 47.2036C6.17576 47.2036 6.17576 47.3275 6.17576 47.4514C6.17576 47.5753 6.17576 47.6992 6.29928 47.823L6.42279 47.9469C6.42279 47.9469 6.42279 47.9469 6.54631 47.9469H6.66983C6.66983 47.9469 6.66983 47.9469 6.79334 48.0708L6.91686 48.1947H6.79334H6.66983C6.66983 48.1947 6.54631 48.1947 6.54631 48.0708C6.42279 47.9469 6.29928 47.9469 6.17576 47.9469C6.05225 47.9469 6.05225 47.9469 5.92873 47.9469C5.80522 47.9469 5.80522 47.9469 5.80522 48.0708C5.6817 48.1947 5.6817 48.1947 5.6817 48.1947C5.6817 48.1947 5.80522 48.1947 5.80522 48.3186C5.92873 48.4425 6.05225 48.4425 6.17576 48.4425C6.29928 48.4425 6.42279 48.3186 6.54631 48.3186C6.54631 48.3186 6.66983 48.3186 6.66983 48.1947H6.79334H6.91686L7.04037 48.3186C7.41092 48.3186 7.53443 48.4425 7.78146 48.5664L7.53443 48.6903C7.53443 48.5664 7.41092 48.5664 7.41092 48.5664C7.41092 48.5664 7.2874 48.5664 7.2874 48.4425C7.16389 48.4425 7.16389 48.4425 7.04037 48.4425C6.91686 48.4425 6.79334 48.5664 6.66983 48.5664C6.54631 48.6903 6.54631 48.6903 6.54631 48.6903L6.66983 48.8142C6.79334 48.9381 6.91686 48.9381 7.04037 48.9381C7.2874 48.9381 7.41092 48.8142 7.53443 48.6903Z" fill="#027700"/>
<path d="M6.66981 54.3894C6.66981 54.5133 6.79333 54.6372 7.28739 54.2655C7.28739 54.3894 7.41091 54.5133 7.78145 54.1416C7.78145 54.2655 8.02848 54.1416 8.27551 53.7699C8.52255 53.8938 8.52255 53.6461 8.76958 53.5222C8.89309 53.3983 9.26364 52.7788 9.38715 52.2832C9.7577 52.4071 10.1282 52.6549 10.2518 52.7788C10.4988 53.0266 11.4869 54.1416 11.4869 54.1416C11.981 54.0177 12.3515 53.646 12.475 53.0266L10.9929 52.1593C10.9929 52.1593 10.9929 50.6726 10.1282 50.177C9.26364 49.6814 8.76958 49.5576 8.76958 49.5576C8.39903 49.5576 8.152 49.3098 8.152 48.9381L8.27551 48.5664L7.78145 48.8142C7.78145 48.8142 7.16388 48.6903 7.04036 49.1859C6.79333 49.8053 7.65794 50.177 8.02848 50.7965C7.65794 51.0443 7.28739 51.2921 6.91684 51.6638C6.66981 52.0354 6.5463 52.531 6.29927 52.9027C5.92872 53.6461 5.43466 54.3894 5.06411 54.5133C4.81708 54.6372 5.43466 54.7611 5.80521 54.5133C5.92872 54.7611 6.42278 54.7611 6.66981 54.3894Z" fill="#E0E0E0"/>
<path d="M7.90498 50.9205C7.53444 51.1683 7.16389 51.4161 6.79334 51.7878C6.66983 51.9117 6.54631 52.1594 6.54631 52.2833C6.4228 52.2833 6.4228 52.1594 6.4228 52.1594C6.05225 52.1594 5.92874 52.0356 5.92874 52.0356C5.68171 52.1594 5.31116 52.0356 5.43467 51.9117C5.06413 51.9117 4.69358 51.6639 4.94061 51.6639C5.18764 51.6639 5.80522 51.4161 6.29928 51.0444C6.54631 50.7966 6.91686 50.6727 7.65795 50.5488C7.78147 50.6727 7.90498 50.7966 7.90498 50.9205Z" fill="#B9BABA"/>
<path d="M7.78146 49.3097C7.65794 49.1858 7.65794 49.3097 7.65794 49.3097C7.53443 49.4336 7.65794 49.4336 7.78146 49.3097C7.78146 49.4336 7.78146 49.4336 7.78146 49.3097Z" fill="#919191"/>
<path d="M86.2138 43.4866L50.5178 54.2653C49.0356 51.168 49.0356 47.9468 50.5178 44.4777L86.2138 33.699C84.7316 37.5397 84.6081 40.8848 86.2138 43.4866Z" fill="#E2E2E2"/>
<path d="M51.2589 54.0177L50.5178 54.2655C49.0356 51.1682 49.0356 47.9469 50.5178 44.4779L51.0119 44.354C50.2708 47.3275 50.5178 50.6726 51.2589 54.0177Z" fill="#A0A0A0"/>
<path d="M53.9762 46.7079C53.9762 46.8318 60.6461 44.8495 68.7981 42.2477C76.9501 39.646 83.6199 37.292 83.6199 37.1681C83.6199 37.0442 76.9501 39.0265 68.7981 41.6283C60.5225 44.23 53.9762 46.4601 53.9762 46.7079Z" fill="#A0A0A0"/>
<path d="M53.9762 48.8141C53.9762 48.938 60.6461 46.9557 68.7981 44.3539C76.9501 41.7522 83.6199 39.3982 83.6199 39.2743C83.6199 39.1504 76.9501 41.1327 68.7981 43.7345C60.5225 46.3362 53.9762 48.6902 53.9762 48.8141Z" fill="#A0A0A0"/>
<path d="M53.9762 50.9203C53.9762 51.0442 60.6461 49.0619 68.7981 46.4601C76.9501 43.8584 83.6199 41.5044 83.6199 41.3805C83.6199 41.2566 76.9501 43.2389 68.7981 45.8407C60.5225 48.4424 53.9762 50.7964 53.9762 50.9203Z" fill="#A0A0A0"/>
<path d="M2.09974 29.3628L41.0071 21.6814C41.1306 21.6814 41.2541 21.6814 41.2541 21.6814L86.4608 33.0796H86.5843C86.5843 33.0796 86.5843 33.0796 86.7078 33.0796L86.8313 33.2035C86.8313 33.3274 86.9548 33.3274 86.9548 33.4513V33.5752V33.6991V33.823C86.9548 33.823 86.9548 33.823 86.9548 33.9469L86.8313 34.0708C86.7078 34.0708 86.7078 34.1947 86.5843 34.1947L51.0119 44.8495C49.4062 46.9557 49.4062 50.9203 50.8883 53.1504L86.0902 42.4956C86.4608 42.3717 86.8313 42.6194 86.9548 42.9911C87.0784 43.3628 86.8313 43.7345 86.4608 43.8584L50.6413 55.0088C50.6413 55.0088 50.5178 55.0088 50.3943 55.0088C50.2708 55.0088 50.2708 55.0088 50.1473 55.0088L1.97622 40.5133C1.85271 40.5133 1.72919 40.3894 1.60568 40.2655C-0.864631 36.9203 -0.247054 32.4602 1.60568 29.7345C1.72919 29.4867 1.85271 29.3628 2.09974 29.3628Z" fill="#E73324"/>
<path d="M11.6104 30.1061L46.8123 40.761V31.0972L11.6104 20.4424C9.8812 23.6636 9.8812 26.761 11.6104 30.1061Z" fill="white"/>
<path d="M11.6104 30.1061L12.1045 30.3539C11.3634 27.5043 11.2399 24.2831 12.1045 20.6902L11.6104 20.4424C9.8812 23.6636 9.8812 26.761 11.6104 30.1061Z" fill="#A0A0A0"/>
<path d="M94.4893 26.3893L46.8123 40.6371V30.9734L94.3658 16.7256C93.1306 20.1946 93.1306 23.4159 94.4893 26.3893Z" fill="#E2E2E2"/>
<path d="M92.019 20.1946C92.019 20.3185 82.3848 23.5397 70.4038 27.2565C58.4228 30.9733 48.7886 33.8229 48.7886 33.699C48.7886 33.5751 58.4228 30.3539 70.4038 26.637C82.2613 22.9202 92.019 20.0707 92.019 20.1946Z" fill="#A0A0A0"/>
<path d="M92.019 22.3008C92.019 22.4247 82.3848 25.6459 70.4038 29.3627C58.4228 33.0795 48.7886 35.9291 48.7886 35.8052C48.7886 35.6813 58.4228 32.4601 70.4038 28.7432C82.2613 25.0264 92.019 22.1769 92.019 22.3008Z" fill="#A0A0A0"/>
<path d="M92.019 24.407C92.019 24.5309 82.3848 27.7521 70.4038 31.4689C58.4228 35.1857 48.7886 38.0353 48.7886 37.9114C48.7886 37.7875 58.4228 34.5663 70.4038 30.8494C82.2613 27.1326 92.019 24.2831 92.019 24.407Z" fill="#A0A0A0"/>
<path d="M43.4774 33.2035C43.4774 33.3274 36.9311 31.469 28.9026 28.8672C20.8741 26.2655 14.3278 24.0354 14.3278 23.7876C14.3278 23.6637 20.8741 25.5221 28.9026 28.1239C36.9311 30.7256 43.4774 32.9557 43.4774 33.2035Z" fill="#D3D3D3"/>
<path d="M43.4774 35.3097C43.4774 35.4336 36.9311 33.5752 28.9026 30.9734C20.8741 28.3717 14.3278 26.1416 14.3278 25.8938C14.3278 25.7699 20.8741 27.6283 28.9026 30.2301C36.9311 32.8318 43.4774 35.0619 43.4774 35.3097Z" fill="#D3D3D3"/>
<path d="M43.4774 37.4159C43.4774 37.5398 36.9311 35.6814 28.9026 33.0796C20.8741 30.4779 14.3278 28.2478 14.3278 28C14.3278 27.8761 20.8741 29.7345 28.9026 32.3363C36.9311 34.938 43.4774 37.1681 43.4774 37.4159Z" fill="#D3D3D3"/>
<path d="M46.6888 31.7167C46.8123 31.7167 46.8123 31.7167 46.9359 31.7167C47.0594 31.7167 47.0594 31.7167 47.1829 31.7167L94.7363 17.469C94.8598 17.469 94.8598 17.3451 94.9834 17.3451L95.1069 17.2212C95.1069 17.2212 95.1069 17.2212 95.1069 17.0973V16.9734V16.8495C95.1069 16.8495 95.1069 16.8495 95.1069 16.7256V16.6017C95.1069 16.4778 95.1069 16.4778 94.9834 16.4778C94.9834 16.3539 94.8598 16.3539 94.7363 16.3539C94.7363 16.3539 94.7363 16.3539 94.6128 16.3539H94.4893L56.1995 8.79639C56.076 8.79639 55.9525 8.79639 55.9525 8.79639L11.4869 19.9468C11.3634 19.9468 11.3634 19.9468 11.3634 20.0707C11.3634 20.0707 11.3634 20.0707 11.2399 20.0707C11.2399 20.0707 11.2399 20.0707 11.1164 20.1946C9.7577 21.4336 9.01661 23.6636 9.14013 25.8937C9.26364 27.9999 10.0047 29.7344 11.2399 30.7256C11.3634 30.8495 11.3634 30.8495 11.4869 30.8495L46.6888 41.5043C46.8123 41.5043 46.8123 41.5043 46.9359 41.5043C47.0594 41.5043 47.0594 41.5043 47.1829 41.5043L94.7363 27.2566C95.1069 27.1327 95.3539 26.761 95.2304 26.3893C95.1069 26.0176 94.7363 25.7698 94.3658 25.8937L46.8123 39.8937L11.981 29.4866C11.1164 28.6194 10.4988 27.3805 10.4988 25.7698C10.4988 24.0353 10.9929 22.4247 11.8575 21.3097L46.6888 31.7167Z" fill="#77C845"/>
<path d="M21.9857 8.4248V19.0797C21.9857 19.0797 20.38 17.8407 20.2565 13.5044C20.2565 9.04427 21.9857 8.4248 21.9857 8.4248Z" fill="#A0A0A0"/>
<path d="M78.0617 5.94702L45.9477 15.2391V26.2656L78.0617 16.6019C77.0736 12.8851 77.0736 9.29215 78.0617 5.94702Z" fill="#E2E2E2"/>
<path d="M21.9857 8.4248L45.9477 15.239V26.2655L21.9857 19.0797C21.4917 15.3629 21.4917 11.7699 21.9857 8.4248Z" fill="white"/>
<path d="M76.7031 14.9911C76.7031 15.115 70.1568 17.2212 62.0047 19.823C53.8527 22.3008 47.3064 24.2831 47.3064 24.1592C47.3064 24.0353 53.8527 21.9292 62.0047 19.3274C70.1568 16.8495 76.7031 14.8672 76.7031 14.9911Z" fill="#A0A0A0"/>
<path d="M76.7031 13.1327C76.7031 13.2566 70.1568 15.3628 62.0047 17.9646C53.8527 20.4424 47.3064 22.4247 47.3064 22.3008C47.3064 22.177 53.8527 20.0708 62.0047 17.469C70.1568 14.9911 76.7031 13.0088 76.7031 13.1327Z" fill="#A0A0A0"/>
<path d="M76.7031 11.2743C76.7031 11.3982 70.1568 13.5044 62.0047 16.1062C53.8527 18.584 47.3064 20.5663 47.3064 20.4424C47.3064 20.3186 53.8527 18.2124 62.0047 15.6106C70.1568 13.1327 76.7031 11.1504 76.7031 11.2743Z" fill="#A0A0A0"/>
<path d="M76.7031 9.41591C76.7031 9.5398 70.1568 11.646 62.0047 14.2478C53.8527 16.7256 47.3064 18.7079 47.3064 18.584C47.3064 18.4602 53.8527 16.354 62.0047 13.7522C70.1568 11.2743 76.7031 9.29201 76.7031 9.41591Z" fill="#A0A0A0"/>
<path d="M76.7031 7.55751C76.7031 7.6814 70.1568 9.7876 62.0047 12.3894C53.8527 14.8672 47.3064 16.8495 47.3064 16.7257C47.3064 16.6018 53.8527 14.4956 62.0047 11.8938C70.1568 9.41592 76.7031 7.43362 76.7031 7.55751Z" fill="#A0A0A0"/>
<path d="M43.7244 23.6637C43.7244 23.7876 39.2779 22.5487 33.7197 20.938C28.1615 19.3274 23.7149 17.8407 23.7149 17.7168C23.7149 17.5929 28.1615 18.8318 33.7197 20.4425C39.2779 22.177 43.7244 23.5398 43.7244 23.6637Z" fill="#D3D3D3"/>
<path d="M43.7244 21.9293C43.7244 22.0532 39.2779 20.8143 33.7197 19.2037C28.1615 17.593 23.7149 16.1063 23.7149 15.9824C23.7149 15.8585 28.1615 17.0975 33.7197 18.7081C39.2779 20.4426 43.7244 21.8054 43.7244 21.9293Z" fill="#D3D3D3"/>
<path d="M43.7244 20.1947C43.7244 20.3186 39.2779 19.0797 33.7197 17.469C28.1615 15.8584 23.7149 14.3717 23.7149 14.2478C23.7149 14.1239 28.1615 15.3628 33.7197 16.9735C39.2779 18.708 43.7244 20.0708 43.7244 20.1947Z" fill="#D3D3D3"/>
<path d="M43.7244 18.4603C43.7244 18.5842 39.2779 17.3453 33.7197 15.7347C28.1615 14.124 23.7149 12.6373 23.7149 12.5134C23.7149 12.3895 28.1615 13.6285 33.7197 15.2391C39.2779 16.9736 43.7244 18.3364 43.7244 18.4603Z" fill="#D3D3D3"/>
<path d="M43.7244 16.7257C43.7244 16.8496 39.2779 15.6107 33.7197 14C28.1615 12.3894 23.7149 10.9027 23.7149 10.7788C23.7149 10.6549 28.1615 11.8939 33.7197 13.5045C39.2779 15.239 43.7244 16.6018 43.7244 16.7257Z" fill="#D3D3D3"/>
<path d="M21.7387 8.92035L45.8242 15.6106H45.9477H46.0712L78.1852 6.31858C78.3088 6.31858 78.3088 6.19469 78.4323 6.19469H78.5558C78.8028 6.0708 78.9263 5.9469 78.9263 5.69911C78.9263 5.45133 78.8028 5.20354 78.5558 5.20354L52.3705 0C52.247 0 52.247 0 52.1235 0L21.7387 7.80531C21.2446 7.80531 20.6271 8.30088 20.2565 9.53982C19.3919 12.2655 19.6389 18.5841 21.8622 19.4513L45.8242 26.6372H45.9477H46.0712L78.1852 16.9734C78.4323 16.8496 78.5558 16.6018 78.5558 16.354C78.4323 16.1062 78.1852 15.8584 77.9382 15.9823L46.0712 25.646L22.2328 18.5841C20.9976 18.0885 20.38 12.7611 21.2446 9.9115C21.3681 9.53982 21.4917 9.04425 21.7387 8.92035Z" fill="#0091AD"/>
<path d="M26.3088 12.2655L24.8266 11.8938V15.2389H26.3088V12.2655Z" fill="#FFC804"/>
<path d="M27.5439 17.0972C26.9263 17.9645 25.5677 18.584 25.5677 18.584C25.5677 18.584 24.209 17.2211 23.5914 16.1061C22.7268 14.3716 24.209 13.0087 25.5677 14.991C26.8028 13.6282 28.4085 15.8583 27.5439 17.0972Z" fill="#E73324"/>
</g>
<defs>
<clipPath id="clip0_2_913">
<rect width="104" height="84" fill="white"/>
</clipPath>
</defs>
</svg>
