<svg width="540" height="350" viewBox="0 0 540 350" fill="none" xmlns="http://www.w3.org/2000/svg">
<rect width="540" height="350" rx="16" fill="#F1F7F8"/>
<mask id="mask0_4_3772" style="mask-type:alpha" maskUnits="userSpaceOnUse" x="0" y="0" width="540" height="350">
<rect width="540" height="350" rx="16" fill="#F1F7F8"/>
</mask>
<g mask="url(#mask0_4_3772)">
<path d="M355.5 409C460.71 409 546 323.71 546 218.5C546 113.29 460.71 28 355.5 28C250.29 28 165 113.29 165 218.5C165 323.71 250.29 409 355.5 409Z" fill="url(#paint0_linear_4_3772)"/>
<path opacity="0.6" d="M257.492 240.392C282.985 240.392 303.65 219.706 303.65 194.189C303.65 168.671 282.985 147.985 257.492 147.985C232 147.985 211.335 168.671 211.335 194.189C211.335 219.706 232 240.392 257.492 240.392Z" fill="url(#paint1_linear_4_3772)"/>
<path d="M310.111 157.477C305.788 159.059 301.419 160.595 297.096 162.223C295.748 162.735 295.051 162.596 293.842 161.246C291.332 158.454 288.59 155.849 285.568 153.662C283.709 152.313 283.151 151.661 283.662 149.986C284.871 145.612 285.894 141.192 287.102 136.818C287.567 135.143 286.916 134.445 284.22 134.213C279.897 133.794 275.76 132.351 272.088 130.071C269.531 128.489 268.555 128.396 267.812 130.118C265.859 134.399 263.721 138.54 261.769 142.821C261.211 144.077 260.56 144.403 259.212 144.449C255.075 144.589 250.938 144.961 246.801 145.1C246.197 145.1 245.314 144.589 244.942 144.03C242.246 139.657 239.643 135.236 236.947 130.676C230.718 132.258 225.001 135.004 219.701 138.493C219.283 138.772 219.144 140.075 219.376 140.773C220.771 145.007 222.212 149.242 223.792 153.429C224.396 155.058 224.164 155.988 222.63 157.384C219.841 159.897 217.424 162.828 215.146 165.853C214.263 167.016 213.659 167.202 212.45 166.923C207.476 165.62 202.503 164.457 197.25 163.154C196.134 165.527 194.879 167.76 194.043 170.18C192.834 173.53 191.951 176.973 190.882 180.37C190.464 181.766 190.835 182.557 192.23 183.161C196.506 185.069 200.736 187.07 204.966 189.117C205.571 189.396 206.128 190.374 206.175 191.025C206.407 195.026 206.407 199.028 206.733 202.983C206.826 204.332 206.5 204.984 205.338 205.682C200.969 208.241 196.646 210.846 192.183 213.545C193.764 220.245 196.785 226.155 200.55 231.971C205.245 230.249 209.986 228.667 214.588 226.759C216.401 226.015 217.331 226.48 218.632 227.783C221.375 230.575 224.303 233.181 227.278 235.693C228.254 236.531 228.719 237.089 228.301 238.438C226.906 243.37 225.558 249.094 224.257 254.351L226.581 255.096C231.415 256.678 236.342 258.306 241.27 259.981C242.85 260.493 243.64 260.214 244.338 258.539C246.104 254.444 248.196 250.489 250.055 246.441C250.613 245.185 251.31 244.766 252.844 244.813C256.749 244.906 260.653 244.766 264.558 244.348C265.999 244.208 266.696 244.441 267.347 245.557C269.671 249.559 272.088 253.467 274.366 257.469C275.109 258.772 275.807 259.33 277.759 257.981C281.803 255.142 286.405 253.142 291.146 251.699C293.145 251.094 293.47 250.303 292.912 248.814C291.286 244.487 289.845 240.113 288.171 235.833C287.706 234.669 287.892 234.065 288.822 233.181C291.843 230.156 294.725 226.946 297.514 223.689C298.397 222.618 299.002 222.153 300.489 222.525C305.37 223.782 310.297 224.898 315.224 226.108L316.526 224.247C317.409 222.153 318.385 220.152 319.129 218.012C320.152 214.941 320.988 211.824 321.964 208.706C322.336 207.496 321.918 206.985 320.849 206.473C316.108 204.332 311.413 202.099 307.136 200.145C306.718 194.98 306.3 190.141 306.021 185.348C305.974 184.65 306.486 183.627 307.043 183.255C310.948 180.788 314.899 178.415 318.897 176.136C320.756 175.065 320.895 173.995 318.199 171.017C315.503 168.039 313.83 164.317 313.272 160.316C312.575 156.593 311.459 156.965 310.111 157.477ZM285.01 219.734C270.786 235.554 246.336 236.81 230.532 222.572C214.728 208.334 213.473 183.859 227.697 168.039C241.92 152.219 266.371 150.963 282.175 165.201C297.979 179.439 299.234 203.914 285.01 219.734Z" fill="#F7F6F4"/>
<path d="M230.114 170.086C216.912 184.79 218.074 207.496 232.763 220.757C247.452 234.018 270.136 232.808 283.383 218.105C296.585 203.402 295.422 180.695 280.734 167.434C266.045 154.22 243.315 155.383 230.114 170.086ZM276.736 208.38C269.299 219.501 253.82 222.385 242.478 214.755C231.322 207.217 228.44 191.862 236.063 180.509C243.64 169.249 258.794 166.364 270.229 174.041C281.617 181.719 284.499 196.841 276.736 208.38Z" fill="#F7F6F4"/>
<path d="M233.181 216.058C240.293 223.596 250.706 227.318 260.978 225.969L260.885 225.318C250.799 226.62 240.572 222.991 233.6 215.593C221.561 202.844 222.118 182.65 234.901 170.599L234.483 170.134C221.514 182.464 220.91 203.077 233.181 216.058Z" fill="#489C9E"/>
<path d="M256.47 161.944C263.535 161.897 270.508 164.177 276.086 168.458L276.457 167.946C270.786 163.572 263.675 161.246 256.47 161.292V161.944Z" fill="#489C9E"/>
<path d="M278.596 216.942L279.014 217.407C287.753 209.171 291.193 196.841 288.032 185.209L287.428 185.395C290.542 196.748 287.149 208.846 278.596 216.942Z" fill="#05E2C7"/>
<path d="M240.154 152.731C226.906 158.036 216.913 169.482 213.426 183.347L214.263 183.58C217.703 169.994 227.464 158.78 240.48 153.569C262.884 144.589 288.404 155.569 297.328 177.997L298.119 177.671C289.008 154.778 262.977 143.611 240.154 152.731Z" fill="#489C9E"/>
<path d="M297.561 209.962C294.075 219.035 287.614 226.759 279.293 231.738L279.758 232.482C288.218 227.41 294.818 219.5 298.351 210.241L297.561 209.962Z" fill="#E73233"/>
<path d="M442.774 75.9815L457.137 91.3827L364.543 177.741L326.938 140.239L142.632 295.46V325.751H151.138L325.311 179.044L363.846 217.524L476.614 112.321L491.535 128.374L506.642 64.3491L442.774 75.9815Z" fill="#FCC14B"/>
<path d="M440.868 67.6995L455.231 83.1007L362.59 169.459L325.032 132.003L142.632 285.596V323.006L323.405 170.762L361.94 209.242L474.708 104.085L489.629 120.092L504.69 56.0671L440.868 67.6995Z" fill="#42B093"/>
<path d="M541.272 127C543.364 128.676 545.409 130.351 547.548 132.026C548.198 132.537 548.338 132.91 548.059 133.933C547.408 136.027 546.99 138.168 546.804 140.308C546.711 141.611 546.525 142.076 545.549 142.355C543.039 143.053 540.529 143.891 538.018 144.635C537.042 144.914 536.903 145.426 537.6 146.869C538.669 149.148 539.227 151.615 539.181 154.127C539.181 155.895 539.413 156.36 540.482 156.267C543.178 155.942 545.874 155.756 548.57 155.43C549.36 155.337 549.732 155.57 550.151 156.221C551.452 158.222 552.893 160.176 554.241 162.177C554.427 162.456 554.427 163.061 554.288 163.433C552.94 166.085 551.545 168.737 550.104 171.436C552.754 174.042 555.822 176.042 559.168 177.624C559.447 177.764 560.145 177.392 560.377 177.113C562.05 175.158 563.724 173.158 565.304 171.11C565.908 170.319 566.466 170.18 567.628 170.505C569.72 171.11 571.905 171.436 574.089 171.669C574.926 171.762 575.205 171.994 575.437 172.692C576.321 175.531 577.204 178.369 578.18 181.393C579.667 181.207 581.155 181.161 582.596 180.881C584.595 180.463 586.593 179.858 588.592 179.393C589.429 179.206 589.661 178.741 589.568 177.904C589.196 175.205 588.918 172.506 588.685 169.807C588.639 169.435 588.964 168.83 589.289 168.644C591.195 167.295 593.148 166.132 595.053 164.782C595.704 164.317 596.122 164.27 596.773 164.643C599.33 166.039 601.979 167.388 604.629 168.784C607.464 165.992 609.463 162.688 611.229 159.059C608.952 157.245 606.767 155.383 604.443 153.662C603.513 152.964 603.467 152.406 603.746 151.382C604.303 149.195 604.675 146.962 605.047 144.682C605.14 143.937 605.28 143.565 606.116 143.332C608.952 142.541 612.206 141.471 615.227 140.541L614.902 139.145C614.251 136.26 613.554 133.328 612.903 130.397C612.717 129.467 612.299 129.141 611.276 129.28C608.719 129.653 606.116 129.792 603.56 130.071C602.77 130.164 602.351 129.978 601.933 129.187C600.817 127.233 599.562 125.325 598.168 123.511C597.656 122.859 597.563 122.441 597.935 121.743C599.19 119.416 600.445 116.997 601.7 114.67C602.119 113.926 602.165 113.414 600.91 112.856C598.261 111.692 595.89 110.064 593.752 108.11C592.869 107.319 592.357 107.365 591.8 108.063C590.173 110.157 588.453 112.204 586.779 114.344C586.315 114.903 585.989 114.996 585.245 114.856C582.828 114.298 580.365 113.786 577.948 113.414C577.157 113.274 576.739 113.135 576.46 112.297C575.623 109.505 574.694 106.714 573.764 103.922L572.463 103.829C571.161 104.015 569.859 104.155 568.604 104.434C566.792 104.852 564.979 105.364 563.166 105.83C562.469 106.016 562.329 106.388 562.422 107.086C562.794 110.064 563.119 113.088 563.398 115.787C560.935 117.555 558.704 119.23 556.426 120.812C556.1 121.045 555.45 121.091 555.078 120.952C552.707 119.742 550.337 118.532 547.966 117.229C546.897 116.624 546.292 116.857 545.642 119.137C544.991 121.37 543.643 123.325 541.83 124.814C540.11 126.023 540.622 126.489 541.272 127ZM579.667 120.672C591.8 122.952 599.795 134.678 597.517 146.822C595.239 158.966 583.526 166.969 571.393 164.689C559.261 162.409 551.266 150.684 553.544 138.54C555.822 126.396 567.535 118.393 579.667 120.672Z" fill="#93CEDC"/>
<g opacity="0.8">
<path opacity="0.6" d="M525.003 280.966C552.549 280.966 574.879 258.614 574.879 231.04C574.879 203.467 552.549 181.114 525.003 181.114C497.457 181.114 475.126 203.467 475.126 231.04C475.126 258.614 497.457 280.966 525.003 280.966Z" fill="url(#paint2_linear_4_3772)"/>
<path d="M515.474 162.316C514.87 167.248 514.219 172.227 513.661 177.159C513.475 178.694 513.01 179.299 511.105 179.811C507.2 180.835 503.342 182.231 499.763 184.045C497.578 185.162 496.695 185.395 495.254 184.092C491.675 180.788 487.91 177.624 484.284 174.321C482.889 173.064 481.913 173.344 480.333 175.81C477.776 179.765 474.383 183.022 470.385 185.441C467.596 187.163 467.039 188 468.294 189.582C471.454 193.537 474.383 197.678 477.544 201.633C478.473 202.797 478.473 203.588 477.823 204.89C475.917 208.938 474.243 213.126 472.384 217.174C472.105 217.779 471.129 218.384 470.432 218.43C464.9 218.896 459.369 219.221 453.651 219.594C452.117 226.387 451.932 233.227 452.722 240.067C452.768 240.625 453.977 241.369 454.767 241.509C459.508 242.254 464.296 242.905 469.084 243.463C470.943 243.696 471.733 244.347 472.291 246.534C473.36 250.489 474.987 254.212 476.754 257.887C477.451 259.283 477.311 259.981 476.475 261.005C472.802 265.146 469.223 269.38 465.365 273.847C467.085 276.08 468.665 278.407 470.525 280.408C473.128 283.199 476.01 285.758 478.752 288.457C479.868 289.574 480.798 289.574 482.099 288.504C486.004 285.293 490.001 282.176 494.092 279.198C494.65 278.779 495.858 278.686 496.555 278.965C500.506 280.687 504.365 282.641 508.316 284.316C509.664 284.874 510.128 285.526 510.221 286.968C510.5 292.412 510.965 297.903 511.337 303.533C518.542 305.301 525.7 305.301 533.184 304.51C533.835 299.159 534.625 293.808 535.09 288.457C535.276 286.363 536.159 285.665 538.065 285.061C542.109 283.804 546.014 282.222 549.918 280.594C551.173 280.082 551.963 279.896 553.079 280.966C557.169 284.688 561.957 288.829 566.42 292.691L568.325 290.83C572.23 286.968 576.181 283.013 580.179 279.058C581.434 277.802 581.573 276.871 580.318 275.382C577.25 271.66 574.461 267.705 571.486 263.936C570.557 262.773 570.51 261.935 571.3 260.446C573.299 256.724 575.065 252.909 576.599 248.954C577.157 247.511 577.715 246.906 579.156 246.86C584.13 246.581 589.103 246.162 594.031 245.929C595.658 245.836 596.541 245.464 596.169 242.905C595.425 237.601 595.704 232.203 596.68 226.945C597.099 224.712 596.494 224.014 594.821 223.828C589.894 223.27 584.966 222.525 579.993 222.013C578.645 221.874 578.18 221.408 577.715 220.106C576.274 215.685 574.647 211.358 572.834 207.077C572.276 205.728 572.091 204.844 573.16 203.681C576.785 199.586 580.272 195.398 583.804 191.211L582.642 189.07C581.062 187.209 579.621 185.255 577.901 183.533C575.484 181.021 572.834 178.694 570.371 176.228C569.395 175.251 568.697 175.391 567.675 176.228C563.305 179.765 558.843 183.208 554.845 186.325C549.639 184.185 544.851 182.231 540.064 180.137C539.366 179.858 538.623 178.881 538.576 178.136C538.111 173.157 537.786 168.179 537.554 163.2C537.461 160.874 536.484 160.222 532.301 161.385C528.117 162.549 523.702 162.27 519.611 160.874C515.846 159.478 515.66 160.781 515.474 162.316ZM563.073 217.035C571.3 238.531 560.563 262.68 539.088 270.916C517.612 279.151 493.487 268.403 485.26 246.906C477.032 225.41 487.77 201.261 509.245 193.025C530.674 184.79 554.845 195.538 563.073 217.035Z" fill="#93CEDC"/>
<path d="M488.421 245.604C496.044 265.565 518.495 275.569 538.436 267.891C558.378 260.261 568.372 237.787 560.702 217.826C553.079 197.865 530.627 187.861 510.686 195.538C490.745 203.216 480.751 225.643 488.421 245.604ZM548.105 219.454C555.17 232.11 550.336 248.396 537.46 255.608C524.77 262.68 508.548 257.934 501.343 244.999C494.231 232.157 498.879 216.151 511.848 208.939C524.817 201.68 540.761 206.333 548.105 219.454Z" fill="#93CEDC"/>
<path d="M534.16 265.192C544.898 262.028 553.59 253.839 557.309 243.23L556.658 242.998C552.986 253.374 544.48 261.423 533.928 264.541C515.753 269.892 496.602 259.423 491.256 241.23L490.605 241.416C496.09 259.981 515.613 270.636 534.16 265.192Z" fill="#4C98C9"/>
<path d="M493.487 216.197C496.881 209.357 502.552 203.774 509.385 200.517L509.106 199.912C502.133 203.262 496.369 208.939 492.883 215.918L493.487 216.197Z" fill="#4C98C9"/>
<path d="M557.262 221.827L557.913 221.641C554.241 209.171 544.108 199.819 531.371 197.166L531.232 197.818C543.689 200.423 553.637 209.636 557.262 221.827Z" fill="#4C98C9"/>
<path d="M476.66 227.457C475.266 242.812 481.355 258.073 492.976 268.217L493.58 267.519C482.192 257.562 476.196 242.626 477.544 227.55C479.914 201.587 502.97 182.37 528.908 184.697L529.001 183.766C502.552 181.347 479.078 200.935 476.66 227.457Z" fill="#4C98C9"/>
</g>
<path d="M95.5449 325.681C88.34 317.864 79.5082 309.581 70.6764 301.718C69.5608 302.555 61.1938 308.372 48.9687 306.092C52.0366 310.931 55.3834 315.491 59.1021 319.678C61.891 322.842 64.9589 325.727 68.1663 328.286C78.2531 332.381 92.477 326.937 95.5449 325.681Z" fill="#FAB448"/>
<path d="M69.8861 301.113C52.9662 286.224 36.0928 273.196 30.1429 268.682C31.398 272.963 33.9546 277.476 35.8139 281.478C37.9056 286.084 40.1368 290.644 42.5075 295.064C44.3203 298.461 46.2261 301.811 48.2249 305.022C59.9387 307.488 68.1197 302.323 69.8861 301.113Z" fill="#FAB448"/>
<path d="M59.5672 291.11C68.9103 298.927 78.9972 307.86 87.829 316.561C87.3177 312.746 84.7611 296.321 78.207 286.457C70.2119 279.477 61.1941 274.313 52.0834 271.288C56.6852 279.663 59.6137 291.017 59.5672 291.11Z" fill="#FAB448"/>
<path d="M51.014 270.916C49.666 270.497 48.3179 270.125 46.9699 269.799C41.8103 268.543 35.4886 266.961 30.3754 267.752C34.8378 271.148 45.9473 279.663 58.5907 290.272C57.754 287.247 54.965 277.849 51.014 270.916Z" fill="#FAB448"/>
<path d="M88.7583 317.399H88.6654C95.0336 323.727 100.751 329.962 104.934 335.638C105.167 334.196 104.842 332.149 104.098 329.078C100.1 312.513 91.2684 298.647 80.2519 288.364C86.7131 299.904 88.7118 317.213 88.7583 317.399Z" fill="#FAB448"/>
<path d="M70.3976 330.008C74.8599 333.265 79.6477 335.777 84.5284 337.406C89.1303 338.895 93.8716 339.593 98.4269 339.081C101.96 338.662 103.958 338.243 104.702 336.615C102.332 333.404 99.496 330.008 96.2887 326.471C94.1969 327.355 81.0422 332.753 70.3976 330.008Z" fill="#FAB448"/>
<path d="M88.6656 317.398H88.7585C88.7585 317.212 86.7133 299.95 80.2986 288.364C79.6013 287.712 78.9506 287.108 78.2533 286.503C84.8075 296.367 87.364 312.792 87.8753 316.607C79.0435 307.86 68.9567 298.973 59.6136 291.156H59.66C59.6136 291.016 56.7316 279.709 52.1763 271.334C51.8044 271.194 51.4325 271.101 51.0607 270.962C55.0117 277.895 57.8007 287.294 58.6374 290.318C45.994 279.756 34.8845 271.194 30.4221 267.798C30.2827 267.844 30.0967 267.844 29.9573 267.891C30.0038 268.17 30.0967 268.449 30.1897 268.728C36.1396 273.242 53.013 286.27 69.9328 301.159C68.1665 302.416 59.9389 307.58 48.2717 305.068C48.5041 305.44 48.7365 305.812 48.9689 306.185C61.194 308.465 69.6075 302.648 70.6766 301.811C79.5549 309.628 88.3867 317.956 95.5451 325.773C92.4772 327.03 78.2533 332.427 68.1665 328.379C68.9102 328.984 69.6539 329.542 70.3977 330.101C81.0423 332.846 94.1971 327.448 96.2423 326.564C99.4497 330.054 102.285 333.497 104.656 336.708C104.795 336.429 104.888 336.103 104.935 335.731C100.705 329.961 95.0338 323.726 88.6656 317.398Z" fill="#F7F6F4"/>
<path d="M128.362 325.588C121.668 311.722 112.65 296.275 103.261 281.385C100.937 281.757 83.5519 283.944 65.0981 273.847C67.0039 281.618 69.514 289.202 72.8608 296.554C75.3709 302.091 78.4853 307.488 82.0645 312.513C95.87 323.494 122.598 325.309 128.362 325.588Z" fill="#00B3A1"/>
<path d="M102.471 280.176C84.5283 251.886 65.3772 225.829 58.6372 216.756C57.8934 222.712 59.195 229.831 59.6133 235.787C60.0781 242.673 60.7289 249.559 61.7515 256.446C62.4953 261.657 63.4714 266.915 64.68 272.079C82.0647 282.083 98.7522 280.641 102.471 280.176Z" fill="#00B3A1"/>
<path d="M92.0581 261.796C102.191 276.965 112.883 293.855 121.668 309.861C123.295 304.882 129.71 283.2 125.387 267.194C116.88 253.886 105.492 242.161 92.6624 233.041C94.7077 246.069 92.1511 261.657 92.1046 261.843L92.0581 261.796Z" fill="#00B3A1"/>
<path d="M91.1285 231.925C89.2227 230.622 87.2704 229.319 85.2717 228.156C77.6484 223.549 68.3983 217.826 59.5665 215.779C64.6796 222.619 77.2301 239.695 90.9891 260.168C91.5934 255.934 93.1273 242.766 91.1285 231.925Z" fill="#00B3A1"/>
<path d="M122.644 311.35L122.505 311.303C128.827 322.889 134.033 333.916 137.287 343.362C138.588 341.733 139.378 339.034 140.169 334.8C144.352 312.094 138.914 289.853 127.572 270.683C130.547 288.69 122.737 311.117 122.644 311.35Z" fill="#00B3A1"/>
<path d="M84.621 315.957C89.8271 322.61 95.9629 328.566 102.889 333.405C109.443 338.011 116.694 341.641 124.411 343.735C130.453 345.363 133.94 345.968 136.217 344.433C134.404 339.082 131.987 333.219 129.012 326.984C125.108 326.844 100.146 325.635 84.621 315.957Z" fill="#00B3A1"/>
<path d="M122.505 311.303L122.644 311.35C122.737 311.117 130.547 288.69 127.572 270.683C126.874 269.52 126.177 268.356 125.433 267.193C129.71 283.199 123.295 304.882 121.715 309.861C112.929 293.901 102.238 276.964 92.105 261.796H92.198C92.2445 261.656 94.801 246.022 92.7558 232.994C92.2445 232.622 91.6867 232.25 91.1754 231.877C93.1741 242.719 91.6402 255.933 91.0359 260.121C77.2769 239.601 64.6799 222.525 59.6133 215.732C59.3344 215.685 59.102 215.592 58.8231 215.546C58.7766 215.918 58.6836 216.29 58.6371 216.709C65.3772 225.782 84.5283 251.839 102.471 280.128C98.7986 280.594 82.1111 282.036 64.6799 272.079C64.8194 272.684 64.9588 273.242 65.0983 273.847C83.5521 283.944 100.937 281.757 103.261 281.385C112.651 296.274 121.668 311.722 128.362 325.588C122.598 325.308 95.9166 323.494 82.0647 312.513C82.9014 313.676 83.7381 314.839 84.6212 315.956C100.193 325.634 125.108 326.844 129.013 326.983C131.941 333.218 134.405 339.081 136.218 344.432C136.636 344.153 136.961 343.827 137.287 343.408C134.033 333.916 128.78 322.889 122.505 311.303Z" fill="#F7F6F4"/>
<path d="M294.818 170.878L297.096 166.179C297.607 165.248 299.002 163.387 300.536 163.759C300.861 163.852 301.186 163.945 301.512 164.038C301.186 165.713 299.095 171.716 298.444 173.856C297.793 176.089 291.657 184.837 291.657 184.837L293.377 192.002L281.71 192.654L281.338 186.512L277.526 179.905L275.714 165.481L276.597 163.992C276.829 163.619 277.155 163.294 277.573 163.108L278.781 162.549L280.269 159.944C280.594 159.385 281.152 159.06 281.756 159.013L283.662 158.92C284.081 158.92 284.452 158.734 284.778 158.455L286.079 157.245C286.312 157.105 286.544 157.059 286.777 157.059C288.125 157.152 289.659 158.129 289.659 158.129L290.542 145.333C290.588 144.496 290.821 143.658 291.146 142.914L291.564 141.937C291.983 141.006 293.284 140.913 293.749 141.844C294.493 143.24 294.911 144.775 294.958 146.404L295.051 160.269C295.051 160.223 295.887 164.829 294.818 170.878Z" fill="#F5A8A9"/>
<path d="M286.823 188.048L291.797 188.001C296.91 187.955 301.186 192.608 301.326 198.424C301.605 208.939 302.627 224.294 306.114 240.021C306.114 240.114 306.16 240.161 306.16 240.254L309.693 255.608C314.992 278.687 316.201 299.439 302.209 303.58C302.209 303.58 278.224 318.609 275.481 259.889L275.574 243.976C275.574 243.883 275.574 243.836 275.574 243.743C275.574 225.783 276.643 207.916 278.038 196.795C278.689 191.77 282.407 188.141 286.823 188.048Z" fill="#EE3F3A"/>
<path d="M307.415 324.425C301.558 322.61 274.83 312.513 276.783 305.906C280.269 293.948 318.199 247.605 318.199 247.605C342.045 190.001 373.886 190.699 373.886 190.699C384.112 198.702 382.532 223.223 364.589 251.42L307.415 324.425Z" fill="#D83636"/>
<path d="M373.793 187.675C342.835 211.172 339.303 287.852 330.471 343.315C330.285 344.386 330.099 352.109 330.61 353.971C333.074 362.672 353.619 370.814 388.296 370.302C419.254 369.837 445.284 362.16 451.652 351.97C451.652 351.923 451.699 351.923 451.699 351.877C451.838 351.644 451.978 351.412 452.117 351.179C453.512 348.62 454.07 345.456 453.791 342.152C452.117 320.842 452.257 300.462 447.515 282.641C432.083 200.843 418.417 190.746 417.208 190.978C412.049 188.14 400.939 183.115 391.782 184.511C381.37 186.325 374.955 186.837 373.793 187.675Z" fill="#E5E5E2"/>
<path d="M375.745 187.21C374.537 188.28 369.795 190.514 366.309 195.864C359.011 206.147 346.228 235.554 353.108 280.687C360.592 329.869 348.088 357.6 349.668 384.262C349.994 389.427 348.692 407.899 336.374 401.478C329.076 397.662 320.058 392.73 318.757 384.262C319.408 380.26 331.772 341.734 327.077 310.745C321.685 275.057 328.565 236.996 342.37 213.732C349.064 202.425 362.869 192.84 366.356 190.514C370.586 187.675 376.861 185.116 376.861 185.116C376.861 185.116 375.978 186.047 375.745 187.21Z" fill="#EE3F3A"/>
<path d="M423.019 359.508C415.07 342.199 254.378 345.223 233.6 353.878C227.464 356.437 220.631 366.673 219.748 375.7C217.981 383.936 217.424 394.405 218.446 405.618L218.957 411.155H265.766C265.673 409.341 265.534 407.526 265.441 405.665C297.514 408.224 342.231 408.457 357.059 409.155C385.972 410.597 422.182 390.078 423.437 375.281C423.39 375.328 423.019 359.508 423.019 359.508Z" fill="url(#paint3_linear_4_3772)"/>
<path d="M471.129 375.328L470.803 359.555C463.505 342.246 315.549 345.456 296.398 354.157C291.332 356.437 284.173 363.277 281.245 374.816C278.456 383.471 277.154 395.568 277.991 408.829L278.13 411.202H325.125C325.125 410.644 325.079 410.039 325.079 409.481H437.893C464.76 409.388 471.501 390.357 471.129 375.328Z" fill="#EE3F3A"/>
<path d="M406.564 321.54C402.566 335.034 388.156 387.938 407.122 395.568C429.805 404.688 486.236 394.684 477.311 370.722C471.268 354.529 474.708 330.52 474.708 330.52C474.708 330.52 477.125 284.968 471.268 248.443C466.574 219.222 439.148 192.095 403.868 184.418C400.103 185.581 402.287 187.675 404.472 189.071C406.099 190.141 406.982 191.77 407.4 193.538C410.654 206.892 401.544 219.129 405.774 235.554C414.233 268.822 412.932 289.156 406.564 321.54Z" fill="#EE3F3A"/>
<path d="M475.033 324.797C474.94 329.171 472.756 333.312 469.037 336.243C466.155 338.523 462.855 340.943 460.903 342.199C449.793 349.318 439.288 352.249 425.761 355.087C417.348 356.856 410.096 355.553 401.451 356.483C403.635 346.154 405.913 332.846 407.075 325.355C425.343 313.397 446.632 312.932 448.027 310.373C452.861 301.486 435.662 271.102 428.597 256.259C409.632 216.43 431.339 205.263 438.172 199.493C455.929 211.917 468.247 229.784 471.268 248.489C475.777 276.779 475.405 310.698 475.033 324.797Z" fill="#D83636"/>
<path d="M362.405 155.803C362.405 155.803 357.338 152.313 355.432 148.172C353.573 144.031 355.293 139.843 355.293 139.843C355.293 139.843 349.11 136.121 352.597 131.421C356.083 126.722 377.186 127.047 377.186 127.047L362.405 155.803Z" fill="#023149"/>
<path d="M404.286 151.196C404.286 151.196 402.613 182.696 402.287 191.723C402.241 192.7 402.287 196.795 398.057 199.261C395.547 200.75 392.2 202.285 384.81 202.471C380.858 202.564 376.024 202.751 370.865 199.028C370.167 198.516 370.028 197.586 370.4 196.841C377.651 182.092 375.559 163.806 375.559 163.806L404.425 151.708" fill="#F3A7A8"/>
<path d="M370.493 196.656C375.699 182.325 375.745 170.274 375.745 170.274C375.745 170.274 401.172 166.551 400.986 167.156C400.381 178.37 393.967 189.351 370.493 196.656Z" fill="#DB9195"/>
<path d="M361.428 137.935C357.059 173.344 366.82 186.279 375.28 187.117C398.289 189.397 407.818 172.553 410.328 157.291C412.839 142.03 400.939 126.163 389.55 124.302C378.209 122.394 363.334 122.58 361.428 137.935Z" fill="#F3A7A8"/>
<path d="M351.063 118.626C354.038 114.717 358.128 109.413 370.168 117.742C373.049 119.742 376.257 114.717 385.089 114.019C398.662 112.996 399.08 120.72 407.401 122.488C413.072 123.697 412.839 128.35 418.975 136.074C422.926 141.053 417.209 145.892 420.276 150.778C423.902 156.454 412.886 159.106 413.211 163.387C414.001 173.577 405.588 178.416 403.171 182.557C402.473 183.767 401.451 178.649 401.079 177.253C399.498 171.111 402.845 164.69 402.752 164.457C405.448 163.713 411.77 160.688 408.563 150.731C405.123 139.983 399.545 152.918 399.545 152.918C399.545 152.918 397.407 147.846 397.918 144.31C398.987 137.144 391.364 135.237 381.695 137.424C377.512 138.354 375.653 133.189 372.306 134.306C366.774 136.167 361.336 133.469 357.942 136.4C356.13 137.935 353.155 135.004 351.016 134.306C343.672 131.654 346.043 125.186 351.063 118.626Z" fill="#023149"/>
<path d="M371.469 337.499C371.469 337.499 357.059 336.429 353.573 336.429C350.04 336.429 344.276 335.917 342.324 336.615C340.372 337.313 331.633 342.059 329.681 344.153C327.728 346.247 327.217 347.084 327.821 347.968C327.821 347.968 327.217 348.713 327.542 349.504C327.821 350.248 328.89 350.481 329.495 350.248C329.495 350.248 329.355 351.132 330.843 351.132C331.215 351.132 332.098 351.411 333.771 350.202C333.771 350.202 333.539 350.574 334.143 351.039C335.026 351.737 338.187 351.039 339.907 350.527C341.58 350.016 345.717 349.876 346.6 349.736C347.484 349.55 349.622 350.853 352.69 351.039C355.758 351.225 362.451 350.388 367.146 348.387C371.841 346.386 382.021 346.34 382.021 346.34C382.021 346.34 382.671 338.662 381.742 337.546C380.766 336.476 376.815 337.22 371.469 337.499Z" fill="#F3A7A8"/>
<path d="M443.657 198.423C438.172 195.771 431.664 192.7 424.971 193.817C406.006 196.981 407.4 216.569 418.231 232.901C447.376 276.872 458.206 312.466 456.905 317.957C455.278 324.797 473.081 327.682 476.614 326.472C480.1 325.262 493.998 321.586 493.998 314.142C494.045 299.624 489.583 275.383 486.282 263.052C481.587 245.65 473.778 229.877 461.553 215.36C456.672 209.637 451.094 202.052 443.657 198.423Z" fill="#EE3F3A"/>
<path d="M370.586 352.668C367.89 351.877 366.03 350.016 366.17 347.69C366.449 342.85 370.26 332.335 373.654 331.73C385.46 329.497 435.802 316.515 468.479 316.608C468.805 319.586 493.58 310.513 493.58 310.513C499.205 349.876 480.007 350.714 452.768 355.367C452.768 355.32 398.15 360.578 370.586 352.668Z" fill="#EE3F3A"/>
<path d="M356.037 358.577H228.859C228.254 358.577 227.743 358.205 227.557 357.646L196.181 261.098C195.902 260.214 196.553 259.283 197.482 259.283H322.476C324.381 259.283 326.055 260.493 326.659 262.308L357.385 356.762C357.663 357.693 357.013 358.577 356.037 358.577Z" fill="#8DD0BF"/>
<path d="M355.339 358.577H229.788C227.092 358.577 224.675 356.856 223.838 354.25L194.275 263.285C193.624 261.284 195.112 259.237 197.203 259.237H318.71C321.313 259.237 323.638 260.912 324.428 263.378L355.339 358.577Z" fill="#184656"/>
<path d="M278.921 308.838C278.921 313.491 273.436 317.26 266.649 317.26C259.863 317.26 254.378 313.491 254.378 308.838C254.378 304.185 259.863 300.416 266.649 300.416C273.436 300.37 278.921 304.185 278.921 308.838Z" fill="#8DD0BF"/>
<g opacity="0.75">
<path d="M154.021 108.575C154.021 108.575 157.367 107.923 158.622 105.644C159.877 103.317 160.714 92.2431 164.479 91.8243C168.244 91.4055 168.477 97.0821 168.477 97.0821C168.477 97.0821 168.895 72.5612 180.841 72.5612C192.788 72.5612 192.973 94.3834 192.973 94.3834C192.973 94.3834 192.137 87.6832 197.157 87.2644C202.177 86.8457 201.759 98.1523 201.759 98.1523C201.759 98.1523 202.177 92.7084 206.175 92.7084C210.172 92.7084 210.358 99.2225 210.591 101.316C210.823 103.41 222.537 108.854 222.537 108.854L154.021 108.575Z" fill="#00B5A3"/>
<path d="M164.526 110.483C164.526 110.483 167.501 110.017 168.616 108.389C169.732 106.76 170.476 98.8968 173.822 98.6176C177.169 98.3384 177.355 102.34 177.355 102.34C177.355 102.34 177.727 84.9845 188.279 84.9845C198.83 84.9845 199.016 100.386 199.016 100.386C199.016 100.386 198.273 95.6397 202.735 95.3605C207.197 95.0814 206.826 103.084 206.826 103.084C206.826 103.084 207.197 99.2225 210.73 99.2225C214.263 99.2225 214.449 103.829 214.635 105.318C214.821 106.807 225.186 110.669 225.186 110.669L164.526 110.483Z" fill="#FBB549"/>
<path d="M237.737 117.555C237.737 117.555 234.39 116.903 233.135 114.624C231.88 112.297 231.043 101.223 227.278 100.804C223.513 100.386 223.281 106.062 223.281 106.062C223.281 106.062 222.862 81.5411 210.916 81.5411C198.97 81.5411 198.784 103.363 198.784 103.363C198.784 103.363 199.621 96.6632 194.601 96.2444C189.58 95.8256 189.999 107.132 189.999 107.132C189.999 107.132 189.58 101.688 185.583 101.688C181.585 101.688 181.446 108.202 181.167 110.296C180.33 117.415 169.221 117.834 169.221 117.834L237.737 117.555Z" fill="url(#paint4_linear_4_3772)"/>
</g>
<path d="M284.174 57.7182C284.731 57.6717 285.289 57.6252 285.847 57.6252C296.91 57.4391 306.067 67.722 306.207 76.6557C306.253 80.285 304.487 83.1698 302.953 86.3803C301.279 89.9631 299.745 93.5924 298.165 97.2216C297.421 98.8967 296.213 100.804 295.98 102.573C295.934 102.852 295.934 103.131 295.934 103.41L277.294 103.689C277.201 102.945 277.015 102.247 276.69 101.595C273.854 95.5931 271.019 89.5908 267.951 83.6816C261.955 72.468 272.553 58.9745 284.174 57.7182Z" fill="#F9CB4B"/>
<path d="M276.736 87.7763C278.084 88.8465 279.711 88.7999 281.291 88.3346C281.57 89.4979 281.663 90.7542 281.756 91.9174C281.803 92.6153 281.896 93.2202 281.942 93.8251L283.476 104.108L284.406 103.968L282.872 93.6855C282.779 93.1272 282.732 92.5223 282.686 91.8243C282.593 90.6146 282.454 89.2652 282.175 88.0089C283.569 87.4506 284.778 86.613 285.521 86.0547C285.8 85.8686 286.126 85.6825 286.405 85.4498C286.451 85.4963 286.544 85.5429 286.591 85.5894C287.66 86.3804 289.147 87.3575 290.774 87.8693C290.774 88.0089 290.728 88.102 290.728 88.2416C290.542 89.4979 290.402 90.8007 290.263 92.0105L288.915 103.829L289.844 103.922L291.192 92.1035C291.332 90.8472 291.471 89.5909 291.657 88.3346C291.657 88.2416 291.704 88.1485 291.704 88.0555C292.354 88.1951 293.005 88.2416 293.656 88.195C294.632 88.1485 295.469 87.8693 296.073 87.3575C296.863 86.7526 297.235 85.729 297.003 84.8449C296.724 83.6817 295.422 82.9372 294.167 83.1233C293.145 83.3095 292.169 84.0539 291.611 85.1241C291.332 85.6825 291.146 86.2408 291.006 86.8457C289.519 86.3339 288.171 85.4498 287.195 84.7053C287.195 84.7053 287.148 84.7053 287.148 84.6588C287.613 84.1935 288.032 83.7282 288.403 83.1699C288.682 82.7511 289.101 82.0532 289.147 81.3087C289.24 80.0989 288.496 78.9357 287.334 78.5169C286.219 78.1447 284.871 78.61 284.22 79.5871C283.616 80.5177 283.662 81.8671 284.313 83.0303C284.685 83.6817 285.15 84.1935 285.661 84.6588C285.428 84.8449 285.196 84.9845 284.964 85.1241C284.406 85.5429 283.29 86.3339 281.989 86.8457C281.663 85.7755 281.152 84.7984 280.408 84.147C279.572 83.4025 278.456 83.1699 277.433 83.5421C276.55 83.8678 275.946 84.5192 275.806 85.3102C275.621 86.0082 275.667 86.8922 276.736 87.7763ZM291.797 87.2179C291.936 86.6596 292.076 86.1478 292.308 85.6825C292.773 84.8449 293.47 84.24 294.214 84.147C294.307 84.147 294.353 84.147 294.446 84.147C295.143 84.147 295.841 84.5658 295.98 85.2172C296.12 85.729 295.841 86.3804 295.329 86.7992C294.865 87.1714 294.26 87.3575 293.47 87.404C292.959 87.404 292.354 87.3575 291.797 87.2179ZM285.057 82.7976C284.592 81.9601 284.545 80.983 284.964 80.2851C285.289 79.7732 285.847 79.4941 286.451 79.4941C286.637 79.4941 286.823 79.5406 287.009 79.5871C287.753 79.8198 288.264 80.6573 288.171 81.4018C288.124 81.9601 287.799 82.4719 287.567 82.8442C287.195 83.356 286.776 83.8678 286.358 84.2866C285.847 83.8678 285.382 83.356 285.057 82.7976ZM276.597 85.6825C276.69 85.2172 277.061 84.7984 277.619 84.6123C278.317 84.3796 279.107 84.5192 279.665 85.0311C280.315 85.5894 280.734 86.4269 281.013 87.3575C279.711 87.7763 278.317 87.8228 277.294 86.9853C276.783 86.613 276.55 86.1478 276.597 85.6825Z" fill="#EE3F3A"/>
<path d="M277.154 103.317L295.841 103.038C295.841 103.317 295.841 103.597 295.841 103.922C295.887 106.481 296.584 109.785 295.469 112.158C294.307 114.624 291.843 119.323 288.636 119.37L284.917 119.417C281.756 119.463 277.898 114.019 277.387 111.227C277.294 110.855 277.294 110.483 277.294 110.064C277.247 108.017 277.573 105.504 277.154 103.317Z" fill="#EE3F3A"/>
<path d="M321.732 85.4036C321.964 85.3571 322.197 85.171 322.243 84.8918C322.29 84.5661 322.057 84.2404 321.732 84.1939L310.808 82.3792C310.483 82.3327 310.158 82.5653 310.111 82.891C310.065 83.2168 310.297 83.5425 310.622 83.589L321.546 85.4036C321.592 85.4036 321.685 85.4036 321.732 85.4036Z" fill="#F0A32F"/>
<path d="M309.925 66.4662C309.972 66.4662 310.018 66.4197 310.065 66.4197L320.942 61.3015C321.267 61.1619 321.36 60.7896 321.221 60.4639C321.081 60.1382 320.709 60.0452 320.384 60.1848L309.507 65.303C309.182 65.4426 309.089 65.8148 309.228 66.1405C309.368 66.4197 309.646 66.5593 309.925 66.4662Z" fill="#F0A32F"/>
<path d="M301.512 56.276C301.698 56.2294 301.837 56.1364 301.93 55.9968L307.508 46.4583C307.694 46.1791 307.601 45.8069 307.276 45.6207C306.997 45.4346 306.625 45.5277 306.439 45.8534L300.861 55.3919C300.675 55.6711 300.768 56.0433 301.094 56.2294C301.233 56.276 301.373 56.276 301.512 56.276Z" fill="#F0A32F"/>
<path d="M283.708 53.8567C284.034 53.8101 284.266 53.4844 284.22 53.1587L282.175 42.1313C282.128 41.8056 281.803 41.5729 281.477 41.6195C281.152 41.666 280.92 41.9917 280.966 42.3174L283.011 53.3449C283.058 53.7171 283.383 53.9032 283.708 53.8567Z" fill="#F0A32F"/>
<path d="M269.438 59.7655C269.578 59.719 269.717 59.6725 269.81 59.5329C270.043 59.2537 269.996 58.8815 269.717 58.6488L260.793 51.4833C260.514 51.2507 260.142 51.2972 259.909 51.5764C259.677 51.8555 259.723 52.2278 260.002 52.4604L268.927 59.6259C269.067 59.7655 269.252 59.8121 269.438 59.7655Z" fill="#FE912A"/>
<path d="M261.49 73.6313C261.769 73.5847 262.001 73.3056 262.001 73.0264C262.001 72.7007 261.722 72.4215 261.35 72.4215L250.334 72.7937C250.008 72.7937 249.729 73.0729 249.729 73.4451C249.729 73.7709 250.008 74.05 250.38 74.05L261.397 73.6778C261.443 73.6313 261.49 73.6313 261.49 73.6313Z" fill="#F0A32F"/>
<path d="M510.175 146.496C509.152 146.171 504.504 144.449 504.829 143.286C505.433 141.192 512.034 133.142 512.034 133.142C516.171 123.138 521.703 123.278 521.703 123.278C523.469 124.674 523.19 128.908 520.076 133.84L510.175 146.496Z" fill="#023444"/>
<path d="M501.203 186L501.343 190.56C501.343 190.56 500.088 191.444 498.879 190.746L499.065 186.605C499.112 186.651 501.296 185.907 501.203 186Z" fill="#221F1F"/>
<path d="M499.297 188.466C499.297 188.466 499.483 189.722 498.786 190.001C498.089 190.327 497.438 190.094 496.415 189.768C495.114 189.35 492.697 190.839 495.346 191.164C495.718 191.211 497.903 191.443 499.065 190.792C499.623 190.466 499.716 189.489 499.623 189.21L499.297 188.466Z" fill="#221F1F"/>
<path d="M511.29 186.511L511.151 191.071C511.151 191.071 509.849 191.908 508.687 191.117L509.105 187.023C509.152 187.069 511.383 186.418 511.29 186.511Z" fill="#221F1F"/>
<path d="M509.245 188.931C509.245 188.931 509.384 190.187 508.687 190.466C507.99 190.745 507.339 190.513 506.363 190.094C505.061 189.582 502.598 190.978 505.201 191.443C505.573 191.49 507.757 191.862 508.966 191.257C509.524 190.978 509.71 190.001 509.617 189.722L509.245 188.931Z" fill="#221F1F"/>
<path d="M521.703 122.72C516.311 126.814 515.706 140.122 514.172 149.753C514.126 149.939 514.126 151.289 514.219 151.614C514.637 153.103 518.216 154.546 524.259 154.453C529.651 154.36 534.16 153.057 535.276 151.289C535.322 151.242 535.322 151.196 535.322 151.149C535.555 150.684 535.648 150.172 535.601 149.567C535.322 145.845 535.322 142.308 534.532 139.238C531.836 125.046 529.465 123.278 529.279 123.324C528.396 122.813 526.444 121.975 524.863 122.208C523.004 122.487 521.889 122.58 521.703 122.72Z" fill="#E4E4E1"/>
<path d="M522.028 122.673C521.796 122.859 521.005 123.232 520.401 124.162C519.146 125.93 516.915 131.049 518.123 138.912C519.425 147.473 517.24 152.266 517.519 156.919C517.566 157.803 517.333 161.013 515.195 159.897C513.94 159.245 512.36 158.361 512.127 156.919C512.22 156.221 514.405 149.521 513.568 144.17C512.638 137.981 513.847 131.374 516.218 127.326C517.38 125.372 519.797 123.697 520.401 123.278C521.145 122.766 522.214 122.348 522.214 122.348C522.214 122.348 522.075 122.441 522.028 122.673Z" fill="#023444"/>
<path d="M530.255 152.591C528.861 149.567 500.971 150.125 497.345 151.614C496.276 152.08 495.114 153.848 494.928 155.383C494.603 156.826 494.51 158.64 494.696 160.594L495.021 164.41V164.456C495.718 172.646 496.973 182.603 498.136 187.209C498.693 187.628 500.367 187.349 501.529 187.07C502.18 186.93 502.691 186.186 502.737 185.302C503.063 180.742 503.621 172.552 502.83 160.594C508.408 161.06 516.171 161.06 518.728 161.199C523.748 161.432 530.023 157.896 530.255 155.337C530.302 155.337 530.255 152.591 530.255 152.591Z" fill="url(#paint5_linear_4_3772)"/>
<path d="M538.53 152.592C537.275 149.567 511.569 150.126 508.223 151.661C507.339 152.08 506.084 153.243 505.573 155.244C505.108 156.733 504.876 158.873 505.015 161.153L505.248 164.969V165.015C505.712 173.204 506.735 183.208 507.758 187.861C508.316 188.28 509.989 188.047 511.151 187.814C511.802 187.675 512.36 186.977 512.406 186.046C512.871 181.44 513.661 173.437 513.15 161.246C516.729 161.246 530.07 161.246 532.766 161.246C537.461 161.246 538.623 157.943 538.53 155.337C538.576 155.337 538.53 152.592 538.53 152.592Z" fill="#EE3F3A"/>
<path d="M527.373 145.984C526.676 148.311 524.166 157.524 527.466 158.827C531.417 160.409 541.225 158.687 539.645 154.499C538.576 151.708 539.18 147.52 539.18 147.52C539.18 147.52 539.598 139.61 538.576 133.282C537.786 128.21 532.998 123.511 526.862 122.161C526.211 122.347 526.583 122.72 526.955 122.952C527.234 123.138 527.373 123.418 527.466 123.743C528.024 126.07 526.444 128.164 527.187 131.048C528.721 136.818 528.489 140.354 527.373 145.984Z" fill="#023444"/>
<path d="M539.273 146.543C539.273 147.287 538.855 148.032 538.251 148.544C537.739 148.916 537.182 149.381 536.856 149.567C534.95 150.824 533.091 151.335 530.767 151.801C529.326 152.126 528.024 151.894 526.537 152.033C526.909 150.219 527.327 147.939 527.513 146.636C530.674 144.542 534.393 144.496 534.625 144.03C535.462 142.495 532.487 137.191 531.232 134.631C527.931 127.699 531.697 125.791 532.905 124.767C535.973 126.908 538.111 130.025 538.669 133.282C539.413 138.214 539.32 144.123 539.273 146.543Z" fill="#005679"/>
<path d="M519.704 117.182C519.704 117.182 518.82 116.577 518.495 115.879C518.17 115.135 518.449 114.437 518.449 114.437C518.449 114.437 517.379 113.785 517.984 112.994C518.588 112.157 522.26 112.25 522.26 112.25L519.704 117.182Z" fill="#023149"/>
<path d="M527.001 116.391C527.001 116.391 526.723 121.882 526.676 123.417C526.676 123.604 526.676 124.301 525.932 124.72C525.514 124.953 524.91 125.232 523.608 125.279C522.911 125.279 522.074 125.325 521.191 124.674C521.052 124.581 521.052 124.441 521.098 124.301C522.353 121.742 521.981 118.578 521.981 118.578L527.001 116.485" fill="#F3A7A8"/>
<path d="M521.098 124.302C521.982 121.836 522.028 119.742 522.028 119.742C522.028 119.742 526.444 119.091 526.397 119.184C526.304 121.138 525.189 123.046 521.098 124.302Z" fill="#DB9195"/>
<path d="M519.518 114.112C518.774 120.254 520.448 122.487 521.935 122.673C525.933 123.045 527.606 120.161 528.024 117.508C528.443 114.856 526.397 112.111 524.399 111.785C522.446 111.413 519.89 111.413 519.518 114.112Z" fill="#F3A7A8"/>
<path d="M529.744 116.299C529.186 115.461 530.209 114.624 529.512 113.74C528.443 112.39 528.489 111.599 527.513 111.367C526.072 111.041 525.979 109.738 523.655 109.878C522.121 110.017 521.563 110.855 521.052 110.529C520.587 110.203 520.215 110.017 519.89 109.924C518.635 110.529 518.216 112.297 518.17 113.646C518.449 113.786 518.728 113.926 518.914 113.786C519.518 113.274 520.448 113.74 521.424 113.414C521.982 113.228 522.307 114.112 523.051 113.972C524.724 113.6 526.072 113.926 525.886 115.182C525.793 115.787 526.165 116.671 526.165 116.671C526.165 116.671 527.141 114.437 527.745 116.299C528.303 118.02 527.188 118.579 526.723 118.672C526.723 118.718 526.165 119.835 526.444 120.905C526.49 121.138 526.676 122.022 526.816 121.836C527.234 121.138 528.675 120.3 528.536 118.532C528.489 117.788 530.395 117.322 529.744 116.299Z" fill="#023149"/>
<path d="M521.284 148.776C521.284 148.776 518.774 148.59 518.17 148.59C517.566 148.59 516.543 148.497 516.218 148.637C515.892 148.776 514.358 149.567 514.033 149.94C513.708 150.312 513.615 150.452 513.708 150.591C513.708 150.591 513.615 150.731 513.661 150.87C513.708 151.01 513.894 151.056 513.987 151.01C513.987 151.01 513.94 151.149 514.219 151.149C514.266 151.149 514.451 151.196 514.73 151.01C514.73 151.01 514.684 151.056 514.777 151.149C514.916 151.289 515.474 151.149 515.753 151.056C516.032 150.963 516.776 150.963 516.915 150.917C517.055 150.87 517.426 151.103 517.984 151.149C518.495 151.196 519.704 151.056 520.494 150.684C521.284 150.358 523.097 150.312 523.097 150.312C523.097 150.312 523.19 148.963 523.051 148.776C522.911 148.59 522.214 148.73 521.284 148.776Z" fill="#F3A7A8"/>
<path d="M533.835 124.627C532.905 124.162 531.743 123.65 530.581 123.836C527.28 124.395 527.513 127.791 529.419 130.63C534.485 138.261 536.345 144.449 536.112 145.426C535.833 146.636 538.901 147.101 539.552 146.915C540.156 146.729 542.573 146.077 542.573 144.775C542.573 142.262 541.783 138.028 541.225 135.888C540.435 132.863 539.041 130.118 536.949 127.605C536.066 126.535 535.136 125.232 533.835 124.627Z" fill="#023444"/>
<path d="M521.144 151.382C520.68 151.242 520.354 150.917 520.354 150.498C520.401 149.66 521.051 147.846 521.656 147.706C523.701 147.334 532.44 145.054 538.111 145.1C538.157 145.612 542.48 144.03 542.48 144.03C543.456 150.87 540.11 151.01 535.415 151.847C535.415 151.847 525.932 152.778 521.144 151.382Z" fill="#023444"/>
<path d="M518.588 152.405H496.509C496.416 152.405 496.323 152.359 496.276 152.219L490.838 135.469C490.791 135.329 490.884 135.143 491.07 135.143H512.778C513.103 135.143 513.382 135.376 513.521 135.655L518.867 152.08C518.867 152.266 518.774 152.405 518.588 152.405Z" fill="#EE3F3A"/>
<path d="M532.719 152.033H511.708C511.569 152.033 511.43 151.893 511.43 151.754V151.521C511.43 151.382 511.569 151.242 511.708 151.242H532.719C532.858 151.242 532.998 151.382 532.998 151.521V151.754C532.998 151.893 532.858 152.033 532.719 152.033Z" fill="#EE3F3A"/>
<path d="M518.495 152.405H496.695C496.23 152.405 495.812 152.126 495.672 151.661L490.512 135.841C490.419 135.515 490.652 135.143 491.024 135.143H512.127C512.592 135.143 512.964 135.422 513.103 135.888L518.495 152.405Z" fill="#00B5A3"/>
<path d="M532.672 152.405H511.43V151.614H532.998V152.08C532.998 152.266 532.858 152.405 532.672 152.405Z" fill="#00B5A3"/>
<path d="M506.735 143.798C506.735 144.589 505.759 145.24 504.597 145.24C503.435 145.24 502.459 144.589 502.459 143.798C502.459 143.007 503.435 142.355 504.597 142.355C505.759 142.355 506.735 142.96 506.735 143.798Z" fill="#E4E4E1"/>
<path d="M112.558 110.948L149.326 92.1501L119.716 103.782L112.558 110.948Z" fill="url(#paint6_linear_4_3772)"/>
<path d="M108.514 91.3123C108.514 91.3123 141.191 92.6151 149.326 92.1498C149.326 92.1498 129.152 111.273 123.993 118.16L119.716 103.782L117.485 99.7806L108.514 91.3123Z" fill="#C1D9E5"/>
<path d="M112.558 110.948L119.716 103.782L149.326 92.1501L117.485 99.781L112.558 110.948Z" fill="url(#paint7_linear_4_3772)"/>
<path d="M111.581 111.878L111.256 111.413C111.256 111.413 110.745 111.785 109.954 112.437L110.326 112.855C111.07 112.251 111.581 111.878 111.581 111.878Z" fill="#C1D9E5"/>
<path d="M115.858 180.463L115.3 180.37C115.44 179.486 115.533 178.555 115.579 177.671C115.579 177.485 115.626 177.252 115.626 177.066L116.183 177.113C116.183 177.299 116.137 177.531 116.137 177.717C116.044 178.601 115.951 179.532 115.858 180.463ZM115.719 173.762C115.719 172.646 115.672 171.529 115.579 170.412L116.137 170.366C116.23 171.482 116.276 172.599 116.276 173.762H115.719ZM115.161 167.109C114.975 165.992 114.742 164.922 114.464 163.852L114.975 163.712C115.254 164.782 115.486 165.899 115.672 167.016L115.161 167.109ZM113.441 160.688C113.069 159.664 112.604 158.594 112.139 157.617L112.651 157.384C113.116 158.408 113.58 159.431 113.952 160.502L113.441 160.688ZM110.559 154.685C110.001 153.755 109.397 152.824 108.7 151.894L109.164 151.568C109.815 152.498 110.466 153.429 111.024 154.406L110.559 154.685ZM106.794 149.148C106.143 148.171 105.585 147.241 105.027 146.264L105.492 145.984C106.004 146.915 106.608 147.892 107.212 148.823L106.794 149.148ZM105.864 117.788L105.399 117.462C106.05 116.531 106.747 115.647 107.538 114.81L107.956 115.182C107.212 116.019 106.468 116.904 105.864 117.788ZM103.494 143.239C103.029 142.169 102.61 141.145 102.238 140.075L102.75 139.889C103.075 140.913 103.494 141.936 103.958 143.006L103.494 143.239ZM102.75 123.65L102.238 123.464C102.61 122.44 103.075 121.37 103.633 120.347L104.098 120.626C103.587 121.603 103.122 122.627 102.75 123.65ZM101.355 136.818C101.123 135.701 100.937 134.585 100.844 133.468L101.402 133.421C101.495 134.492 101.634 135.608 101.867 136.725L101.355 136.818ZM101.402 130.118L100.844 130.071C100.937 128.955 101.076 127.791 101.309 126.721L101.867 126.814C101.588 127.931 101.448 129.001 101.402 130.118Z" fill="#C1D9E5"/>
<path d="M229.974 322.843H77.2305V326.472H79.3222C85.0397 326.472 89.688 331.125 89.688 336.848V344.432C89.688 350.156 85.0397 354.808 79.3222 354.808H77.2305V358.438H229.974C237.179 358.438 242.99 352.622 242.99 345.41V335.918C242.99 328.705 237.179 322.843 229.974 322.843Z" fill="url(#paint8_linear_4_3772)"/>
<path d="M168.105 326.472H79.8802C83.8313 328.054 87.8753 331.87 87.8753 336.337V344.107C87.8753 349.97 84.2031 354.762 79.8802 354.762H168.105C173.869 354.762 178.564 350.109 178.564 344.386V336.848C178.564 331.125 173.869 326.472 168.105 326.472Z" fill="#9BBDC9"/>
<path d="M87.8753 340.058V344.106C87.8753 349.969 84.2031 354.762 79.8802 354.762H168.105C173.869 354.762 178.564 350.109 178.564 344.385V340.058H87.8753Z" fill="#B3D6E0"/>
<path d="M169.314 322.843H77.2305V326.472H168.105C173.869 326.472 178.564 331.125 178.564 336.848V344.386C178.564 350.109 173.869 354.762 168.105 354.762H77.2305V358.391H169.314C176.565 358.391 182.422 352.575 182.422 345.363V335.871C182.422 328.705 176.565 322.843 169.314 322.843Z" fill="#005679"/>
<path d="M210.358 293.622H84.9932V296.6H86.7131C91.4079 296.6 95.2195 300.416 95.2195 305.115V311.304C95.2195 316.003 91.4079 319.818 86.7131 319.818H84.9932V322.796H210.358C216.262 322.796 221.049 318.004 221.049 312.095V304.324C221.049 298.415 216.262 293.622 210.358 293.622Z" fill="url(#paint9_linear_4_3772)"/>
<path d="M159.552 296.6H87.1779C90.4318 297.903 93.7321 301.02 93.7321 304.696V311.07C93.7321 315.91 90.7107 319.818 87.1779 319.818H159.552C164.294 319.818 168.105 316.003 168.105 311.303V305.115C168.152 300.415 164.294 296.6 159.552 296.6Z" fill="#9BBDC9"/>
<path d="M93.7321 307.767V311.117C93.7321 315.956 90.7107 319.865 87.1779 319.865H159.552C164.294 319.865 168.105 316.049 168.105 311.35V307.767H93.7321Z" fill="#B3D6E0"/>
<path d="M160.575 293.622H84.9932V296.6H159.552C164.294 296.6 168.105 300.416 168.105 305.115V311.304C168.105 316.003 164.247 319.818 159.552 319.818H84.9932V322.796H160.575C166.525 322.796 171.359 318.004 171.359 312.095V304.324C171.359 298.415 166.525 293.622 160.575 293.622Z" fill="#0A87B1"/>
<path d="M133.847 318.05C133.847 318.05 136.404 317.445 136.404 315.445C136.404 312.932 136.404 307.721 136.404 307.721H129.245C129.245 307.721 129.245 312.932 129.245 315.165C129.245 317.445 126.875 318.004 126.875 318.004C126.875 318.004 130.64 318.236 132.406 316.236C132.406 316.282 133.15 316.701 133.847 318.05Z" fill="#EE3F3A"/>
<path d="M214.17 210.289L213.566 209.451C213.426 209.265 213.101 208.986 212.822 209.079C212.775 209.126 212.682 209.126 212.636 209.172C212.775 209.498 213.333 210.568 213.519 210.987C213.705 211.405 215.193 212.941 215.193 212.941L215.1 214.383L217.377 214.151L217.284 212.941L217.842 211.545L217.749 208.66L217.517 208.381C217.47 208.335 217.377 208.241 217.284 208.241L217.005 208.195L216.634 207.73C216.541 207.637 216.448 207.59 216.308 207.59L215.936 207.637C215.843 207.637 215.75 207.637 215.704 207.59L215.425 207.404C215.378 207.404 215.332 207.357 215.286 207.404C215.007 207.45 214.774 207.683 214.774 207.683L214.216 205.217C214.17 205.077 214.123 204.891 214.03 204.752L213.938 204.566C213.845 204.38 213.566 204.426 213.519 204.612C213.426 204.891 213.38 205.217 213.426 205.543L213.845 208.241C213.798 208.195 213.752 209.126 214.17 210.289Z" fill="#F5A8A9"/>
<path d="M204.873 314.886L206.221 321.772C206.221 321.772 208.22 323.029 209.986 321.865L208.174 315.677C208.174 315.677 204.78 314.747 204.873 314.886Z" fill="#1D1E50"/>
<path d="M208.22 318.422C208.22 318.422 209.01 320.329 210.08 320.748C211.149 321.167 212.125 320.795 213.659 320.19C215.611 319.445 219.423 321.493 215.425 322.237C214.821 322.33 211.52 322.842 209.708 321.958C208.824 321.539 208.081 320.143 208.22 319.678V318.422Z" fill="#1D1E50"/>
<path d="M180.656 315.119L180.47 322.098C180.47 322.098 182.422 323.448 184.235 322.377L183.91 316.096C183.91 316.096 180.563 314.979 180.656 315.119Z" fill="#1D1E50"/>
<path d="M183.445 320.656C184.746 320.051 187.21 322.471 184.56 322.843C184.188 322.89 182.004 323.122 180.841 322.099C180.284 321.54 182.468 321.075 183.445 320.656Z" fill="#1D1E50"/>
<path d="M209.522 274.871C209.522 274.871 209.01 261.098 207.337 248.908C206.5 246.907 197.715 247.186 197.668 247.186C194.507 248.768 194.229 254.491 194.833 257.841C195.53 261.517 197.529 277.058 198.598 280.966C199.807 289.388 201.573 307.535 203.339 314.561C203.665 315.817 204.827 316.654 206.082 316.561C207.244 316.468 208.127 316.422 208.824 316.189C209.336 316.05 210.219 315.119 210.265 314.561C210.591 308.093 209.847 284.503 209.522 274.871Z" fill="#DD6C4A"/>
<path d="M201.619 250.722C202.828 245.185 188.79 245.418 188.79 245.418C187.86 245.697 185.025 246.442 184.746 253.7C184.56 258.353 182.329 274.266 182.887 281.478C179.493 297.019 179.168 307.628 179.075 313.258C179.075 314.235 179.586 315.119 180.47 315.398C181.26 315.677 182.236 316.003 183.119 316.189C184.095 316.375 185.071 315.771 185.397 314.747C187.814 307.488 192.927 284.875 192.881 283.619C195.019 278.687 196.832 271.754 198.273 266.775C199.481 262.262 200.225 256.911 201.619 250.722Z" fill="#F48154"/>
<path d="M199.016 212.941C197.947 213.36 197.11 219.036 197.622 220.246C198.505 222.433 203.014 230.017 203.014 230.017C209.847 239.416 213.333 235.88 213.333 235.88C215.099 234.205 215.006 232.018 211.102 226.993L199.016 212.941Z" fill="#016B80"/>
<path d="M217.005 214.057L216.029 213.87C215.053 213.684 214.03 214.429 213.798 215.545C213.38 217.593 212.636 220.524 211.381 223.455V223.502L210.172 226.34C208.313 230.621 207.337 234.623 209.94 235.925C209.94 235.925 214.077 239.694 216.68 228.388L217.238 225.317V225.27C217.888 221.78 218.307 218.291 218.446 216.057C218.493 215.034 217.888 214.196 217.005 214.057Z" fill="#016B80"/>
<path d="M200.179 197.585C200.179 197.585 200.504 200.237 200.039 202.052C199.946 202.424 199.482 202.564 199.156 202.285C198.319 201.494 196.879 199.958 196.971 199.028C197.111 197.725 199.482 195.491 200.179 197.585Z" fill="#23233B"/>
<path d="M192.509 207.543L191.812 210.66L192.277 212.289C193.02 212.94 198.226 216.988 198.226 215.639L197.483 211.451L197.204 209.171C197.204 209.171 198.691 208.985 199.017 207.636C199.388 206.147 200.318 201.354 198.877 199.772C198.226 198.609 196.925 198.33 196.925 198.33C196.925 198.33 193.811 197.027 192.462 199.26C191.161 201.494 191.022 202.843 190.882 203.727C190.836 204.565 191.812 207.077 192.509 207.543Z" fill="#F5A8A9"/>
<path d="M192.834 203.681L192.974 200.377C192.974 200.377 196.646 201.587 199.063 200.052C203.804 199.075 202.224 197.307 201.201 196.655C199.528 195.585 198.087 195.818 197.669 196.562C197.669 196.562 190.417 194.189 189.627 201.448C189.627 201.448 188.651 201.727 188.744 203.123C188.79 204.146 190.65 206.147 191.626 207.171C191.812 207.357 192.184 207.217 192.137 206.892L191.951 205.728C191.951 205.728 190.696 204.007 191.533 203.03C192.37 202.146 192.834 203.681 192.834 203.681Z" fill="#023149"/>
<path d="M197.25 209.171L197.808 213.312C197.808 213.312 195.484 211.218 194.601 208.613C194.601 208.659 195.716 209.45 197.25 209.171Z" fill="#D08F8F"/>
<path d="M184.839 216.244C185.954 213.267 189.022 212.289 190.835 211.824L191.16 210.242C191.207 209.963 191.579 209.823 191.811 210.01C192.741 210.894 194.879 211.405 197.854 210.475C198.133 210.475 198.412 210.754 198.412 211.173C198.412 211.359 198.505 211.964 198.551 212.522C198.598 212.522 198.644 212.569 198.644 212.569C201.34 214.523 202.13 217.687 203.246 220.804C205.152 226.155 209.382 249.28 206.453 250.583C204.362 251.514 189.719 251.746 185.211 251.374C183.863 251.281 183.956 249.28 183.956 249.28C184.095 245.186 183.212 220.665 184.839 216.244Z" fill="#023444"/>
<path d="M187.442 212.754C190.975 212.382 188.79 217.454 187.628 221.176C184.514 231.273 185.815 234.484 186.326 235.554C186.931 236.857 184.978 242.161 184.281 242.207C181.864 242.44 179.54 240.486 178.889 239.09C177.774 236.624 177.541 232.576 177.681 229.924C177.82 226.667 179.122 222.712 180.795 219.362C181.725 217.547 184.839 213.034 187.442 212.754Z" fill="#016B80"/>
<path d="M200.504 231.366C200.597 231.413 201.015 231.645 200.597 232.39C200.132 233.134 199.992 233.227 199.992 233.227C199.992 233.227 201.666 233.227 202.131 233.274C202.595 233.32 203.757 233.46 203.99 233.553C204.222 233.646 204.687 233.739 204.687 234.018C204.687 234.205 204.408 234.298 204.222 234.344C204.455 234.344 204.687 234.391 204.78 234.391C205.013 234.484 205.338 234.577 205.338 234.856C205.338 235.135 204.92 235.275 204.78 235.321C204.641 235.368 204.362 235.368 204.083 235.414C204.129 235.414 204.129 235.414 204.176 235.414C204.362 235.461 204.734 235.554 204.734 235.74C204.734 235.973 204.269 236.066 204.129 236.112C204.036 236.112 203.804 236.159 203.432 236.205C203.618 236.252 203.804 236.298 203.804 236.438C203.804 236.624 203.386 236.764 203.293 236.764C203.06 236.81 201.945 237.089 200.922 237.043C200.69 237.089 200.457 237.089 199.806 237.043C199.156 236.996 198.458 236.81 198.179 236.671C197.901 236.531 197.389 236.159 197.389 236.159L196.971 236.112L196.924 233.693H197.482C197.482 233.693 197.715 233.32 197.947 233.181C198.179 233.041 198.737 232.716 199.016 232.623C199.295 232.529 199.62 232.343 199.853 231.971C199.992 231.692 200.411 231.366 200.504 231.366Z" fill="#F5A8A9"/>
<path d="M196.692 237.648C197.018 237.369 197.808 236.81 197.668 236.345C197.436 235.414 197.111 233.367 196.646 233.414C195.019 233.553 186.28 235.601 181.678 236.485C179.308 236.81 178.796 238.858 179.029 239.369C179.819 241.091 180.656 243.045 184.095 242.766C184.095 242.766 193.439 240.486 196.692 237.648Z" fill="#016B80"/>
<path d="M160.203 185.023C160.203 185.023 159.691 185.07 159.645 185.488C159.598 185.861 159.691 186.838 159.97 187.443C160.249 188.048 160.296 188.699 161.365 188.745C162.434 188.792 164.34 187.768 164.34 187.35C164.34 186.931 163.457 185.907 163.457 185.907L162.899 185.163C162.899 185.163 161.458 183.953 160.203 185.023Z" fill="#F6A9A9"/>
<path d="M150.813 240.765C150.999 244.441 151.278 249.094 150.813 253.096C150.906 253.84 150.953 254.631 150.906 255.469C150.906 255.469 148.536 282.595 147.466 287.807C146.351 288.644 144.817 287.434 144.817 287.434C143.887 282.27 141.981 268.916 142.121 259.796C142.121 259.749 142.121 259.749 142.121 259.749L142.167 255.515C142.167 254.817 142.214 254.119 142.307 253.468C141.191 251.188 150.72 238.346 150.813 240.765Z" fill="#F6A9A9"/>
<path d="M151.51 215.267C152.44 217.78 152.394 220.897 152.533 223.457C152.719 227.365 152.254 245.744 151.743 249.978C151.836 250.769 150.302 279.711 149.186 285.248C147.699 286.55 143.887 285.154 143.887 285.154C141.842 279.664 142.121 251.188 142.214 250.49C140.912 248.117 140.169 231.041 138.867 226.016C138.774 225.597 138.728 216.989 138.635 216.57C144.027 215.36 146.165 216.849 151.51 215.267Z" fill="#005679"/>
<path d="M148.164 182.511C149.186 183.953 150.488 185.954 150.953 186.512C151.417 187.071 152.161 188.327 151.696 189.816C151.231 191.258 148.117 192.608 146.165 191.956C144.213 191.351 141.424 190.002 141.238 186.698C141.052 183.395 141.377 177.02 141.377 177.02L143.608 175.578C143.562 175.578 147.141 181.068 148.164 182.511Z" fill="#23233B"/>
<path d="M163.131 187.582C163.224 187.722 161.225 188.745 161.272 188.792C162.62 191.025 163.503 197.54 163.735 199.401C163.735 199.587 163.596 199.726 163.456 199.68C161.318 199.168 150.999 186.698 147.001 185.395C146.072 185.116 148.628 193.538 148.721 193.724C149.93 195.539 153.091 199.494 154.95 200.657C162.899 205.45 165.641 205.077 167.501 204.1C169.592 202.983 168.477 199.261 167.919 197.958C167.036 195.725 164.665 189.536 163.131 187.582Z" fill="#EE3F3A"/>
<path d="M144.863 286.69L144.724 289.621L150.255 291.901L147.466 286.922L144.863 286.69Z" fill="#F6A9A9"/>
<path d="M153.648 293.856L148.489 293.716C148.024 293.716 147.606 293.53 147.28 293.204L145.235 291.064L145.142 293.623H144.352L143.748 290.692C143.608 290.04 143.748 289.389 144.119 288.831L144.538 288.226C144.631 288.086 144.863 288.04 145.003 288.179L147.885 290.645C148.442 291.11 149.14 291.436 149.837 291.529L150.441 291.622C150.859 291.669 151.324 291.808 151.743 291.948L152.533 292.274C152.626 292.32 152.765 292.413 152.905 292.553C153.137 292.739 153.323 292.972 153.463 293.204L153.741 293.67C153.834 293.716 153.741 293.856 153.648 293.856Z" fill="#23233B"/>
<path d="M127.665 252.305C127.293 253.189 126.921 254.166 126.642 255.189L125.526 259.47C125.526 259.517 125.526 259.517 125.526 259.563C123.667 268.822 121.529 281.06 120.971 286.736C120.971 286.736 122.83 287.713 124.178 287.155C126.549 282.13 135.148 257.376 135.148 257.376C135.613 255.562 135.846 253.84 135.799 252.351H127.665V252.305Z" fill="#F6A9A9"/>
<path d="M121.389 285.434L120.738 289.016L124.271 293.111L128.362 293.157L125.805 291.064C125.526 290.831 125.34 290.505 125.247 290.133L124.55 286.085L121.389 285.434Z" fill="#F6A9A9"/>
<path d="M123.063 293.669L122.505 293.437C122.086 293.251 121.714 292.878 121.529 292.46L120.366 289.575L119.297 292.041L118.554 291.715L119.065 288.598C119.204 287.9 119.576 287.295 120.134 286.923L120.785 286.504C120.924 286.411 121.157 286.457 121.25 286.597L121.9 288.737C122.272 289.435 122.877 290.878 123.574 291.25L125.015 291.855C125.666 292.041 126.363 291.436 126.781 291.483L128.269 292.32C129.105 292.878 129.291 293.39 129.291 293.809L123.063 293.669Z" fill="#23233B"/>
<path d="M129.105 214.104C128.92 214.523 125.154 222.153 127.525 231.459C127.757 241.324 127.339 250.816 127.153 251.42C127.153 251.42 121.296 275.011 121.203 283.293C121.203 283.293 124.457 285.899 126.317 284.596C129.942 278.826 136.357 253.98 136.357 253.98C136.868 252.072 143.469 216.198 143.422 214.569L129.105 214.104Z" fill="#0488B2"/>
<path d="M127.525 217.314C127.525 217.314 144.352 222.2 152.394 218.477C152.394 218.477 150.255 204.472 150.581 202.332C150.906 200.191 153.37 199.865 153.323 197.539C153.23 194.189 150.162 189.396 147.699 186C145.793 184.232 144.399 183.999 144.259 183.859C142.911 183.441 141.424 183.534 140.122 183.627C136.496 184.092 135.613 184.557 134.033 186.698C131.476 191.723 133.521 199.54 132.778 207.357C130.593 210.521 127.525 217.314 127.525 217.314Z" fill="#EE3F3A"/>
<path d="M137.984 186.465C137.984 186.465 136.543 185.209 134.498 186.744C132.452 188.279 128.269 196.841 126.456 198.237C124.829 199.493 116.602 193.258 115.161 192.095C115.021 192.002 114.835 192.002 114.696 192.095L113.348 193.165C113.208 193.258 113.162 193.491 113.301 193.63C114.556 195.305 121.668 204.472 125.991 204.984C129.338 205.402 130.221 203.262 132.452 200.703C134.684 198.097 138.681 191.537 139.285 189.722C139.89 187.861 137.984 186.465 137.984 186.465Z" fill="#EE3F3A"/>
<path d="M113.394 193.399L112.65 192.794C112.232 192.515 111.907 192.468 111.721 192.468C111.395 192.515 110.884 192.561 110.512 192.654C109.954 192.794 108.281 192.282 108.095 192.235C107.863 192.142 106.887 191.817 107.165 191.491C106.84 191.305 106.84 191.072 106.933 190.979C106.747 190.886 106.608 190.793 106.654 190.56C106.701 190.328 107.212 190.374 107.212 190.374C107.212 190.374 106.84 190.002 107.956 189.956C108.978 189.956 110.187 190.049 110.187 190.049L109.861 189.769C109.629 189.63 109.443 189.258 109.629 189.258L110.605 189.397C110.745 189.397 110.931 189.444 111.07 189.537L112.743 190.281C112.79 190.328 112.836 190.328 112.883 190.374L115.068 192.096C115.114 192.189 114.928 192.98 113.394 193.399Z" fill="#F6A9A9"/>
<path d="M146.537 174.833C146.537 174.833 147.141 177.951 147.559 178.602C147.978 179.253 148.257 180.184 148.21 181.161C148.21 182.045 148.071 182.557 146.769 182.604C145.375 182.604 145.654 182.557 145.654 182.557C145.654 182.557 145.561 184.232 145.793 185.023C145.979 185.581 145.979 185.581 146.49 186.512C146.676 186.884 146.816 187.396 146.537 187.675C146.118 188.14 145.421 188.559 144.491 188.42C142.957 188.187 140.959 186.698 140.959 186.698L141.47 176.927C141.47 176.927 144.213 174.182 144.77 174.368C145.328 174.554 146.537 174.833 146.537 174.833Z" fill="#F6A9A9"/>
<path d="M143.051 181.719C143.051 181.719 144.027 183.441 145.7 184.418C145.7 184.418 145.7 183.627 145.7 182.557C145.7 182.604 144.724 182.557 143.051 181.719Z" fill="#DB9195"/>
<path d="M143.934 182.324C143.934 182.324 144.677 185.209 144.445 186.605C144.212 188.001 144.212 189.862 142.307 190.979C140.447 192.095 136.915 192.607 134.916 191.118C132.917 189.629 132.266 186.233 134.033 184.604C135.799 182.976 137.426 183.115 137.519 181.114C137.658 179.114 136.403 177.857 137.658 175.857C138.913 173.856 139.936 173.716 141.284 173.577C142.679 173.437 142.772 173.577 143.562 172.925C144.305 172.274 145.793 171.809 146.816 172.181C147.838 172.553 148.582 173.204 148.582 173.391C148.582 173.577 148.814 174.74 146.723 175.438C146.723 175.438 146.118 176.555 144.027 176.601C143.004 176.741 142.353 177.764 142.586 178.695C142.864 179.672 143.748 181.673 143.934 182.324Z" fill="#23233B"/>
<path d="M161.504 185.349C161.411 185.442 161.272 185.581 161.272 185.767C161.272 185.907 161.411 186.093 161.551 186.047C161.365 186.14 161.225 186.326 161.225 186.512C161.225 186.698 161.411 186.884 161.597 186.838C161.458 186.884 161.365 187.07 161.458 187.256C161.504 187.396 161.69 187.489 161.83 187.489C161.969 187.489 162.155 187.442 162.294 187.396C162.248 187.582 162.387 187.815 162.573 187.908C162.759 188.001 162.992 187.954 163.178 187.908C163.363 187.861 163.549 187.722 163.735 187.629C163.921 187.536 164.154 187.489 164.293 187.349C164.433 187.21 164.479 186.931 164.293 186.791C164.247 186.745 164.2 186.745 164.2 186.698C164.154 186.651 164.2 186.605 164.247 186.558C164.34 186.279 164.2 185.907 163.875 185.814C164.061 185.674 164.014 185.395 163.875 185.209C163.735 185.023 163.503 184.976 163.271 185.023C163.41 184.93 163.503 184.697 163.41 184.511C163.131 183.674 161.83 185.023 161.504 185.349Z" fill="#F6A9A9"/>
<path d="M161.132 185.768C161.179 185.768 161.272 186 161.272 186C161.365 186.094 161.411 186.14 161.504 186.187C161.69 186.233 162.062 186.233 162.248 185.814C162.387 185.489 162.387 184.977 162.248 184.651C161.876 184.884 161.551 185.209 161.411 185.349C161.272 185.442 161.179 185.582 161.132 185.768Z" fill="#DB9195"/>
<path d="M161.923 185.348C161.969 185.488 162.016 185.627 162.016 185.767C162.016 185.907 161.923 186.046 161.783 186.093C161.69 186.139 161.644 186.139 161.551 186.093C161.226 186.093 160.947 185.953 160.668 185.767C160.621 185.721 161.133 186 160.714 186.837C160.621 186.977 160.017 187.023 160.017 186.418C160.017 186.325 159.878 185.721 159.831 185.674C159.785 185.534 159.831 185.348 159.878 185.255C159.971 185.116 160.064 185.023 160.203 184.93C160.9 184.511 161.597 184.604 161.923 185.348Z" fill="#F6A9A9"/>
<path d="M419.091 60.6497C424.858 40.7578 413.423 19.9527 393.551 14.1802C373.679 8.40772 352.895 19.8538 347.128 39.7458C341.361 59.6377 352.796 80.4428 372.668 86.2153C392.54 91.9878 413.325 80.5417 419.091 60.6497Z" fill="#F48154"/>
<path d="M409.922 53.0432C411.476 38.2207 400.732 24.9432 385.924 23.3872C371.116 21.8312 357.852 32.5858 356.298 47.4083C354.743 62.2309 365.487 75.5084 380.295 77.0644C395.103 78.6204 408.367 67.8658 409.922 53.0432Z" fill="#FFDD4D"/>
<path d="M384.656 63.6776C392.078 62.8288 397.407 56.1181 396.559 48.6887C395.711 41.2594 389.007 35.9248 381.585 36.7735C374.163 37.6223 368.834 44.333 369.682 51.7623C370.53 59.1917 377.234 64.5263 384.656 63.6776Z" fill="#F8A05B"/>
<path d="M391.439 51.1132C391.926 46.5135 388.595 42.39 384 41.9029C379.405 41.4158 375.285 44.7497 374.799 49.3493C374.312 53.949 377.643 58.0726 382.238 58.5597C386.833 59.0467 390.952 55.7128 391.439 51.1132Z" fill="#115B78"/>
<path d="M413.769 19.9365L412.095 11.282L424.367 -1.00171L426.04 7.65275L413.769 19.9365Z" fill="#EE3F3A"/>
<path d="M414.001 20.1691L422.647 21.8442L434.918 9.56043L426.272 7.88538L414.001 20.1691Z" fill="#F48154"/>
<path d="M426.935 7.65762L426.278 6.99951L382.82 50.4945L383.477 51.1526L426.935 7.65762Z" fill="#047396"/>
<path d="M198.988 205.398C198.988 205.398 198.359 204.785 197.82 204.785C197.28 204.738 195.797 204.409 194.988 205.256C194.179 206.104 193.864 205.822 193.594 205.351C193.325 204.88 192.471 201.347 192.111 201.017C191.751 200.734 192.381 204.079 192.381 204.079C192.381 204.079 192.695 204.691 192.785 205.209C192.875 205.727 193.055 206.104 193.01 206.67C192.965 207.188 193.145 208.036 193.415 208.271C193.684 208.554 194.493 209.119 195.842 208.978C197.146 208.836 197.595 208.836 198.089 208.083C198.629 207.282 199.078 206.434 198.988 205.398Z" fill="#023149"/>
<rect x="2" y="2" width="536" height="346" rx="14" stroke="#92CFCF" stroke-width="4"/>
</g>
<defs>
<linearGradient id="paint0_linear_4_3772" x1="220.801" y1="353.192" x2="490.18" y2="83.8131" gradientUnits="userSpaceOnUse">
<stop stop-color="#93DAD3"/>
<stop offset="0.8547" stop-color="#F2F2F2"/>
</linearGradient>
<linearGradient id="paint1_linear_4_3772" x1="215.071" y1="175.9" x2="299.936" y2="212.419" gradientUnits="userSpaceOnUse">
<stop offset="0.1453" stop-color="#F2F2F2"/>
<stop offset="0.2547" stop-color="#E9E9E9"/>
<stop offset="0.4022" stop-color="#E6E6E6"/>
<stop offset="0.5858" stop-color="#E0E0E0"/>
<stop offset="0.8323" stop-color="#CFCFCF"/>
<stop offset="0.8659" stop-color="#CCCCCC"/>
</linearGradient>
<linearGradient id="paint2_linear_4_3772" x1="486.616" y1="262.96" x2="563.471" y2="199.198" gradientUnits="userSpaceOnUse">
<stop offset="0.1453" stop-color="#F2F2F2"/>
<stop offset="0.2547" stop-color="#E9E9E9"/>
<stop offset="0.4022" stop-color="#E6E6E6"/>
<stop offset="0.5858" stop-color="#E0E0E0"/>
<stop offset="0.8323" stop-color="#CFCFCF"/>
<stop offset="0.8659" stop-color="#CCCCCC"/>
</linearGradient>
<linearGradient id="paint3_linear_4_3772" x1="198.244" y1="409.18" x2="420.378" y2="349.718" gradientUnits="userSpaceOnUse">
<stop offset="0.1453" stop-color="#EE3F3A"/>
<stop offset="0.1855" stop-color="#DD3B36"/>
<stop offset="0.2651" stop-color="#B12F2B"/>
<stop offset="0.3765" stop-color="#6A1C1A"/>
<stop offset="0.5143" stop-color="#0A0302"/>
<stop offset="0.5279"/>
</linearGradient>
<linearGradient id="paint4_linear_4_3772" x1="169.217" y1="99.62" x2="237.731" y2="99.62" gradientUnits="userSpaceOnUse">
<stop stop-color="#005679"/>
<stop offset="0.2469" stop-color="#007495"/>
<stop offset="0.5559" stop-color="#0093B3"/>
<stop offset="0.818" stop-color="#00A6C5"/>
<stop offset="1" stop-color="#00ADCB"/>
</linearGradient>
<linearGradient id="paint5_linear_4_3772" x1="493.774" y1="170.844" x2="532.359" y2="160.516" gradientUnits="userSpaceOnUse">
<stop offset="0.1453" stop-color="#EE3F3A"/>
<stop offset="0.1855" stop-color="#DD3B36"/>
<stop offset="0.2651" stop-color="#B12F2B"/>
<stop offset="0.3765" stop-color="#6A1C1A"/>
<stop offset="0.5143" stop-color="#0A0302"/>
<stop offset="0.5279"/>
</linearGradient>
<linearGradient id="paint6_linear_4_3772" x1="114.143" y1="113.069" x2="146.897" y2="88.8515" gradientUnits="userSpaceOnUse">
<stop stop-color="#005679"/>
<stop offset="0.1825" stop-color="#005E80"/>
<stop offset="0.4586" stop-color="#007294"/>
<stop offset="0.7921" stop-color="#0094B4"/>
<stop offset="1" stop-color="#00ADCB"/>
</linearGradient>
<linearGradient id="paint7_linear_4_3772" x1="112.795" y1="111.245" x2="145.549" y2="87.0276" gradientUnits="userSpaceOnUse">
<stop stop-color="#00ADCB"/>
<stop offset="0.263" stop-color="#00AAC8"/>
<stop offset="0.4649" stop-color="#00A0BF"/>
<stop offset="0.6465" stop-color="#0090B0"/>
<stop offset="0.8161" stop-color="#00799A"/>
<stop offset="0.9759" stop-color="#005B7E"/>
<stop offset="1" stop-color="#005679"/>
</linearGradient>
<linearGradient id="paint8_linear_4_3772" x1="160.118" y1="358.397" x2="160.118" y2="322.856" gradientUnits="userSpaceOnUse">
<stop stop-color="#005679"/>
<stop offset="0.0759131" stop-color="#007092"/>
<stop offset="0.1725" stop-color="#008BAB"/>
<stop offset="0.2712" stop-color="#009EBD"/>
<stop offset="0.3725" stop-color="#00A9C7"/>
<stop offset="0.4804" stop-color="#00ADCB"/>
<stop offset="0.5634" stop-color="#05AECC"/>
<stop offset="0.6628" stop-color="#14B3CE"/>
<stop offset="0.7705" stop-color="#2CB9D2"/>
<stop offset="0.8834" stop-color="#4DC3D8"/>
<stop offset="0.9749" stop-color="#6ECCDD"/>
</linearGradient>
<linearGradient id="paint9_linear_4_3772" x1="153.027" y1="322.78" x2="153.027" y2="293.617" gradientUnits="userSpaceOnUse">
<stop stop-color="#005679"/>
<stop offset="0.0759131" stop-color="#007092"/>
<stop offset="0.1725" stop-color="#008BAB"/>
<stop offset="0.2712" stop-color="#009EBD"/>
<stop offset="0.3725" stop-color="#00A9C7"/>
<stop offset="0.4804" stop-color="#00ADCB"/>
<stop offset="0.5634" stop-color="#05AECC"/>
<stop offset="0.6628" stop-color="#14B3CE"/>
<stop offset="0.7705" stop-color="#2CB9D2"/>
<stop offset="0.8834" stop-color="#4DC3D8"/>
<stop offset="0.9749" stop-color="#6ECCDD"/>
</linearGradient>
</defs>
</svg>
