<svg width="78" height="296" viewBox="0 0 78 296" fill="none" xmlns="http://www.w3.org/2000/svg">
<g clip-path="url(#clip0_2_778)">
<path d="M27.2784 33.8148V50.962L34.3136 54.1814L42.597 47.0805L43.3459 31.6914L27.2784 33.8148Z" fill="#F89C69"/>
<path d="M44.0494 36.9658C44.0494 36.9658 46.2281 43.2676 52.2647 45.528C52.2647 45.528 65.904 48.9985 65.4728 53.291C65.4728 53.291 55.5781 98.0426 56.5312 108.272L55.5554 139.895H8.35144C8.35144 139.895 12.2322 61.9902 8.35144 55.5514L23.4204 43.4959L30.796 51.4416C30.796 51.4873 36.9461 48.6789 44.0494 36.9658Z" fill="#FFF0CB"/>
<path d="M37.5135 55.9852C37.5135 55.9852 34.3817 48.382 32.6116 47.4459C32.6116 47.4459 41.2581 43.8155 43.5275 36.5776C43.5275 36.5776 49.4734 42.5597 49.723 44.295L37.5135 55.9852Z" fill="#DEDFE0"/>
<path d="M26.6657 55.9852C26.6657 55.9852 30.8641 48.382 32.6115 47.4459C32.6115 47.4459 28.345 44.5918 26.8018 40.7788C26.8018 40.7788 21.8545 43.4045 21.5822 45.1398L26.6657 55.9852Z" fill="#DEDFE0"/>
<path d="M37.1277 55.369C37.1277 55.369 34.2683 48.3594 32.4981 47.4233C32.4981 47.4233 40.8723 43.1765 43.1417 35.9614C43.1417 35.9614 49.0876 41.9435 49.3372 43.6788L37.1277 55.369Z" fill="#FFF0CB"/>
<path d="M27.165 55.369C27.165 55.369 30.8641 48.3595 32.6116 47.4233C32.6116 47.4233 28.8217 43.9756 27.2784 40.1626C27.2784 40.1626 22.3311 42.7883 22.0588 44.5236L27.165 55.369Z" fill="#FFF0CB"/>
<path d="M25.4629 29.2031C25.4629 29.2031 25.5991 36.0985 31.2045 39.7745C31.2045 39.7745 36.81 40.6421 38.7617 39.7745C38.7617 39.7745 43.3232 35.6875 44.231 29.2031C44.231 29.2031 44.9572 29.614 46.1146 26.9883C46.1146 26.9883 48.2706 21.577 47.8848 20.2984C47.8848 20.2984 47.499 18.7001 46.387 19.6363C46.387 19.6363 46.5458 4.77233 35.3122 4.27002C35.3122 4.27002 24.3736 4.36135 23.8743 20.8236C23.8743 20.8236 22.3992 18.9056 21.9226 19.9103C21.9226 19.9331 21.968 25.3215 25.4629 29.2031Z" fill="#FBB686"/>
<path d="M24.8729 26.874C24.8729 26.874 24.1013 20.5266 22.6488 19.4535C22.6488 19.4535 18.7681 9.40721 25.7126 4.79505C25.7126 4.79505 28.4586 -0.61624 37.1504 0.068734L36.0838 1.16469C36.0838 1.16469 41.9389 0.662378 44.2991 2.87713H42.6424C42.6424 2.87713 49.5869 7.12396 48.4975 13.4257C48.4975 13.4257 48.089 21.0974 47.5217 22.9012L46.4551 19.0197C46.4551 19.0197 46.2508 24.9333 44.5034 26.8512C44.5034 26.8512 45.865 16.9191 42.8467 14.1107C42.8467 14.1107 38.2625 10.0922 32.8839 12.0101C32.8839 12.0101 30.3422 14.4304 26.4388 13.0147C26.4161 13.0147 23.9424 16.9191 24.8729 26.874Z" fill="#77462D"/>
<path d="M23.9651 271.021H35.1533L35.5164 285.657L24.8048 283.83L23.9651 271.021Z" fill="#F89C69"/>
<path d="M51.6066 271.021H42.3474L43.5502 284.835L50.835 287.027L51.6066 271.021Z" fill="#F89C69"/>
<path d="M8.69186 130.008C8.69186 130.008 6.33166 154.919 8.69186 170.49L24.3736 280.497L36.3107 279.698L33.9732 167.476L41.5304 279.196C41.5304 279.196 50.6308 284.995 53.3314 280.84L58.2333 159.417C58.2333 159.417 61.2743 141.767 56.2135 130.008H8.69186Z" fill="#C6B37F"/>
<path d="M8.35144 129.14C8.35144 129.14 39.4652 130.168 54.9426 129.14V135.899C54.9426 135.899 41.2353 139.346 8.35144 136.218V129.14Z" fill="#7C4C45"/>
<path d="M27.5507 130.122V128.638H38.5801L38.2624 138.273L27.8684 137.977L27.9365 136.652L36.6511 136.812V130.122H27.5507Z" fill="#8A8C90"/>
<path d="M38.2851 133.821H33.2243V132.794H38.2851C38.3986 132.794 38.5121 132.885 38.5121 133.022V133.616C38.5121 133.73 38.4213 133.821 38.2851 133.821Z" fill="#51423A"/>
<path d="M24.3963 129.14H22.785V137.543H24.3963V129.14Z" fill="#8A8C90"/>
<path d="M34.7449 126.012L36.3334 138.913C36.4242 139.621 37.0597 140.123 37.7405 140.032L42.3928 139.415L40.4865 123.958L35.8115 124.574C35.1307 124.665 34.6541 125.327 34.7449 126.012Z" fill="#010D19"/>
<path d="M36.6285 119.117L39.8964 145.626L76.1164 140.922L72.8711 114.414L36.6285 119.117Z" fill="#02152B"/>
<path d="M59.6404 126.834C59.6404 126.834 57.3256 130.054 55.9639 130.328C55.9639 130.328 51.4932 134.095 50.6081 136.31C50.6081 136.31 46.6139 145.078 45.5019 145.717C45.5019 145.717 48.1571 147.475 51.2435 142.52C51.2435 142.52 50.0634 147.315 50.4946 147.886C50.4946 147.886 52.3328 149.096 53.6718 147.11C53.6718 147.11 55.8505 147.155 56.3951 145.991C56.3951 145.991 58.5738 146.379 58.9823 144.187C58.9823 144.187 60.4574 144.735 60.8659 142.817C60.8659 142.817 62.5906 132.748 64.4289 131.036L59.6404 126.834Z" fill="#FBB686"/>
<path d="M8.55573 130.008C8.55573 130.008 9.80391 133.798 11.0294 134.506C11.0294 134.506 14.1612 139.507 14.3655 141.881C14.3655 141.881 15.5682 151.471 16.4306 152.453C16.4306 152.453 13.3669 153.297 11.9145 147.612C11.9145 147.612 11.6195 152.567 11.0294 152.955C11.0294 152.955 8.91884 153.526 8.23801 151.197C8.23801 151.197 6.15015 150.558 5.99129 149.279C5.99129 149.279 3.78995 148.959 4.06228 146.744C4.06228 146.744 2.49638 146.813 2.65524 144.849C2.65524 144.849 3.9942 134.712 2.76871 132.52L8.55573 130.008Z" fill="#FBB686"/>
<path d="M69.3081 52.9713C65.4047 47.149 56.4178 46.738 56.4178 46.738C51.7201 45.5279 49.7457 44.2949 49.7457 44.2949L59.3454 55.5742C56.7129 63.2915 59.1411 88.7954 59.1411 88.7954C61.0928 93.9099 64.4062 102.152 64.4062 102.152C63.8615 113.797 55.737 129.14 55.737 129.14C57.5071 129.734 64.4062 135.67 64.4062 135.67C68.6954 129.255 77.8866 106.148 77.8866 106.148C79.0893 89.115 69.3081 52.9713 69.3081 52.9713Z" fill="#FFF0CB"/>
<path d="M0.703504 58.4971C3.78992 52.1725 12.8222 49.4097 12.8222 49.4097C18.9043 46.2817 21.0829 45.4141 21.0829 45.4141L13.4803 59.2734C9.98544 71.0777 9.53155 131.447 9.53155 131.447C7.87487 132.292 1.29355 135.694 1.29355 135.694C-0.226959 128.958 1.95169 112.039 1.95169 112.039C-1.52053 95.303 0.703504 58.4971 0.703504 58.4971Z" fill="#FFF0CB"/>
<path d="M26.4841 287.826L25.0317 287.05L25.2359 286.388L26.6884 286.593L26.4841 287.826Z" fill="#B3B3B3"/>
<path d="M36.1065 288.557L29.6159 288.785L29.7521 287.552L36.2426 287.392L36.1065 288.557Z" fill="#B3B3B3"/>
<path d="M36.3107 286.137L36.2426 287.37C36.2426 287.37 34.5406 288.169 29.7521 287.552C29.7521 287.552 25.0998 288.306 24.1693 289.059C24.1693 289.059 18.5411 290.909 12.4137 288.671L12.5499 287.484C12.5499 287.484 14.5923 288.58 21.219 288.625L28.8216 286.388C28.8216 286.388 30.2513 286.114 32.1123 286.251C32.135 286.251 35.5391 286.548 36.3107 286.137Z" fill="#CECECC"/>
<path d="M35.1533 279.196C35.1533 279.196 36.583 281.821 36.4696 283.648L36.3107 286.137C36.3107 286.137 34.4498 286.936 30.7052 286.274C30.7052 286.274 27.5053 286.662 25.7579 287.324C25.7579 287.324 23.375 288.922 19.6305 288.762C19.6305 288.762 16.6121 288.831 12.5045 287.849C12.5045 287.849 11.9825 285.086 14.3427 284.493C14.3427 284.493 15.6817 283.648 18.3823 284.493L23.6927 280.04C23.6927 280.04 26.8926 280.086 28.5947 282.232L30.6598 282.483C30.6825 282.483 33.7236 281.753 35.1533 279.196Z" fill="#022C5E"/>
<path d="M42.4608 284.835L42.597 288.237L44.6168 289.675C44.6168 289.675 43.9132 286.89 42.4608 284.835Z" fill="#B4B4B4"/>
<path d="M42.5063 285.566C42.5063 285.566 44.5714 288.602 44.9572 290.977C44.9572 290.977 45.4565 294.288 48.316 295.635C48.316 295.635 54.2165 297.073 56.4178 294.219L56.3497 292.689C56.3497 292.689 53.3995 294.699 48.1571 293.74C48.1571 293.74 45.5246 292.986 44.7757 288.648L42.302 284.538L42.5063 285.566Z" fill="#CACCCC"/>
<path d="M51.8109 284.013C51.8109 284.013 49.7457 282.643 47.6351 284.173C47.6351 284.173 46.2508 285.748 45.048 284.287C45.048 284.287 43.936 281.638 42.7105 281.547C42.7105 281.547 41.8935 282.894 42.3247 284.538C42.3247 284.538 44.1856 287.621 44.821 289.082C44.821 289.082 45.4565 293.078 48.4067 293.74C48.4067 293.74 53.3995 295.566 56.3724 292.689C56.3724 292.689 56.3497 288.625 53.2633 287.232C53.2406 287.232 52.1286 286.41 51.8109 284.013Z" fill="#022C5E"/>
</g>
<defs>
<clipPath id="clip0_2_778">
<rect width="78" height="296" fill="white"/>
</clipPath>
</defs>
</svg>
