<svg width="113" height="290" viewBox="0 0 113 290" fill="none" xmlns="http://www.w3.org/2000/svg">
<g clip-path="url(#clip0_2_812)">
<path d="M74.5142 274.597L75.9185 273.814L75.6771 273.183L74.2948 273.444L74.5142 274.597Z" fill="#B3B3B3"/>
<path d="M65.2548 275.598L71.5301 275.62L71.3546 274.445L65.0792 274.488L65.2548 275.598Z" fill="#B3B3B3"/>
<path d="M64.9695 273.292L65.0792 274.466C65.0792 274.466 66.7688 275.184 71.3546 274.423C71.3546 274.423 75.8746 275.01 76.7961 275.685C76.7961 275.685 82.2816 277.273 88.14 274.945L87.9645 273.814C87.9645 273.814 86.0336 274.923 79.6266 275.163L72.2103 273.27C72.2103 273.27 70.806 273.052 69.0288 273.226C69.0288 273.27 65.7375 273.662 64.9695 273.292Z" fill="#CECECC"/>
<path d="M65.8911 266.656C65.8911 266.656 64.5746 269.202 64.7501 270.942L64.9695 273.313C64.9695 273.313 66.7907 274.01 70.3891 273.27C70.3891 273.27 73.4829 273.531 75.1944 274.118C75.1944 274.118 77.5641 275.554 81.1625 275.293C81.1625 275.293 84.0808 275.271 88.0084 274.205C88.0084 274.205 88.4253 271.573 86.1214 271.051C86.1214 271.051 84.8049 270.289 82.2158 271.181L76.9497 267.113C76.9497 267.113 73.8779 267.244 72.2761 269.354L70.2794 269.659C70.3014 269.637 67.3392 269.028 65.8911 266.656Z" fill="#022C5E"/>
<path d="M45.7485 279.362L45.6169 282.603L43.6641 283.974C43.686 283.974 44.3443 281.32 45.7485 279.362Z" fill="#B4B4B4"/>
<path d="M45.7266 280.058C45.7266 280.058 43.7299 282.951 43.3569 285.214C43.3569 285.214 42.8742 288.368 40.1095 289.652C40.1095 289.652 34.4047 291.023 32.2763 288.303L32.3421 286.846C32.3421 286.846 35.1946 288.76 40.2631 287.846C40.2631 287.846 42.8083 287.128 43.5324 282.995L45.9241 279.079L45.7266 280.058Z" fill="#CACCCC"/>
<path d="M36.7085 278.578C36.7085 278.578 38.7052 277.273 40.7458 278.731C40.7458 278.731 42.0843 280.232 43.2472 278.839C43.2472 278.839 44.3223 276.316 45.5072 276.229C45.5072 276.229 46.2971 277.512 45.8802 279.079C45.8802 279.079 44.081 282.016 43.4666 283.408C43.4666 283.408 42.8522 287.215 39.9998 287.846C39.9998 287.846 35.1726 289.587 32.2982 286.845C32.2982 286.845 32.3202 282.973 35.3043 281.646C35.3262 281.646 36.4014 280.863 36.7085 278.578Z" fill="#022C5E"/>
<path d="M58.5187 27.9556V43.3584L70.8499 64.0261L76.5767 50.0808V30.5445L58.5187 27.9556Z" fill="#F89C69"/>
<path d="M42.7207 132.86L33.5271 281.668H46.7799L56.522 211.55L68.5022 165.341L71.1572 133.578C63.6092 133.622 53.9109 135.95 42.7207 132.86Z" fill="#002B6A"/>
<path d="M6.69536 156.791L29.5707 171.116L56.4939 142.326L33.6186 128.001L6.69536 156.791Z" fill="white"/>
<path d="M6.57586 158.262L30.1112 173L57.0432 144.196L33.5079 129.458L6.57586 158.262Z" fill="#F2A100"/>
<path d="M42.7864 132.86L92.8794 135.014L90.5975 104.469C90.5975 104.469 101.437 68.5512 98.0138 51.756C98.0138 51.756 84.2783 42.7492 77.4105 42.0313L68.2388 47.4049L65.6278 45.4686L55.4907 39.6382C55.4907 39.6382 33.9 47.753 31.4645 50.8205C31.4645 50.8205 24.5654 61.5242 23.4684 143.956C23.4684 143.956 27.7344 145.457 31.5522 143.629L35.7431 104.796L43.8396 78.1671C43.8396 78.1671 48.3596 99.4874 46.8895 108.603L42.7864 132.86Z" fill="#FFAD86"/>
<path d="M79.5389 270.333H65.1451L70.3891 205.371L66.7249 170.824L70.3891 134.579C84.3002 134.057 93.428 134.362 93.428 134.362L88.0961 209.896L79.5389 270.333Z" fill="#022D60"/>
<path d="M29.4268 140C29.4268 140 35.7524 151.15 39 154.276C39 154.276 37.8422 155.735 35.7524 155.057C35.7524 155.057 31.8554 151.358 30.5846 151.28C30.5846 151.28 28.4667 150.603 30.0481 152.635C30.0481 152.635 32.4767 158.262 29.0032 160.606C29.0032 160.606 26.5747 161.492 25.9534 160.606C25.9534 160.606 24.0614 160.502 23.3271 159.929C23.3271 159.929 21.6328 159.747 21.3221 158.574C21.3221 158.574 19.0065 158.47 19.0065 157.61C19.0065 157.61 18.8088 150.811 20.5879 147.32C20.5879 147.32 24.1743 142.188 23.5248 140.729L29.4268 140Z" fill="#FFAD86"/>
<path d="M68.7435 47.2312L76.7084 51.2342C76.7084 51.2342 79.7583 44.6641 79.7583 42.7931L77.1472 39.9431C77.1472 39.9431 74.2728 44.2072 68.3705 46.1434C68.3705 46.1434 60.0326 45.295 57.641 39.334C57.641 39.334 54.3497 40.8569 54.2181 41.9446C54.2181 41.9446 58.1237 47.7751 61.9855 51.256L68.7435 47.2312Z" fill="#E8F3FC"/>
<path d="M68.7435 46.0782L76.7084 50.0812C76.7084 50.0812 79.4072 44.2507 79.4072 42.358L77.1472 38.7683C77.1472 38.7683 74.2728 43.0324 68.3705 44.9686C68.3705 44.9686 60.0327 44.1202 57.641 38.1592C57.641 38.1592 54.7008 40.0954 54.5692 41.2049C54.5692 41.2049 58.1237 46.622 61.9855 50.0812L68.7435 46.0782Z" fill="white"/>
<path d="M105.126 134C105.126 134 99.7565 144.088 97 146.916C97 146.916 97.9827 148.236 99.7804 147.623C99.7804 147.623 103.088 144.277 104.167 144.206C104.167 144.206 105.965 143.593 104.622 145.431C104.622 145.431 102.561 150.523 105.509 152.644C105.509 152.644 107.571 153.445 108.098 152.644C108.098 152.644 109.704 152.55 110.327 152.031C110.327 152.031 111.765 151.866 112.029 150.805C112.029 150.805 113.994 150.711 113.994 149.933C113.994 149.933 114.162 143.782 112.652 140.623C112.652 140.623 109.608 135.98 110.159 134.66L105.126 134Z" fill="#FFAD86"/>
<path d="M103.477 137.146C103.477 137.146 107.142 138.691 110.608 136.82C110.608 136.82 105.298 60.1971 97.3775 51.2339L91.8701 101.707L103.477 137.146Z" fill="#FFAD86"/>
<path d="M57.5313 24.9102C57.5313 24.9102 60.0985 35.6138 64.7721 38.5291C64.7721 38.5291 70.5427 40.1172 73.7243 38.5291C73.7243 38.5291 78.3759 30.8711 79.9777 24.9102C79.9777 24.9102 82.0622 21.3858 81.5794 19.319C81.5794 19.319 80.8334 18.5793 80.241 19.319C80.241 19.319 81.5794 10.6821 77.9152 6.54856C77.9152 6.54856 65.6497 0.478797 61.8538 7.52756L58.5187 20.6678C58.5187 20.6678 55.8198 15.9252 55.3371 19.6888C55.3152 19.6888 55.3152 22.3648 57.5313 24.9102Z" fill="#FBB686"/>
<path d="M79.6046 21.1465L78.6172 10.3341C78.6172 10.3341 76.1597 11.9222 74.5799 11.9222C74.5799 11.9222 70.8937 12.1615 69.4236 11.1825C69.4236 11.1825 63.6529 8.98523 62.6875 9.72492C62.6875 9.72492 62.3145 20.2981 59.2646 21.1465C59.2646 21.1465 57.0485 17.4916 55.5784 17.992C55.5784 17.992 53.2526 9.35508 55.5784 6.57038C55.5784 6.57038 57.1801 3.89446 59.7473 4.13377C59.7473 4.13377 63.5432 3.046 63.7846 0.609388C63.7846 0.609388 72.1225 -1.58791 78.7489 2.43685C78.7489 2.43685 83.1592 6.57038 81.3161 18.6011L79.6046 21.1465Z" fill="#77462D"/>
<path d="M43.708 127.813C48.1841 127.987 77.4983 129.075 92.4406 128.313C92.7697 128.292 93.055 128.553 93.0769 128.879L93.428 134.383C93.4499 134.709 93.2086 134.992 92.8794 135.036C89.6101 135.319 72.6272 136.493 42.7425 134.231C42.4134 134.209 42.1721 133.905 42.2159 133.578L43.0717 128.379C43.0936 128.052 43.3789 127.813 43.708 127.813Z" fill="#012249"/>
<path d="M65.1451 129.053V127.792H76.5328L76.1818 135.863L65.4742 135.623L65.54 134.514L74.5361 134.666V129.053H65.1451Z" fill="#8A8C90"/>
<path d="M76.3134 132.143H71.0035V131.272H76.3134C76.4012 131.272 76.467 131.338 76.467 131.425V132.012C76.467 132.077 76.4012 132.143 76.3134 132.143Z" fill="#51423A"/>
<path d="M61.8977 128.227H60.2301V135.275H61.8977V128.227Z" fill="#8A8C90"/>
<path d="M39 99.5L22.5 95.5L28.5 58C29.3 52 32.1667 49.1667 33 49L55.5 39.5L61 50.5L69 47L77 50.5L79 41.5C84.8333 44.5 96.5 47.5 99.5 52C100.609 53.6641 106.833 80.5 109.5 93.5L92 99.5C93.1667 107.667 95.3 124.7 94.5 127.5C93.7 130.3 59.1667 128.667 42 127.5L46 106V102L44 79L39 99.5Z" fill="#CCE9F3"/>
</g>
<defs>
<clipPath id="clip0_2_812">
<rect width="113" height="290" fill="white"/>
</clipPath>
</defs>
</svg>
