<svg width="93" height="112" viewBox="0 0 93 112" fill="none" xmlns="http://www.w3.org/2000/svg">
<g clip-path="url(#clip0_2_993)">
<path opacity="0.26" d="M40.2864 91.4278L55.9671 100.478L71.6301 91.4278L55.9671 82.3774L40.2864 91.4278Z" fill="#2EA1AA"/>
<path opacity="0.26" d="M61.6563 102.95L77.337 112L93 102.95L77.337 93.8994L61.6563 102.95Z" fill="#2EA1AA"/>
<path opacity="0.26" d="M0.408905 68.2064L16.0897 77.2567L31.7526 68.2064L16.0897 59.1738L0.408905 68.2064Z" fill="#2EA1AA"/>
<path opacity="0.26" d="M20.1432 79.4793L35.8239 88.5296L51.4869 79.4793L35.8239 70.429L20.1432 79.4793Z" fill="#2EA1AA"/>
<path d="M15.663 18.1006V75.4964L31.3437 66.4461V9.05029L15.663 18.1006Z" fill="#008C99"/>
<path d="M0 9.05033L15.663 18.1007L31.3437 9.05033L15.663 0L0 9.05033Z" fill="#63F2FF"/>
<path d="M15.663 18.1006V75.4964L0 66.4461V9.05029L15.663 18.1006Z" fill="#00ADBD"/>
<path d="M35.8239 37.8904V86.9826L51.4869 77.9323V28.8401L35.8239 37.8904Z" fill="#358C11"/>
<path d="M20.1432 28.8402L35.8239 37.8905L51.4869 28.8402L35.8239 19.8076L20.1432 28.8402Z" fill="#95D94C"/>
<path d="M35.8239 37.8904V86.9826L20.1432 77.9323V28.8401L35.8239 37.8904Z" fill="#35C473"/>
<path d="M55.9671 54.9065V98.469L71.6301 89.4187V45.8562L55.9671 54.9065Z" fill="#A61D1D"/>
<path d="M40.2864 45.8562L55.9671 54.9066L71.6301 45.8562L55.9671 36.8059L40.2864 45.8562Z" fill="#FA7564"/>
<path d="M55.9671 54.9065V98.469L40.2864 89.4187V45.8562L55.9671 54.9065Z" fill="#D43E3E"/>
<path d="M77.337 75.532V110.044L93 100.994V66.4817L77.337 75.532Z" fill="#E08910"/>
<path d="M61.6563 66.4817L77.337 75.532L93 66.4817L77.337 57.4314L61.6563 66.4817Z" fill="#FFE44A"/>
<path d="M77.337 75.532V110.044L61.6563 100.994V66.4817L77.337 75.532Z" fill="#FFB000"/>
</g>
<defs>
<clipPath id="clip0_2_993">
<rect width="93" height="112" fill="white"/>
</clipPath>
</defs>
</svg>
