<svg width="62" height="62" viewBox="0 0 62 62" fill="none" xmlns="http://www.w3.org/2000/svg">
<rect width="62" height="62" rx="5" fill="white"/>
<g clip-path="url(#clip0_2_3562)">
<path d="M51 18.5975C49.5125 19.25 47.9275 19.6825 46.275 19.8925C47.975 18.8775 49.2725 17.2825 49.8825 15.36C48.2975 16.305 46.5475 16.9725 44.6825 17.345C43.1775 15.7425 41.0325 14.75 38.6925 14.75C34.1525 14.75 30.4975 18.435 30.4975 22.9525C30.4975 23.6025 30.5525 24.2275 30.6875 24.8225C23.87 24.49 17.8375 21.2225 13.785 16.245C13.0775 17.4725 12.6625 18.8775 12.6625 20.39C12.6625 23.23 14.125 25.7475 16.305 27.205C14.9875 27.18 13.695 26.7975 12.6 26.195C12.6 26.22 12.6 26.2525 12.6 26.285C12.6 30.27 15.4425 33.58 19.17 34.3425C18.5025 34.525 17.775 34.6125 17.02 34.6125C16.495 34.6125 15.965 34.5825 15.4675 34.4725C16.53 37.72 19.545 40.1075 23.13 40.185C20.34 42.3675 16.7975 43.6825 12.9625 43.6825C12.29 43.6825 11.645 43.6525 11 43.57C14.6325 45.9125 18.9375 47.25 23.58 47.25C38.67 47.25 46.92 34.75 46.92 23.915C46.92 23.5525 46.9075 23.2025 46.89 22.855C48.5175 21.7 49.885 20.2575 51 18.5975Z" fill="#03A9F4"/>
</g>
<defs>
<clipPath id="clip0_2_3562">
<rect width="40" height="40" fill="white" transform="translate(11 11)"/>
</clipPath>
</defs>
</svg>
